<svg width="1440" height="864" viewBox="0 0 1440 864" fill="none" xmlns="http://www.w3.org/2000/svg">
<path d="M1226.9 0C1226.83 0.133878 1226.76 0.274815 1226.69 0.408693C1226.51 0.338231 1226.32 0.274787 1226.13 0.204325C1226.39 0.140909 1226.64 0.0704622 1226.9 0Z" fill="#E3E4E5"/>
<path d="M1776.87 55.1777V734.18H-337V84.4196C-327.072 90.5005 -321.146 99.6676 -322.048 109.631C-322.527 114.937 -324.888 119.841 -328.636 124.048C-325.557 123.716 -322.4 123.604 -319.173 123.745C-314.043 123.984 -309.182 124.83 -304.707 126.183C-297.182 118.756 -284.555 114.148 -270.688 114.768C-249.338 115.733 -233.132 128.698 -234.484 143.749C-234.541 144.291 -234.611 144.82 -234.703 145.348C-222.337 150.203 -214.339 159.765 -215.298 170.383C-215.34 170.834 -215.403 171.285 -215.481 171.722C-215.107 171.736 -214.741 171.743 -214.375 171.757C-199.296 172.434 -187.853 181.594 -188.818 192.22C-188.839 192.487 -188.874 192.755 -188.917 193.023C-188.226 193.037 -187.543 193.051 -186.845 193.079C-175.923 193.573 -165.904 196.18 -157.547 200.288C-158.716 194.855 -157.815 189.648 -154.503 185.723C-149.817 180.178 -141.46 178.557 -132.723 180.692C-132.927 179.17 -132.97 177.613 -132.822 176.042C-131.751 164.105 -120.653 154.311 -105.68 150.436C-102.748 134.589 -84.4422 122.385 -62.2818 122.385C-38.2542 122.385 -18.7573 136.738 -18.4825 154.522C-16.1432 154.212 -13.7193 154.1 -11.239 154.205C4.77707 154.931 16.9318 164.655 15.9101 175.936C15.748 177.705 15.2759 179.403 14.5361 181.009C18.0099 180.185 21.7585 179.811 25.6409 179.98C35.2379 180.41 43.4538 184.088 48.2734 189.387C55.834 186.47 64.6136 184.969 73.8512 185.385C87.8239 186.005 99.9645 190.867 107.955 198.075C124.506 179.255 154.862 167.311 188.416 168.812C227.579 170.574 259.125 190.12 268.207 215.564C277.163 205.833 293.116 199.689 310.717 200.485C336.661 201.648 356.341 217.403 354.693 235.681C354.594 236.794 354.418 237.886 354.164 238.957C359.082 236.85 364.931 235.737 371.117 236.019C379.178 236.378 386.267 239.028 391.185 243.009C401.289 234.892 416.432 230.037 432.913 230.777C461.105 232.038 482.497 249.174 480.7 269.024C480.559 270.623 480.256 272.201 479.826 273.738C483.519 272.772 487.535 272.321 491.713 272.511C507.729 273.23 519.891 282.961 518.862 294.242C518.44 298.921 515.826 303.127 511.76 306.397C523.661 310.195 532.596 317.657 535.83 326.626C536.753 329.17 537.218 331.841 537.154 334.582C540.107 334.194 543.165 334.06 546.293 334.194C552.783 334.49 558.772 335.934 563.895 338.239C571.04 329.424 580.996 321.884 592.904 316.219C607.814 309.131 625.775 304.995 645.117 304.995C656.912 304.995 668.193 306.538 678.586 309.349C683.962 296.624 697.202 286.414 714.135 281.34C707.116 277.916 702.748 272.046 703.326 265.606C704.213 255.812 716.199 248.378 730.108 249.005C734.808 249.217 739.12 250.316 742.742 252.07C742.157 249.562 741.946 246.955 742.178 244.298C743.884 225.527 766.868 211.273 793.524 212.464C816.882 213.52 835.301 226.084 838.359 241.818C842.7 240.818 847.371 240.367 852.212 240.585C855.756 240.747 859.153 241.261 862.338 242.058C868.087 231.735 882.779 224.745 899.323 225.485C911.083 226.013 921.209 230.34 927.466 236.66C944.588 221.476 971.012 211.745 1000.67 211.745C1024.04 211.745 1045.41 217.783 1061.8 227.775C1069.38 221.405 1080.74 217.354 1093.47 217.354C1100.7 217.354 1107.51 218.678 1113.43 220.975C1122.72 210.829 1138.89 204.1 1157.31 204.1C1165.4 204.1 1173.05 205.403 1179.87 207.721C1180.1 180.608 1206.73 158.687 1239.54 158.687C1272.34 158.687 1299.22 180.798 1299.22 208.074C1299.22 208.623 1299.19 209.173 1299.17 209.708C1304.93 207.559 1311.5 206.333 1318.48 206.333C1341.3 206.333 1359.81 219.362 1359.81 235.448C1359.81 238.062 1359.3 240.613 1358.38 243.037C1366.38 239.69 1375.73 237.759 1385.71 237.759C1392.72 237.759 1399.41 238.711 1405.55 240.43C1412.7 242.438 1419.09 245.496 1424.34 249.329C1427.28 235.286 1444.46 224.491 1465.21 224.491C1466.23 224.491 1467.21 224.534 1468.19 224.576C1464.25 219.432 1461.91 213.584 1461.68 207.362C1461.66 207.017 1461.65 206.679 1461.65 206.333C1461.65 189.902 1476.32 175.88 1496.91 170.405C1496.84 169.587 1496.79 168.756 1496.79 167.931C1496.79 147.046 1520.82 130.107 1550.47 130.107C1567.25 130.107 1582.23 135.533 1592.07 144.038C1600.81 140 1611.25 137.647 1622.46 137.647C1628.4 137.647 1634.1 138.316 1639.46 139.528C1642.27 109.159 1678.11 85.1383 1721.92 85.1383C1734.2 85.1383 1745.84 87.0196 1756.31 90.4088C1759.31 77.4368 1766.49 65.4582 1776.87 55.1777Z" fill="#E3F0FF"/>
<path d="M1776.87 220.076V719.421H-337V227.475C-319.666 232.196 -307.899 244.421 -309.146 258.182C-309.625 263.481 -311.986 268.385 -315.734 272.599C-312.669 272.261 -309.499 272.148 -306.278 272.296C-300.923 272.528 -295.857 273.451 -291.228 274.896C-285.929 261.029 -267.355 251.242 -246.224 252.186C-227.248 253.039 -211.88 262.297 -206.941 274.487C-187.225 276.221 -172.569 288.495 -173.852 302.665C-173.873 302.933 -173.915 303.194 -173.95 303.461C-166.643 301.566 -158.674 300.671 -150.402 301.045C-130.503 301.939 -113.614 309.852 -104.277 321.133C-86.8802 306.935 -60.5978 298.43 -31.9831 299.713C-14.4309 300.509 1.57806 304.871 14.7334 311.741C16.5654 310.324 18.6229 309.014 20.8847 307.844C19.0598 301.488 19.2148 295.45 21.6598 290.165C28.5369 275.305 51.6415 270.464 79.0231 276.129C88.3171 234.303 125.634 203.024 170.265 203.024C221.526 203.024 263.141 244.287 263.712 295.408C266.897 294.787 270.187 294.449 273.555 294.449C301.36 294.449 323.915 316.99 323.915 344.802C323.915 346.225 323.837 347.634 323.717 349.036C349.612 350.241 369.243 365.975 367.594 384.232C367.495 385.345 367.312 386.431 367.066 387.509C371.977 385.395 377.832 384.289 384.012 384.556C386.619 384.676 389.127 385.035 391.495 385.606C396.441 386.776 400.761 388.862 404.079 391.56C411.978 385.212 422.956 380.857 435.238 379.617C438.676 379.272 442.214 379.166 445.814 379.328C456.059 379.786 465.396 382.337 473.055 386.353C482.328 391.215 489.134 398.226 492.073 406.266C492.221 406.667 492.362 407.076 492.488 407.485C493.031 406.963 493.602 406.449 494.194 405.956C498.598 402.242 504.22 399.29 510.597 397.395C516.572 395.619 523.203 394.766 530.115 395.076C541.953 395.605 552.367 399.445 559.667 405.244C565.586 395.175 580.087 388.404 596.385 389.136C597.858 389.2 599.302 389.327 600.719 389.503C606.024 390.186 610.914 391.652 615.149 393.716C618.94 395.57 622.202 397.895 624.781 400.572C636.112 393.956 649.69 389.193 664.592 386.931C670.462 386.043 676.543 385.543 682.772 385.465C683.293 385.458 683.815 385.458 684.343 385.458C702.924 385.458 720.229 389.284 734.78 395.865C735.865 392.786 738.085 390.038 741.093 387.847C746.054 384.225 753.156 382.097 760.844 382.442C761.105 382.464 761.365 382.478 761.626 382.492C760.344 378.257 759.653 373.825 759.653 369.245C759.653 366.18 759.963 363.178 760.555 360.254C765.656 334.902 791.974 315.581 823.661 315.581C840.734 315.581 856.229 321.204 867.707 330.336C884.822 309.761 910.611 296.648 939.473 296.648C980.933 296.648 1016.07 323.698 1028.22 361.107C1045.82 363.065 1061.8 368.463 1074.69 376.319C1082.27 369.957 1093.64 365.905 1106.36 365.905C1113.61 365.905 1120.41 367.216 1126.33 369.527C1133.01 362.213 1143.28 356.667 1155.38 354.145C1160.08 353.165 1165.05 352.637 1170.19 352.637C1179.42 352.637 1188.07 354.342 1195.59 357.302C1195.61 357.175 1195.64 357.041 1195.67 356.914C1198.54 342.61 1211.61 332.287 1226.58 333.239C1232.27 333.605 1237.5 335.557 1241.84 338.643C1241.52 336.86 1241.35 335.035 1241.35 333.175C1241.35 312.847 1261.18 296.38 1285.65 296.38C1292.85 296.38 1299.65 297.803 1305.66 300.34C1320.08 306.407 1329.97 318.829 1329.97 333.175C1329.97 333.45 1329.95 333.711 1329.95 333.986C1337.58 322.359 1350.07 312.643 1365.59 306.118C1366.59 305.695 1367.62 305.286 1368.65 304.892C1378.51 301.101 1389.49 298.585 1401.15 297.641C1404.57 297.359 1408.03 297.218 1411.56 297.218C1444.7 297.218 1473.65 309.859 1489.23 328.666C1494.9 324.403 1501.92 321.049 1509.82 318.942C1509.74 318.124 1509.69 317.307 1509.69 316.476C1509.69 301.101 1522.7 287.875 1541.4 281.963C1548.1 279.835 1555.54 278.659 1563.37 278.659C1580.15 278.659 1595.12 284.084 1604.97 292.575C1613.7 288.552 1624.14 286.198 1635.36 286.198C1638.48 286.198 1641.54 286.381 1644.51 286.734C1647.2 287.044 1649.82 287.488 1652.36 288.065C1655.17 257.703 1691.02 233.683 1734.82 233.683C1747.09 233.683 1758.74 235.571 1769.21 238.953C1770.73 232.372 1773.32 226.052 1776.87 220.076Z" fill="#ECF5FF"/>
<path d="M1705.63 339.388C1685.78 338.253 1666.95 342.439 1650.8 350.598C1649.94 347.131 1648.96 343.672 1647.74 340.247C1646.77 337.513 1645.69 334.822 1644.51 332.172C1616.83 270.088 1532.41 232.193 1461.68 252.804C1460.61 253.114 1459.55 253.431 1458.5 253.769C1438.04 260.273 1420.09 271.575 1405.54 285.871C1387.29 303.825 1374.4 326.5 1368.65 350.33C1368.47 351.07 1368.3 351.817 1368.13 352.564C1367.28 352.219 1366.44 351.888 1365.59 351.556C1349.5 345.426 1331.95 342.685 1314.41 344.496C1311.46 344.799 1308.54 345.229 1305.66 345.778C1262.44 353.994 1227.89 388.88 1222.84 428.008C1216.89 416.727 1207.32 407.658 1195.67 402.353C1188.39 399.048 1180.32 397.202 1171.81 397.202C1166.1 397.202 1160.58 398.033 1155.38 399.583C1133.22 406.15 1116.64 425.704 1114.43 449.443C1099.68 441.797 1082.95 437.45 1065.19 437.45C1021.95 437.45 984.702 463.077 967.77 499.971C962.563 500.147 957.469 500.732 952.515 501.74C931.891 494.419 908.399 495.764 890.903 509.399C908.772 474.21 892.693 425.57 857.518 408.433C827.283 393.707 787.986 404.762 767.474 431.122C767.488 430.664 767.502 430.199 767.502 429.727C767.502 420.891 764.959 412.647 760.555 405.692C752.579 393.066 738.5 384.688 722.463 384.688C703.995 384.688 688.134 395.821 681.193 411.724C674.845 409.829 668.108 408.807 661.147 408.807C655.024 408.807 649.105 409.582 643.454 411.062C636.767 386.794 617.39 367.791 592.904 361.661C587.436 360.287 581.715 359.561 575.824 359.561C560.949 359.561 547.167 364.183 535.83 372.068C518.087 384.406 506.32 404.734 505.707 427.846C491.544 420.017 480.439 418.397 473.055 431.792C469.75 437.781 467.199 446.786 465.452 459.589C462.958 441.459 450.535 429.664 435.238 425.056C421.258 420.835 404.89 422.618 391.495 431.045C387.789 433.37 384.315 436.21 381.186 439.564C371.336 450.126 367.249 463.26 367.066 476.211C366.594 474.83 366.079 473.47 365.515 472.124C365.311 471.645 365.1 471.159 364.888 470.68C364.67 470.208 364.451 469.729 364.226 469.256C364.078 468.939 363.916 468.629 363.761 468.312C363.733 468.235 363.69 468.157 363.648 468.08C363.43 467.664 363.218 467.248 362.993 466.833C362.767 466.403 362.528 465.973 362.288 465.55C362.112 465.233 361.929 464.909 361.739 464.592C361.457 464.12 361.168 463.641 360.879 463.169C360.583 462.696 360.287 462.231 359.984 461.766C359.716 461.358 359.442 460.942 359.153 460.54C358.941 460.23 358.73 459.92 358.511 459.617C358.399 459.455 358.286 459.3 358.166 459.145C357.92 458.807 357.666 458.462 357.412 458.123C357.116 457.729 356.806 457.334 356.496 456.94C355.883 456.158 355.249 455.382 354.587 454.621C354.263 454.241 353.931 453.868 353.593 453.494C353.297 453.163 353.001 452.832 352.691 452.508C352.628 452.43 352.55 452.346 352.466 452.268C352.191 451.972 351.902 451.669 351.613 451.373C351.536 451.289 351.458 451.204 351.374 451.12C351.085 450.824 350.789 450.535 350.5 450.246C349.373 449.132 348.21 448.047 347.005 447.004C346.702 446.737 346.392 446.476 346.082 446.208C345.969 446.117 345.864 446.025 345.751 445.933C345.476 445.701 345.194 445.468 344.912 445.236C344.743 445.102 344.567 444.961 344.391 444.827C344.088 444.581 343.785 444.341 343.475 444.101C342.657 443.46 341.819 442.833 340.966 442.227C340.663 442.016 340.367 441.804 340.065 441.593C339.874 441.459 339.691 441.332 339.501 441.205C339.12 440.945 338.747 440.691 338.359 440.437C337.993 440.191 337.619 439.951 337.246 439.712C337.035 439.578 336.823 439.444 336.612 439.31C336.323 439.127 336.034 438.951 335.745 438.775C334.117 437.781 332.44 436.83 330.721 435.935C330.39 435.759 330.052 435.583 329.707 435.413C329.397 435.251 329.079 435.096 328.762 434.941C328.34 434.73 327.91 434.519 327.473 434.314C327.022 434.103 326.564 433.891 326.106 433.687C325.852 433.567 325.599 433.455 325.345 433.349C324.866 433.13 324.38 432.919 323.886 432.715C323.302 432.468 322.71 432.222 322.111 431.989C322.047 431.961 321.991 431.94 321.928 431.919C321.35 431.686 320.765 431.46 320.18 431.249C320.18 431.249 320.18 431.249 320.166 431.249C319.687 431.066 319.201 430.89 318.714 430.721C317.39 430.249 316.044 429.805 314.684 429.396C314.409 429.311 314.141 429.227 313.867 429.149C313.402 429.008 312.93 428.875 312.457 428.748C311.922 428.593 311.386 428.452 310.844 428.311C310.632 428.255 310.421 428.198 310.21 428.149C309.632 428.001 309.054 427.86 308.469 427.726C306.588 427.282 304.685 426.895 302.755 426.57C302.452 426.507 302.142 426.458 301.832 426.415C301.458 426.345 301.078 426.289 300.697 426.232C300.437 426.19 300.176 426.155 299.915 426.112C299.591 426.07 299.267 426.021 298.943 425.986C298.555 425.929 298.161 425.88 297.766 425.831C297.688 425.817 297.611 425.809 297.534 425.802C296.371 425.661 295.201 425.542 294.024 425.443C293.447 425.394 292.869 425.351 292.284 425.316C291.939 425.288 291.601 425.267 291.262 425.246C290.826 425.218 290.382 425.196 289.938 425.182C289.712 425.168 289.494 425.154 289.268 425.154C288.831 425.133 288.395 425.119 287.958 425.112C287.042 425.084 286.126 425.07 285.203 425.07C265.685 425.07 247.724 430.495 233.371 439.606C228.65 402.585 190.614 373.738 144.398 373.738C98.1818 373.738 64.0499 399.731 56.4118 434.025C51.5922 432.045 46.1525 430.918 40.3887 430.918C20.5747 430.918 4.50928 444.144 4.50928 460.449C4.50928 465.015 5.77057 469.327 8.01831 473.181C2.59976 478.6 -1.60684 484.85 -4.31259 491.678C-6.66605 491.522 -9.03357 491.424 -11.4434 491.424C-56.3983 491.424 -93.7574 518.101 -101.508 553.269C-108.04 539.895 -123.929 530.446 -142.51 530.446C-146.012 530.446 -149.415 530.791 -152.678 531.439C-153.256 531.129 -153.833 530.833 -154.411 530.537C-151.198 522.427 -151.276 513.366 -155.384 504.812C-163.268 488.429 -183.442 479.072 -203.735 481.066C-204.63 475.549 -206.342 470.032 -208.942 464.627C-226.184 428.79 -275.43 411.245 -318.962 425.429C-320.568 425.957 -322.147 426.514 -323.697 427.113C-323.831 427.162 -323.964 427.212 -324.098 427.275C-324.74 427.522 -325.381 427.775 -326.008 428.043C-326.092 428.071 -326.17 428.099 -326.247 428.142C-326.959 428.438 -327.664 428.741 -328.354 429.058C-328.375 429.058 -328.397 429.065 -328.418 429.086C-329.087 429.382 -329.742 429.685 -330.391 430.002C-330.567 430.072 -330.736 430.157 -330.905 430.249C-331.511 430.537 -332.103 430.833 -332.695 431.143C-332.758 431.165 -332.822 431.2 -332.885 431.242C-333.533 431.573 -334.174 431.919 -334.809 432.271C-334.879 432.292 -334.943 432.327 -335.006 432.376C-335.682 432.743 -336.345 433.123 -337 433.511V864H1776.87V372.801C1759.99 353.818 1734.66 341.065 1705.63 339.395V339.388Z" fill="#F4F9FF"/>
<path d="M375.824 501.676C375.627 502.24 375.436 502.803 375.26 503.367C367.094 504.692 359.167 507.651 352.205 512.062C347.653 508.349 342.608 505.34 337.295 503.127C336.506 494.179 334.117 485.392 330.193 477.387C328.086 473.068 325.528 468.981 322.526 465.219C308.518 447.702 285.428 437.858 263.106 439.909C240.762 441.959 219.856 455.84 209.294 475.633C202.064 452.613 187.993 431.178 167.911 417.445C147.836 403.726 121.505 398.442 98.4142 406.094C75.3379 413.753 56.7288 435.237 55.08 459.504C50.1335 446.659 33.9061 440.966 22.7942 447.406C11.6753 453.832 8.51151 470.736 16.5442 480.749C4.47403 491.727 2.16989 508.342 8.92722 520.665C-10.4287 509.624 -34.8016 506.425 -55.3625 514.204C-75.9234 521.99 -92.0522 540.529 -96.9282 561.963C-117.059 541.748 -150.233 535.448 -174.662 548.526C-163.846 529.889 -168.786 503.155 -186.317 493.509C-203.869 483.856 -229.087 493.974 -235.069 513.091C-238.177 480.079 -260.534 449.344 -290.34 442.558C-306.187 438.957 -323.063 442.368 -337 450.661V433.504C-336.345 433.116 -335.682 432.736 -335.006 432.369C-334.943 432.32 -334.879 432.285 -334.809 432.263C-334.174 431.911 -333.533 431.566 -332.885 431.235C-332.822 431.192 -332.758 431.157 -332.695 431.136C-332.103 430.826 -331.511 430.53 -330.905 430.241C-330.736 430.15 -330.567 430.065 -330.391 429.995C-329.742 429.677 -329.087 429.375 -328.418 429.079C-328.397 429.057 -328.375 429.05 -328.354 429.05C-327.664 428.733 -326.959 428.43 -326.247 428.134C-326.17 428.092 -326.092 428.064 -326.008 428.036C-325.381 427.768 -324.74 427.514 -324.098 427.268C-323.964 427.204 -323.831 427.155 -323.697 427.106C-322.147 426.507 -320.568 425.95 -318.962 425.422C-275.43 411.238 -226.184 428.783 -208.942 464.62C-206.342 470.024 -204.63 475.541 -203.735 481.059C-183.442 479.064 -163.268 488.422 -155.384 504.804C-151.276 513.358 -151.198 522.42 -154.411 530.53C-153.833 530.826 -153.256 531.122 -152.678 531.432C-149.415 530.784 -146.012 530.438 -142.51 530.438C-123.929 530.438 -108.04 539.887 -101.508 553.261C-93.7574 518.094 -56.3983 491.416 -11.4434 491.416C-9.0336 491.416 -6.66608 491.515 -4.31262 491.67C-1.60687 484.842 2.5997 478.592 8.01825 473.174C5.77051 469.32 4.50925 465.007 4.50925 460.441C4.50925 444.136 20.5746 430.911 40.3886 430.911C46.1524 430.911 51.5921 432.038 56.4117 434.018C64.0498 399.724 100.514 373.73 144.398 373.73C190.614 373.73 228.65 402.578 233.371 439.599C247.724 430.488 265.685 425.062 285.203 425.062C286.126 425.062 287.042 425.076 287.958 425.105C288.394 425.112 288.831 425.126 289.268 425.147C289.494 425.147 289.712 425.161 289.938 425.175C290.382 425.189 290.825 425.21 291.262 425.238C291.601 425.259 291.939 425.281 292.284 425.309C292.869 425.344 293.447 425.386 294.024 425.436C295.201 425.534 296.371 425.654 297.533 425.795C297.611 425.802 297.688 425.809 297.766 425.823C298.161 425.873 298.555 425.922 298.943 425.978C299.267 426.013 299.591 426.063 299.915 426.105C300.176 426.147 300.437 426.183 300.697 426.225C301.078 426.281 301.458 426.338 301.832 426.408C302.142 426.45 302.452 426.5 302.755 426.563C304.685 426.887 306.588 427.275 308.469 427.719C309.054 427.853 309.632 427.993 310.21 428.141C310.421 428.191 310.632 428.247 310.844 428.304C311.386 428.444 311.922 428.585 312.457 428.74C312.929 428.867 313.402 429.001 313.867 429.142C314.141 429.219 314.409 429.304 314.684 429.389C316.044 429.797 317.39 430.241 318.714 430.713C319.201 430.882 319.687 431.059 320.166 431.242C320.173 431.242 320.18 431.249 320.18 431.249C320.765 431.46 321.35 431.686 321.927 431.918C321.991 431.939 322.047 431.96 322.111 431.989C322.71 432.221 323.301 432.468 323.886 432.714C324.38 432.919 324.866 433.13 325.345 433.349C325.599 433.454 325.852 433.567 326.106 433.687C326.564 433.891 327.022 434.102 327.473 434.314C327.91 434.518 328.339 434.73 328.762 434.941C329.079 435.096 329.396 435.251 329.706 435.413C330.052 435.582 330.39 435.758 330.721 435.935C332.44 436.829 334.117 437.781 335.745 438.774C336.034 438.95 336.323 439.127 336.612 439.31C336.823 439.444 337.035 439.577 337.246 439.711C337.619 439.951 337.993 440.19 338.359 440.437C338.747 440.691 339.12 440.944 339.501 441.205C339.691 441.332 339.874 441.459 340.064 441.593C340.367 441.804 340.663 442.015 340.966 442.227C341.819 442.833 342.657 443.46 343.475 444.101C343.785 444.341 344.088 444.58 344.391 444.827C344.567 444.961 344.743 445.102 344.912 445.236C345.194 445.468 345.476 445.701 345.751 445.933C345.863 446.025 345.969 446.116 346.082 446.208C346.392 446.476 346.702 446.736 347.005 447.004C348.21 448.047 349.372 449.132 350.5 450.245C350.789 450.534 351.085 450.823 351.374 451.119C351.458 451.204 351.536 451.288 351.613 451.373C351.902 451.669 352.191 451.972 352.466 452.268C352.55 452.345 352.628 452.43 352.691 452.507C353.001 452.831 353.297 453.163 353.593 453.494C353.931 453.867 354.263 454.241 354.587 454.621C355.249 455.382 355.883 456.157 356.496 456.939C356.806 457.334 357.116 457.729 357.412 458.123C357.666 458.461 357.92 458.807 358.166 459.145C358.286 459.3 358.399 459.455 358.511 459.617C358.73 459.92 358.941 460.23 359.153 460.54C359.442 460.942 359.716 461.357 359.984 461.766C360.801 463.006 361.57 464.267 362.288 465.55C362.528 465.973 362.767 466.402 362.993 466.832C363.218 467.248 363.43 467.664 363.648 468.079C363.69 468.157 363.733 468.234 363.761 468.312C364.395 469.566 364.987 470.834 365.515 472.124C366.093 473.47 366.608 474.83 367.066 476.211C367.199 476.591 367.326 476.965 367.439 477.345C367.538 477.662 367.636 477.979 367.728 478.296C367.77 478.395 367.798 478.487 367.812 478.585C367.918 478.931 368.017 479.276 368.108 479.621C368.221 480.002 368.32 480.382 368.411 480.763C368.468 480.974 368.517 481.185 368.566 481.397C368.637 481.665 368.7 481.939 368.757 482.214C368.813 482.475 368.869 482.729 368.926 482.989C369.116 483.877 369.278 484.765 369.419 485.66C369.468 485.942 369.511 486.223 369.553 486.505C369.623 486.928 369.68 487.358 369.729 487.788C369.75 487.964 369.778 488.14 369.792 488.323C369.842 488.718 369.884 489.112 369.919 489.507C369.926 489.577 369.933 489.655 369.94 489.725C369.99 490.275 370.032 490.825 370.067 491.374V491.416C370.102 491.959 370.131 492.502 370.145 493.051C370.152 493.178 370.152 493.305 370.152 493.432C370.173 493.96 370.18 494.489 370.18 495.017C370.18 497.871 369.947 500.682 369.546 503.451C370.088 503.275 370.638 503.099 371.188 502.937C372.139 502.641 373.097 502.373 374.07 502.113C374.647 501.965 375.232 501.817 375.824 501.676Z" fill="white"/>
<path d="M1776.87 372.794V463.704C1766.45 460.547 1755.55 460.294 1745.12 463.774C1751.99 416.818 1722.95 374.865 1685.1 370.941C1647.23 367.009 1610.21 402.134 1612.14 440.148C1605.61 396.596 1578.57 351.866 1541.4 327.402C1525.91 317.206 1508.66 310.526 1490.4 308.92C1457.38 306.017 1424.74 319.989 1401.15 343.08C1380.36 363.422 1366.61 390.846 1365.85 420.039C1349.37 382.982 1309.82 366.783 1277.39 378.001C1244.94 389.211 1223.84 426.401 1230.86 459.998C1209.67 437.598 1173.87 430.065 1147.66 444.123C1121.46 458.18 1107.94 492.199 1117.34 520.405C1097.51 489.014 1059.09 466.198 1023.6 472.575C988.127 478.938 960.034 513.683 961.246 549.717C947.196 530.516 924.112 514.775 900.853 515.945C877.967 517.107 865.854 526.169 865.481 526.451C865.685 525.894 885.795 472.512 865.572 443.228C853.749 426.112 832.589 409.512 803.784 420.454C783.237 428.262 770.286 441.05 774.873 454.882C765.798 444.609 747.865 444.059 738.177 453.776C740.396 447.033 741.425 439.951 741.094 433.285C740.636 424.02 737.55 415.543 731.405 409.857C720.843 400.07 702.748 399.943 692.066 409.582C686.112 414.951 682.934 422.906 682.772 430.904C682.638 437.267 684.435 443.657 688.268 448.766C681.18 441.191 673.077 435.674 664.593 432.369C656.553 429.234 648.168 428.085 639.981 429.058C630.997 430.129 622.386 433.729 615.15 439.155C608.836 443.897 603.573 450.034 600.035 457.088C601.374 449.879 601.614 442.305 600.719 434.941C598.894 419.658 592.242 405.277 580.546 396.906C563.212 384.504 536.951 386.844 522.069 402.099C511.803 412.647 507.836 428.459 510.598 442.833C511.831 449.28 514.417 455.432 518.398 460.695C512.874 453.607 503.361 450.387 494.194 451.394C493.483 451.472 492.778 451.57 492.073 451.704C488.487 452.36 485.006 453.677 481.899 455.678C471.442 462.379 466.298 476.126 469.173 488.126C461.718 467.868 444.504 456.291 427.699 456.749C409.865 457.236 393.666 468.989 384.139 484.082C380.651 489.606 377.939 495.518 375.825 501.676C375.627 502.24 375.437 502.803 375.261 503.367C371.956 513.542 370.223 524.323 369.258 535.012C365.453 525.746 359.456 518.002 352.206 512.062C347.654 508.349 342.609 505.34 337.296 503.128C323.542 497.392 308.026 496.948 294.744 503.106C272.978 513.183 260.837 539.282 264.649 562.619C257.364 546.68 244.3 532.983 228.016 527.028C206.807 519.256 181.293 524.985 165.446 541.1C149.606 557.214 144.3 582.842 152.445 603.91C143.44 589.338 125.67 580.833 108.9 583.152C92.1367 585.477 77.3467 598.477 72.9005 614.803C64.3323 598.019 42.2917 589.69 26.8253 598.118C19.4056 602.155 14.3887 609.561 12.3594 617.72C12.9301 610.047 15.7416 602.691 21.1742 597.061C34.0124 583.736 56.7013 585.103 70.7091 596.363C84.2168 572.913 118.588 564.247 140.96 579.664C136.655 552.035 152.607 522.448 177.847 511.217C203.101 500.006 235.337 508.152 252.445 530.094C257.638 497.441 295.188 476.289 330.193 477.388C343.976 477.818 357.371 481.707 368.236 489.698C367.419 485.308 367.003 480.777 367.066 476.218C367.249 463.26 371.336 450.126 381.187 439.564C384.315 436.21 387.789 433.37 391.495 431.045C404.89 422.618 421.259 420.835 435.238 425.056C450.536 429.664 462.958 441.459 465.453 459.589C467.2 446.786 469.751 437.781 473.056 431.792C480.44 418.397 491.545 420.017 505.708 427.846C506.321 404.734 518.088 384.406 535.83 372.068C547.168 364.183 560.95 359.561 575.825 359.561C581.715 359.561 587.437 360.287 592.905 361.661C617.39 367.791 636.767 386.794 643.454 411.062C649.105 409.582 655.024 408.807 661.147 408.807C668.109 408.807 674.845 409.829 681.194 411.724C688.134 395.821 703.995 384.688 722.464 384.688C738.501 384.688 752.579 393.066 760.556 405.692C764.959 412.647 767.503 420.891 767.503 429.727C767.503 430.199 767.489 430.664 767.475 431.122C787.986 404.762 827.283 393.707 857.518 408.433C892.693 425.57 908.773 474.21 890.904 509.399C908.399 495.764 931.891 494.419 952.516 501.74C957.469 500.732 962.564 500.147 967.771 499.971C984.703 463.077 1021.95 437.45 1065.19 437.45C1082.95 437.45 1099.68 441.797 1114.43 449.443C1116.64 425.704 1133.22 406.15 1155.38 399.583C1160.58 398.033 1166.1 397.202 1171.81 397.202C1180.32 397.202 1188.4 399.048 1195.67 402.353C1207.32 407.658 1216.89 416.727 1222.84 428.008C1227.89 388.88 1262.44 353.994 1305.67 345.778C1308.54 345.229 1311.46 344.799 1314.41 344.496C1331.95 342.685 1349.5 345.426 1365.59 351.556C1366.44 351.888 1367.28 352.219 1368.13 352.564C1368.3 351.817 1368.47 351.07 1368.65 350.33C1374.4 326.5 1387.29 303.825 1405.55 285.871C1420.09 271.575 1438.04 260.273 1458.5 253.769C1459.55 253.431 1460.61 253.114 1461.68 252.804C1532.41 232.193 1616.83 270.088 1644.51 332.172C1645.69 334.822 1646.77 337.513 1647.74 340.247C1648.96 343.672 1649.94 347.131 1650.8 350.598C1666.95 342.439 1685.78 338.253 1705.63 339.388C1734.66 341.057 1759.99 353.811 1776.87 372.794Z" fill="white"/>
<path d="M269.334 838.689C264.332 821.419 256.01 806.897 244.243 795.581C216.347 768.77 171.089 762.012 136.584 779.515C140.572 773.702 141.65 767.466 142.707 761.216C145.561 725.619 124.309 693.03 93.7497 681.707C63.1972 670.383 25.8382 681.263 6.12988 707.207C4.15692 676.845 -13.4023 650.548 -37.3101 635.49C-52.0578 626.196 -69.2154 621.179 -86.6196 622.117C-101.107 622.899 -114.981 627.754 -127.135 635.49C-153.263 652.105 -171.421 681.988 -170.561 713.154C-181.469 703.169 -202.234 702.845 -217.123 712.562C-231.997 722.279 -240.065 741.423 -236.612 758.856C-254.228 746.511 -274.387 747.081 -287.965 757.376C-301.536 767.663 -307.554 786.914 -302.213 803.106C-312.254 792.311 -324.521 785.716 -337 783.362V770.651C-333.068 770.158 -329.031 770.031 -324.93 770.292C-320.723 770.559 -316.651 771.229 -312.726 772.25C-304.686 754.466 -287.698 741.811 -267.841 739.605C-264.713 709.877 -238.649 687.632 -208.533 689.535C-203.227 689.873 -198.133 690.951 -193.342 692.642C-184.795 669.679 -169.892 649.963 -150.881 635.49C-127.262 617.508 -97.3087 607.615 -65.3541 609.638C-39.1844 611.287 -15.347 620.7 4.05124 635.49C19.1654 647.018 31.5879 661.808 40.3252 678.74C54.2062 670.327 70.7085 665.909 88.1268 667.015C133.526 669.876 168.003 708.996 165.135 754.395C165.121 754.423 165.121 754.438 165.121 754.452C169.172 754.212 173.273 754.184 177.424 754.452C224.943 757.439 262.542 793.417 269.334 838.689Z" fill="white"/>
<path d="M1776.87 691.277V763.782C1767.34 760.795 1756.35 762.127 1748.29 768.123C1761.26 750.965 1763.77 726.663 1752.48 710.52C1741.16 694.37 1717.48 688.416 1699.88 697.28C1705.92 678.093 1698.87 655.024 1682.36 647.745C1667.19 641.044 1647.55 649.225 1640.74 664.1C1643.25 654.552 1640.08 642.672 1632.78 635.492C1630.45 633.202 1627.7 631.391 1624.59 630.278C1616.3 627.325 1606.9 629.876 1600.19 635.492C1595.61 639.325 1592.28 644.589 1591.43 650.5C1591.95 645.49 1591.71 640.438 1590.8 635.492C1586.77 613.578 1569.63 593.912 1548.02 590.368C1521.13 585.95 1492.8 607.377 1489.75 634.449C1482.07 633.864 1474.54 634.252 1467.29 635.492C1442.67 639.705 1421.24 653.826 1408.24 673.816C1407.36 660.125 1404.03 647.146 1398.72 635.492C1388.07 612.127 1369.45 594.109 1346.7 586.45C1312.62 574.972 1271.83 587.641 1250.27 616.411C1245.87 622.273 1242.34 628.706 1239.68 635.492C1229.25 662.021 1232.11 693.877 1248.49 717.383C1217.3 721.787 1200.98 750.754 1210 773.464C1190.53 758.336 1159.19 765.629 1145.62 785.33C1155.19 765.269 1176.26 752.015 1199.82 753.509H1199.84C1201.77 733.674 1215.52 717.665 1233.62 712.056C1225.77 695.251 1221.88 676.289 1223.14 656.468C1223.6 649.26 1224.72 642.249 1226.44 635.492C1239.7 583.23 1288.66 546.167 1344.42 549.725C1394.21 552.896 1434.48 587.514 1447.19 632.976C1447.86 633.202 1448.51 633.456 1449.19 633.695C1456.72 628.995 1465.47 626.113 1474.8 625.641C1484.4 592.827 1515.72 569.842 1551.27 572.104C1580.61 573.964 1604.9 592.531 1615.5 617.933C1618.04 617.573 1620.64 617.461 1623.28 617.63C1635.95 618.433 1646.77 625.437 1652.98 635.492C1653.49 636.316 1653.97 637.155 1654.42 638.014C1654.92 637.155 1655.44 636.316 1655.99 635.492C1665.78 620.772 1682.95 611.535 1701.87 612.733C1718.45 613.797 1732.69 622.64 1741.24 635.492C1747.23 644.49 1750.42 655.447 1749.68 667.066C1749.38 671.738 1748.46 676.212 1747.01 680.433C1758.13 681.384 1768.32 685.273 1776.87 691.277Z" fill="white"/>
<path d="M585.243 739.685C581.846 733.823 576.456 729.046 570.136 726.037C557.213 719.9 540.971 721.464 529.465 729.962C540.245 717.814 539.611 695.879 526.639 687.318C513.667 678.757 493.247 686.789 489.59 701.897C491.415 688.459 478.922 672.605 463.498 671.14C448.067 669.667 432.812 682.879 432.051 698.352C429.26 671.02 419.17 646.161 399.948 634.908C380.726 623.655 354.113 627.016 338.294 642.701C322.475 658.386 318.888 684.972 329.986 704.285C322.82 692.814 312.089 680.089 298.659 677.453C285.236 674.818 270.488 682.541 264.999 695.076C259.51 707.611 263.85 723.683 274.892 731.758C259.876 721.718 241.915 719.879 228.76 727.503C221.897 731.477 216.62 737.875 213.59 745.189C213.547 743.568 213.604 741.926 213.766 740.277C215.943 717.659 236.053 701.086 258.671 703.271C259.764 703.376 260.849 703.538 261.913 703.722C260.849 700.875 260.271 697.845 260.271 694.702C260.271 677.961 276.611 664.39 296.77 664.39C302.872 664.39 308.622 665.637 313.674 667.835C319.797 632.139 350.885 604.969 388.329 604.969C425.773 604.969 454.563 630.166 462.209 663.917C465.943 661.705 470.305 660.437 474.962 660.437C485.595 660.437 494.671 667.039 498.342 676.368C504.726 669.871 513.618 665.841 523.447 665.841C542.895 665.841 558.657 681.603 558.657 701.051C558.657 707.674 556.832 713.861 553.654 719.153C554.225 719.125 554.803 719.103 555.388 719.103C569.022 719.103 580.663 727.65 585.243 739.685Z" fill="white"/>
</svg>
