<svg width="133" height="50" viewBox="0 0 133 50" fill="none" xmlns="http://www.w3.org/2000/svg">
<path d="M55.4911 4.9658L48.4023 19.8615H51.4627L52.743 17.051H57.9581L59.176 19.8615H62.7672L55.6785 4.93457H55.4911V4.9658ZM53.8048 14.6777L55.3974 11.1802L56.8964 14.6777H53.8048Z" fill="#002C57"/>
<path d="M75.7262 5.52734H72.0413L68.6687 13.6154L65.0775 5.52734H61.3613L68.5438 20.548L75.7262 5.52734Z" fill="#002C57"/>
<path d="M88.904 19.8615L81.8152 4.93457H81.6591L74.5703 19.8615H77.6307L78.911 17.051H84.1261L85.344 19.8615H88.904ZM79.9415 14.6777L81.5342 11.1802L83.0643 14.6777H79.9415Z" fill="#002C57"/>
<path d="M102.301 14.1781L91.3085 4.96582H91.1836V19.8616H94.3376L94.2752 11.3988L105.267 20.4549H105.361V5.52792H102.238L102.301 14.1781Z" fill="#002C57"/>
<path d="M112.044 19.861H115.136V8.24418H118.977V5.52734H108.359V8.24418H112.044V19.861Z" fill="#002C57"/>
<path d="M125.068 17.1442V14.0526H131.813V11.3045H125.068V8.24418H132.688V5.52734H121.945V19.861H133V17.1442H125.068Z" fill="#002C57"/>
<path d="M59.176 28.7925H51.6813V22.6406H48.4023V37.8799H51.6813V31.6967H59.176V37.8799H62.4549V22.6406H59.176V28.7925Z" fill="#002C57"/>
<path d="M80.3159 24.7952C79.5352 24.077 78.5984 23.5149 77.5678 23.0777C76.5373 22.6717 75.4443 22.4531 74.2577 22.4531C73.071 22.4531 71.978 22.6717 70.9475 23.0777C69.917 23.4836 69.0114 24.077 68.2307 24.7952C67.45 25.5135 66.8254 26.3566 66.3882 27.2935C65.951 28.2303 65.7324 29.2296 65.7324 30.2913C65.7324 31.3531 65.951 32.3836 66.3882 33.3205C66.8254 34.2573 67.45 35.1005 68.2307 35.7875C69.0114 36.5057 69.917 37.0678 70.9475 37.4426C71.978 37.8485 73.071 38.0359 74.2577 38.0359C75.4131 38.0359 76.5373 37.8485 77.5678 37.4426C78.5984 37.0366 79.504 36.4745 80.3159 35.7875C81.0966 35.0692 81.7212 34.2573 82.1896 33.3205C82.6268 32.3836 82.8454 31.3843 82.8454 30.2913C82.8454 29.2296 82.6268 28.2615 82.1896 27.2935C81.7212 26.3566 81.0966 25.5135 80.3159 24.7952ZM79.0355 32.165C78.7857 32.7584 78.411 33.258 77.9738 33.7264C77.5054 34.1636 76.9745 34.5384 76.3812 34.757C75.7566 35.0068 75.1008 35.1317 74.3826 35.1317C73.6331 35.1317 72.9461 35.0068 72.3215 34.757C71.697 34.5071 71.1349 34.1636 70.6664 33.7264C70.198 33.2892 69.8233 32.7584 69.5422 32.165C69.2924 31.5717 69.1363 30.9471 69.1363 30.2601C69.1363 29.5731 69.2612 28.9173 69.511 28.324C69.7608 27.7307 70.1356 27.1998 70.604 26.7626C71.0724 26.3254 71.6033 25.9507 72.2278 25.7008C72.8524 25.451 73.5082 25.3261 74.2577 25.3261C74.9759 25.3261 75.6629 25.451 76.2875 25.7008C76.912 25.9507 77.4429 26.2942 77.9113 26.7626C78.3798 27.1998 78.7233 27.7307 79.0043 28.324C79.2541 28.9173 79.4103 29.5731 79.4103 30.2601C79.4415 30.9471 79.3166 31.6029 79.0355 32.165Z" fill="#002C57"/>
<path d="M94.6502 32.9776L86.1562 22.0166H86.125V37.8804H89.3103V31.0727L94.5566 37.6931H94.619L100.053 30.6043V37.8804H103.363V22.0166H103.3L94.6502 32.9776Z" fill="#002C57"/>
<path d="M110.982 31.6967H118.164V28.7925H110.982V25.5448H119.07V22.6406H107.672V37.8799H119.414V34.9757H110.982V31.6967Z" fill="#002C57"/>
<path d="M126.254 25.6072C126.66 25.3574 127.222 25.2012 127.941 25.2012C128.503 25.2012 129.127 25.2949 129.783 25.5135C130.439 25.7321 131.095 25.9819 131.719 26.2942L132.968 23.9833C132.313 23.5774 131.563 23.2339 130.72 22.9528C129.877 22.6718 128.784 22.5156 127.441 22.5156C126.41 22.5469 125.505 22.7654 124.724 23.1402C123.943 23.5149 123.319 24.0458 122.882 24.6704C122.445 25.3261 122.226 26.0756 122.226 26.9812C122.226 27.6995 122.382 28.324 122.663 28.8237C122.944 29.3233 123.35 29.7605 123.819 30.0728C124.287 30.4163 124.818 30.6974 125.349 30.9472C125.88 31.197 126.41 31.3844 126.941 31.5717C127.379 31.7279 127.785 31.9153 128.159 32.1026C128.534 32.3212 128.815 32.5398 129.034 32.7896C129.252 33.0395 129.377 33.3205 129.377 33.6328C129.377 34.07 129.252 34.4135 128.971 34.6633C128.721 34.9131 128.378 35.1005 127.972 35.1942C127.566 35.2879 127.16 35.3503 126.785 35.3503C126.379 35.3503 125.973 35.2879 125.505 35.1942C125.036 35.0693 124.568 34.9131 124.1 34.7258C123.631 34.5384 123.194 34.2886 122.819 34.0388L121.352 36.3809C121.945 36.7556 122.569 37.0679 123.194 37.3177C123.819 37.5675 124.474 37.7237 125.13 37.8486C125.786 37.9735 126.442 38.0359 127.066 38.0359C128.315 38.0359 129.346 37.8173 130.189 37.4114C131.032 37.0054 131.688 36.4745 132.125 35.8187C132.562 35.163 132.781 34.4447 132.781 33.664C132.781 32.9458 132.656 32.3212 132.437 31.8216C132.219 31.3219 131.907 30.8847 131.532 30.5724C131.157 30.2289 130.72 29.9479 130.252 29.7293C129.783 29.5107 129.283 29.2921 128.815 29.136C128.284 28.9486 127.785 28.7612 127.285 28.5426C126.785 28.324 126.379 28.0742 126.067 27.7932C125.755 27.5121 125.599 27.1998 125.599 26.8251C125.661 26.263 125.848 25.8882 126.254 25.6072Z" fill="#002C57"/>
<path d="M48.6523 42.4713V40.5352H48.9646L49.8078 41.9404H49.6516L50.4948 40.5352H50.8071V42.4713H50.4636V41.066H50.526L49.8078 42.2527H49.6516L48.9334 41.066H49.0271V42.4713H48.6523Z" fill="#002C57"/>
<path d="M52.7747 42.5025C52.6185 42.5025 52.4936 42.4713 52.3687 42.44C52.2438 42.3776 52.1189 42.3151 52.0252 42.2214C51.9315 42.1278 51.8691 42.0341 51.8066 41.9092C51.7441 41.7843 51.7441 41.6593 51.7441 41.5032C51.7441 41.3471 51.7754 41.2222 51.8066 41.0972C51.8378 40.9723 51.9315 40.8786 52.0252 40.785C52.1189 40.6913 52.2438 40.6288 52.3687 40.5664C52.4936 40.5039 52.6498 40.5039 52.7747 40.5039C52.9308 40.5039 53.0557 40.5351 53.1806 40.5664C53.3055 40.6288 53.4305 40.6913 53.5241 40.785C53.6178 40.8786 53.6803 40.9723 53.7427 41.0972C53.8052 41.2222 53.8052 41.3471 53.8052 41.5032C53.8052 41.6593 53.774 41.7843 53.7427 41.9092C53.6803 42.0341 53.6178 42.1278 53.5241 42.2214C53.4305 42.3151 53.3055 42.3776 53.1806 42.44C53.0557 42.4713 52.9308 42.5025 52.7747 42.5025ZM52.7747 42.1902C52.8683 42.1902 52.962 42.159 53.0557 42.1278C53.1494 42.0965 53.2119 42.0341 53.2743 41.9716C53.3368 41.9092 53.368 41.8467 53.4305 41.753C53.4617 41.6593 53.4929 41.5657 53.4929 41.472C53.4929 41.3783 53.4617 41.2846 53.4305 41.1909C53.3992 41.0972 53.3368 41.0348 53.2743 40.9723C53.2119 40.9099 53.1494 40.8786 53.0557 40.8162C52.962 40.785 52.8683 40.7537 52.7747 40.7537C52.681 40.7537 52.5873 40.785 52.4936 40.8162C52.3999 40.8474 52.3375 40.9099 52.275 40.9723C52.2126 41.0348 52.1501 41.0972 52.1189 41.1909C52.0876 41.2846 52.0564 41.3783 52.0564 41.472C52.0564 41.5657 52.0876 41.6593 52.1189 41.753C52.1501 41.8467 52.2126 41.9092 52.275 41.9716C52.3375 42.0341 52.3999 42.0965 52.4936 42.1278C52.5873 42.159 52.681 42.1902 52.7747 42.1902Z" fill="#002C57"/>
<path d="M55.2728 42.4713L54.4297 40.5352H54.8357L55.5851 42.2839H55.3665L56.1472 40.5352H56.4907L55.6476 42.4713H55.2728Z" fill="#002C57"/>
<path d="M57.2402 42.4713V40.5352H57.615V42.4713H57.2402Z" fill="#002C57"/>
<path d="M58.6758 42.4713V40.5352H58.9881L60.206 42.0341H60.0498V40.5352H60.3933V42.4713H60.081L58.8632 40.9723H59.0193V42.4713H58.6758Z" fill="#002C57"/>
<path d="M62.3919 42.5025C62.2357 42.5025 62.1108 42.4713 61.9859 42.44C61.861 42.3776 61.7361 42.3151 61.6424 42.2214C61.5487 42.1278 61.4862 42.0341 61.4238 41.9092C61.3613 41.7843 61.3613 41.6593 61.3613 41.5032C61.3613 41.3471 61.3926 41.2222 61.4238 41.0972C61.455 40.9723 61.5487 40.8786 61.6424 40.785C61.7361 40.6913 61.861 40.6288 61.9859 40.5664C62.1108 40.5039 62.2669 40.5039 62.4231 40.5039C62.5792 40.5039 62.7354 40.5351 62.8603 40.5976C62.9852 40.66 63.1101 40.7225 63.2038 40.8474L62.9852 41.066C62.9227 41.0036 62.829 40.9411 62.7354 40.9099C62.6417 40.8786 62.548 40.8474 62.4543 40.8474C62.3606 40.8474 62.2669 40.8786 62.1733 40.9099C62.0796 40.9411 62.0171 41.0036 61.9547 41.066C61.8922 41.1285 61.8297 41.1909 61.7985 41.2846C61.7673 41.3783 61.7361 41.472 61.7361 41.5657C61.7361 41.6593 61.7673 41.753 61.7985 41.8467C61.8297 41.9404 61.8922 42.0028 61.9547 42.0653C62.0171 42.1278 62.0796 42.159 62.1733 42.2214C62.2669 42.2527 62.3606 42.2839 62.4543 42.2839C62.548 42.2839 62.6417 42.2839 62.7354 42.2527C62.829 42.2214 62.9227 42.159 62.9852 42.0965L63.1726 42.3776C63.0789 42.4713 62.954 42.5337 62.829 42.565C62.6729 42.4713 62.548 42.5025 62.3919 42.5025ZM62.829 42.2214V41.5032H63.1726V42.2839L62.829 42.2214Z" fill="#002C57"/>
<path d="M65.8904 42.4713H65.5156V40.5352H66.9209V40.8474H65.8904V42.4713ZM65.8591 41.4408H66.8272V41.753H65.8591V41.4408Z" fill="#002C57"/>
<path d="M68.7336 42.5025C68.5775 42.5025 68.4526 42.4713 68.3277 42.44C68.2028 42.3776 68.0779 42.3151 67.9842 42.2214C67.8905 42.1278 67.828 42.0341 67.7656 41.9092C67.7031 41.7843 67.7031 41.6593 67.7031 41.5032C67.7031 41.3471 67.7344 41.2222 67.7656 41.0972C67.7968 40.9723 67.8905 40.8786 67.9842 40.785C68.0779 40.6913 68.2028 40.6288 68.3277 40.5664C68.4526 40.5039 68.6087 40.5039 68.7336 40.5039C68.8898 40.5039 69.0147 40.5351 69.1396 40.5664C69.2645 40.6288 69.3894 40.6913 69.4831 40.785C69.5768 40.8786 69.6393 40.9723 69.7017 41.0972C69.7642 41.2222 69.7642 41.3471 69.7642 41.5032C69.7642 41.6593 69.7329 41.7843 69.7017 41.9092C69.6393 42.0341 69.5768 42.1278 69.4831 42.2214C69.3894 42.3151 69.2645 42.3776 69.1396 42.44C69.0147 42.4713 68.8898 42.5025 68.7336 42.5025ZM68.7336 42.1902C68.8273 42.1902 68.921 42.159 69.0147 42.1278C69.1084 42.0965 69.1708 42.0341 69.2333 41.9716C69.2958 41.9092 69.327 41.8467 69.3894 41.753C69.4207 41.6593 69.4519 41.5657 69.4519 41.472C69.4519 41.3783 69.4207 41.2846 69.3894 41.1909C69.3582 41.0972 69.2958 41.0348 69.2333 40.9723C69.1708 40.9099 69.1084 40.8786 69.0147 40.8162C68.921 40.785 68.8273 40.7537 68.7336 40.7537C68.64 40.7537 68.5463 40.785 68.4526 40.8162C68.3589 40.8474 68.2965 40.9099 68.234 40.9723C68.1715 41.0348 68.1091 41.0972 68.0779 41.1909C68.0466 41.2846 68.0154 41.3783 68.0154 41.472C68.0154 41.5657 68.0466 41.6593 68.0779 41.753C68.1091 41.8467 68.1715 41.9092 68.234 41.9716C68.2965 42.0341 68.3589 42.0965 68.4526 42.1278C68.5463 42.159 68.64 42.1902 68.7336 42.1902Z" fill="#002C57"/>
<path d="M70.7305 42.4713V40.5352H71.5424C71.7298 40.5352 71.8547 40.5664 71.9796 40.6288C72.1045 40.6913 72.1982 40.7537 72.2606 40.8787C72.3231 40.9723 72.3543 41.0973 72.3543 41.2534C72.3543 41.4095 72.3231 41.5032 72.2606 41.6281C72.1982 41.7218 72.1045 41.8155 71.9796 41.878C71.8547 41.9404 71.6985 41.9716 71.5424 41.9716H70.9491L71.1052 41.8155V42.5337H70.7305V42.4713ZM71.074 41.7843L70.9178 41.5969H71.5112C71.6673 41.5969 71.7922 41.5657 71.8859 41.5032C71.9796 41.4408 72.0108 41.3471 72.0108 41.2222C72.0108 41.0973 71.9796 41.0036 71.8859 40.9411C71.7922 40.8787 71.6985 40.8474 71.5112 40.8474H70.9178L71.074 40.6601V41.7843ZM71.9796 42.4713L71.4799 41.753H71.8547L72.3543 42.4713H71.9796Z" fill="#002C57"/>
<path d="M73.7593 42.4713L73.1035 40.5352H73.4783L74.0404 42.2839H73.853L74.4463 40.5352H74.7898L75.3832 42.2839H75.1958L75.7891 40.5352H76.1326L75.4768 42.4713H75.1021L74.5712 40.8787H74.6649L74.134 42.4713H73.7593Z" fill="#002C57"/>
<path d="M76.6641 42.4713L77.5384 40.5352H77.882L78.7563 42.4713H78.3816L77.6321 40.7225H77.7883L77.0388 42.4713H76.6641ZM77.07 42.0341L77.1637 41.753H78.2255L78.3191 42.0341H77.07Z" fill="#002C57"/>
<path d="M79.5664 42.4713V40.5352H80.3783C80.5657 40.5352 80.6906 40.5664 80.8155 40.6288C80.9404 40.6913 81.0341 40.7537 81.0966 40.8787C81.159 40.9723 81.1903 41.0973 81.1903 41.2534C81.1903 41.4095 81.159 41.5032 81.0966 41.6281C81.0341 41.7218 80.9404 41.8155 80.8155 41.878C80.6906 41.9404 80.5345 41.9716 80.3783 41.9716H79.785L79.9411 41.8155V42.5337H79.5664V42.4713ZM79.9411 41.7843L79.785 41.5969H80.3783C80.5345 41.5969 80.6594 41.5657 80.7531 41.5032C80.8468 41.4408 80.878 41.3471 80.878 41.2222C80.878 41.0973 80.8468 41.0036 80.7531 40.9411C80.6594 40.8787 80.5657 40.8474 80.3783 40.8474H79.785L79.9411 40.6601V41.7843ZM80.8468 42.4713L80.3471 41.753H80.7218L81.2215 42.4713H80.8468Z" fill="#002C57"/>
<path d="M82.1602 42.4713V40.5352H83.0033C83.2219 40.5352 83.4093 40.5664 83.5654 40.6601C83.7216 40.7538 83.8465 40.8474 83.9401 41.0036C84.0338 41.1597 84.0651 41.3159 84.0651 41.5032C84.0651 41.6906 84.0338 41.878 83.9401 42.0029C83.8465 42.159 83.7216 42.2527 83.5654 42.3464C83.4093 42.4401 83.2219 42.4713 83.0033 42.4713H82.1602ZM82.5349 42.159H83.0033C83.1594 42.159 83.2844 42.1278 83.378 42.0653C83.4717 42.0029 83.5654 41.9404 83.6279 41.8467C83.6903 41.753 83.7216 41.6281 83.7216 41.5032C83.7216 41.3783 83.6903 41.2534 83.6279 41.1597C83.5654 41.066 83.4717 40.9723 83.378 40.9411C83.2844 40.8787 83.1594 40.8474 83.0033 40.8474H82.5349V42.159Z" fill="#002C57"/>
<path d="M86.812 42.4713L86.1562 40.5352H86.531L87.0931 42.2839H86.9057L87.4991 40.5352H87.8426L88.4359 42.2839H88.2485L88.8419 40.5352H89.1854L88.5296 42.4713H88.1548L87.624 40.8787H87.7176L87.1868 42.4713H86.812Z" fill="#002C57"/>
<path d="M90.0293 42.4713V40.5352H90.404V42.4713H90.0293Z" fill="#002C57"/>
<path d="M91.8726 42.4713V40.8162H91.2168V40.5039H92.8719V40.8162H92.2161V42.4713H91.8726Z" fill="#002C57"/>
<path d="M94.0583 42.4713H93.6836V40.5352H94.0583V42.4713ZM95.0889 41.6594H94.0271V41.3471H95.0889V41.6594ZM95.0889 40.5352H95.4324V42.4713H95.0889V40.5352Z" fill="#002C57"/>
<path d="M98.3061 42.4713V41.6906L98.3998 41.9092L97.5566 40.5039H97.9314L98.6184 41.6281H98.3998L99.0868 40.5039H99.4303L98.5872 41.9092L98.6809 41.6906V42.4713H98.3061Z" fill="#002C57"/>
<path d="M101.052 42.5025C100.896 42.5025 100.771 42.4713 100.646 42.44C100.521 42.3776 100.396 42.3151 100.303 42.2214C100.209 42.1278 100.146 42.0341 100.084 41.9092C100.021 41.7843 100.021 41.6593 100.021 41.5032C100.021 41.3471 100.053 41.2222 100.084 41.0972C100.146 40.9723 100.209 40.8786 100.303 40.785C100.396 40.6913 100.521 40.6288 100.646 40.5664C100.771 40.5039 100.927 40.5039 101.052 40.5039C101.208 40.5039 101.333 40.5351 101.458 40.5664C101.583 40.6288 101.708 40.6913 101.801 40.785C101.895 40.8786 101.958 40.9723 102.02 41.0972C102.083 41.2222 102.083 41.3471 102.083 41.5032C102.083 41.6593 102.051 41.7843 102.02 41.9092C101.958 42.0341 101.895 42.1278 101.801 42.2214C101.708 42.3151 101.583 42.3776 101.458 42.44C101.364 42.4713 101.208 42.5025 101.052 42.5025ZM101.052 42.1902C101.146 42.1902 101.239 42.159 101.333 42.1278C101.427 42.0965 101.489 42.0341 101.552 41.9716C101.614 41.9092 101.645 41.8467 101.708 41.753C101.739 41.6593 101.77 41.5657 101.77 41.472C101.77 41.3783 101.739 41.2846 101.708 41.1909C101.677 41.0972 101.614 41.0348 101.552 40.9723C101.489 40.9099 101.427 40.8786 101.333 40.8162C101.239 40.785 101.146 40.7537 101.052 40.7537C100.958 40.7537 100.865 40.785 100.771 40.8162C100.677 40.8474 100.615 40.9099 100.552 40.9723C100.49 41.0348 100.427 41.0972 100.396 41.1909C100.365 41.2846 100.334 41.3783 100.334 41.472C100.334 41.5657 100.365 41.6593 100.396 41.753C100.427 41.8467 100.49 41.9092 100.552 41.9716C100.615 42.0341 100.677 42.0965 100.771 42.1278C100.865 42.159 100.958 42.1902 101.052 42.1902Z" fill="#002C57"/>
<path d="M103.894 42.5025C103.644 42.5025 103.426 42.4401 103.269 42.2839C103.113 42.1278 103.051 41.9092 103.051 41.6281V40.5352H103.426V41.6281C103.426 41.8155 103.457 41.9716 103.55 42.0653C103.644 42.159 103.769 42.1902 103.925 42.1902C104.081 42.1902 104.206 42.159 104.3 42.0653C104.394 41.9716 104.425 41.8155 104.425 41.6281V40.5352H104.768V41.6281C104.768 41.9092 104.706 42.1278 104.55 42.2839C104.362 42.4401 104.144 42.5025 103.894 42.5025Z" fill="#002C57"/>
<path d="M106.83 42.4713L107.704 40.5352H108.048L108.922 42.4713H108.548L107.798 40.7225H107.954L107.205 42.4713H106.83ZM107.236 42.0341L107.33 41.753H108.391L108.485 42.0341H107.236Z" fill="#002C57"/>
<path d="M109.766 42.4713V40.5352H110.078L111.296 42.0341H111.14V40.5352H111.483V42.4713H111.171L109.953 40.9723H110.109V42.4713H109.766Z" fill="#002C57"/>
<path d="M112.574 42.4713V40.5352H113.417C113.636 40.5352 113.823 40.5664 113.979 40.6601C114.136 40.7538 114.261 40.8474 114.354 41.0036C114.448 41.1597 114.479 41.3159 114.479 41.5032C114.479 41.6906 114.448 41.878 114.354 42.0029C114.261 42.159 114.136 42.2527 113.979 42.3464C113.823 42.4401 113.636 42.4713 113.417 42.4713H112.574ZM112.918 42.159H113.386C113.542 42.159 113.667 42.1278 113.761 42.0653C113.855 42.0029 113.948 41.9404 114.011 41.8467C114.073 41.753 114.104 41.6281 114.104 41.5032C114.104 41.3783 114.073 41.2534 114.011 41.1597C113.948 41.066 113.855 40.9723 113.761 40.9411C113.667 40.8787 113.542 40.8474 113.386 40.8474H112.918V42.159Z" fill="#002C57"/>
<path d="M117.103 42.4713H116.729V40.5352H118.134V40.8474H117.103V42.4713ZM117.072 41.4408H118.04V41.753H117.072V41.4408Z" fill="#002C57"/>
<path d="M119.947 42.5025C119.79 42.5025 119.665 42.4713 119.541 42.44C119.416 42.3776 119.291 42.3151 119.197 42.2214C119.103 42.1278 119.041 42.0341 118.978 41.9092C118.916 41.7843 118.916 41.6593 118.916 41.5032C118.916 41.3471 118.947 41.2222 118.978 41.0972C119.041 40.9723 119.103 40.8786 119.197 40.785C119.291 40.6913 119.416 40.6288 119.541 40.5664C119.665 40.5039 119.822 40.5039 119.947 40.5039C120.103 40.5039 120.228 40.5351 120.353 40.5664C120.477 40.6288 120.602 40.6913 120.696 40.785C120.79 40.8786 120.852 40.9723 120.915 41.0972C120.977 41.2222 120.977 41.3471 120.977 41.5032C120.977 41.6593 120.946 41.7843 120.915 41.9092C120.852 42.0341 120.79 42.1278 120.696 42.2214C120.602 42.3151 120.477 42.3776 120.353 42.44C120.259 42.4713 120.103 42.5025 119.947 42.5025ZM119.947 42.1902C120.04 42.1902 120.134 42.159 120.228 42.1278C120.321 42.0965 120.384 42.0341 120.446 41.9716C120.509 41.9092 120.54 41.8467 120.602 41.753C120.634 41.6593 120.665 41.5657 120.665 41.472C120.665 41.3783 120.634 41.2846 120.602 41.1909C120.571 41.0972 120.509 41.0348 120.446 40.9723C120.384 40.9099 120.321 40.8786 120.228 40.8162C120.134 40.785 120.04 40.7537 119.947 40.7537C119.853 40.7537 119.759 40.785 119.665 40.8162C119.572 40.8474 119.509 40.9099 119.447 40.9723C119.384 41.0348 119.322 41.0972 119.291 41.1909C119.26 41.2846 119.228 41.3783 119.228 41.472C119.228 41.5657 119.26 41.6593 119.291 41.753C119.322 41.8467 119.384 41.9092 119.447 41.9716C119.509 42.0341 119.572 42.0965 119.665 42.1278C119.759 42.159 119.853 42.1902 119.947 42.1902Z" fill="#002C57"/>
<path d="M121.945 42.4713V40.5352H122.757C122.945 40.5352 123.07 40.5664 123.194 40.6288C123.319 40.6913 123.413 40.7537 123.475 40.8787C123.538 40.9723 123.569 41.0973 123.569 41.2534C123.569 41.4095 123.538 41.5032 123.475 41.6281C123.413 41.7218 123.319 41.8155 123.194 41.878C123.07 41.9404 122.913 41.9716 122.757 41.9716H122.164L122.32 41.8155V42.5337H121.945V42.4713ZM122.289 41.7843L122.133 41.5969H122.726C122.882 41.5969 123.007 41.5657 123.101 41.5032C123.194 41.4408 123.226 41.3471 123.226 41.2222C123.226 41.0973 123.194 41.0036 123.101 40.9411C123.007 40.8787 122.913 40.8474 122.726 40.8474H122.133L122.289 40.6601V41.7843ZM123.226 42.4713L122.726 41.753H123.101L123.6 42.4713H123.226Z" fill="#002C57"/>
<path d="M126.316 42.4713V41.6906L126.41 41.9092L125.566 40.5039H125.941L126.628 41.6281H126.41L127.097 40.5039H127.44L126.597 41.9092L126.691 41.6906V42.4713H126.316Z" fill="#002C57"/>
<path d="M129.064 42.5025C128.908 42.5025 128.783 42.4713 128.658 42.44C128.533 42.3776 128.408 42.3151 128.314 42.2214C128.221 42.1278 128.158 42.0341 128.096 41.9092C128.033 41.7843 128.033 41.6593 128.033 41.5032C128.033 41.3471 128.064 41.2222 128.096 41.0972C128.158 40.9723 128.221 40.8786 128.314 40.785C128.408 40.6913 128.533 40.6288 128.658 40.5664C128.783 40.5039 128.939 40.5039 129.064 40.5039C129.22 40.5039 129.345 40.5351 129.47 40.5664C129.595 40.6288 129.72 40.6913 129.813 40.785C129.907 40.8786 129.969 40.9723 130.032 41.0972C130.094 41.2222 130.094 41.3471 130.094 41.5032C130.094 41.6593 130.063 41.7843 130.032 41.9092C129.969 42.0341 129.907 42.1278 129.813 42.2214C129.72 42.3151 129.595 42.3776 129.47 42.44C129.376 42.4713 129.22 42.5025 129.064 42.5025ZM129.064 42.1902C129.157 42.1902 129.251 42.159 129.345 42.1278C129.438 42.0965 129.501 42.0341 129.563 41.9716C129.626 41.9092 129.657 41.8467 129.72 41.753C129.751 41.6593 129.782 41.5657 129.782 41.472C129.782 41.3783 129.751 41.2846 129.72 41.1909C129.688 41.0972 129.626 41.0348 129.563 40.9723C129.501 40.9099 129.438 40.8786 129.345 40.8162C129.251 40.785 129.157 40.7537 129.064 40.7537C128.97 40.7537 128.876 40.785 128.783 40.8162C128.689 40.8474 128.627 40.9099 128.564 40.9723C128.502 41.0348 128.439 41.0972 128.408 41.1909C128.377 41.2846 128.345 41.3783 128.345 41.472C128.345 41.5657 128.377 41.6593 128.408 41.753C128.439 41.8467 128.502 41.9092 128.564 41.9716C128.627 42.0341 128.689 42.0965 128.783 42.1278C128.876 42.159 128.97 42.1902 129.064 42.1902Z" fill="#002C57"/>
<path d="M131.908 42.5025C131.658 42.5025 131.439 42.4401 131.283 42.2839C131.127 42.1278 131.064 41.9092 131.064 41.6281V40.5352H131.439V41.6281C131.439 41.8155 131.47 41.9716 131.564 42.0653C131.658 42.159 131.783 42.1902 131.939 42.1902C132.095 42.1902 132.22 42.159 132.314 42.0653C132.407 41.9716 132.438 41.8155 132.438 41.6281V40.5352H132.782V41.6281C132.782 41.9092 132.72 42.1278 132.563 42.2839C132.376 42.4401 132.157 42.5025 131.908 42.5025Z" fill="#002C57"/>
<path d="M6.46419 24.857L22.2343 15.27V7.61914L0 21.297V42.2822H12.0228V35.7868H6.46419V24.857Z" fill="#002C57"/>
<path d="M37.5068 17.3003L22.2363 7.65086V0L43.971 13.7403V42.3764H32.5416V35.9122H37.5068V17.3003Z" fill="#002C57"/>
<path d="M22.2662 21.7666L11.9609 28.262V35.788L12.0234 35.8817L22.2662 29.4175L32.509 35.8817L32.5402 35.8504V28.262L22.2662 21.7666Z" fill="#F44A51"/>
<path d="M22.2662 35.7568L11.9609 42.2835V49.8094L12.0234 49.9031L22.2662 43.4389L32.509 49.9031L32.5402 49.8407V42.2523L22.2662 35.7568Z" fill="#F5C200"/>
</svg>
