<svg width="1440" height="970" viewBox="0 0 1440 970" fill="none" xmlns="http://www.w3.org/2000/svg">
<path d="M1354.61 0C1354.53 0.15029 1354.46 0.308503 1354.38 0.458793C1354.18 0.379693 1353.96 0.308473 1353.75 0.229373C1354.04 0.158183 1354.32 0.0791 1354.61 0Z" fill="#E3E4E5"/>
<path d="M1972 61.9414V824.181H-401V94.7679C-389.855 101.594 -383.203 111.885 -384.215 123.07C-384.753 129.026 -387.403 134.531 -391.611 139.254C-388.154 138.882 -384.61 138.755 -380.988 138.914C-375.229 139.183 -369.771 140.132 -364.748 141.65C-356.301 133.313 -342.126 128.14 -326.559 128.836C-302.592 129.92 -284.399 144.474 -285.917 161.37C-285.981 161.979 -286.06 162.572 -286.163 163.166C-272.281 168.616 -263.303 179.35 -264.378 191.27C-264.426 191.776 -264.497 192.282 -264.584 192.773C-264.165 192.789 -263.754 192.797 -263.342 192.812C-246.415 193.572 -233.569 203.855 -234.653 215.783C-234.676 216.084 -234.716 216.384 -234.763 216.685C-233.988 216.701 -233.221 216.716 -232.438 216.748C-220.177 217.302 -208.929 220.228 -199.548 224.84C-200.861 218.741 -199.849 212.896 -196.131 208.49C-190.871 202.265 -181.49 200.445 -171.681 202.842C-171.911 201.134 -171.958 199.386 -171.792 197.622C-170.59 184.222 -158.131 173.227 -141.323 168.877C-138.032 151.087 -117.482 137.387 -92.6049 137.387C-65.6318 137.387 -43.7448 153.5 -43.4363 173.464C-40.8102 173.116 -38.0892 172.99 -35.3049 173.109C-17.3254 173.923 -3.68069 184.839 -4.82764 197.503C-5.00958 199.488 -5.53955 201.395 -6.37009 203.198C-2.47046 202.273 1.73764 201.853 6.09604 202.043C16.8695 202.526 26.0926 206.655 31.503 212.603C39.9904 209.328 49.8463 207.644 60.2163 208.11C75.9018 208.806 89.5307 214.264 98.5007 222.356C117.081 201.229 151.158 187.821 188.825 189.506C232.789 191.483 268.202 213.426 278.398 241.989C288.451 231.065 306.36 224.168 326.119 225.061C355.243 226.367 377.336 244.053 375.485 264.572C375.374 265.822 375.177 267.048 374.892 268.25C380.413 265.885 386.978 264.635 393.923 264.952C402.972 265.355 410.93 268.329 416.451 272.798C427.794 263.686 444.793 258.236 463.294 259.066C494.942 260.482 518.957 279.719 516.94 302.002C516.781 303.798 516.441 305.569 515.959 307.294C520.104 306.21 524.612 305.704 529.303 305.917C547.282 306.724 560.935 317.648 559.78 330.312C559.306 335.564 556.371 340.286 551.807 343.957C565.167 348.22 575.197 356.597 578.828 366.666C579.864 369.522 580.386 372.52 580.315 375.597C583.629 375.162 587.062 375.011 590.574 375.162C597.859 375.494 604.583 377.115 610.333 379.702C618.354 369.806 629.531 361.343 642.899 354.983C659.636 347.026 679.799 342.383 701.512 342.383C714.753 342.383 727.417 344.115 739.084 347.271C745.119 332.985 759.982 321.524 778.99 315.829C771.112 311.984 766.208 305.395 766.856 298.166C767.853 287.171 781.308 278.826 796.922 279.53C802.198 279.767 807.039 281.001 811.105 282.971C810.448 280.155 810.211 277.228 810.472 274.246C812.386 253.174 838.188 237.172 868.112 238.508C894.334 239.695 915.01 253.798 918.443 271.461C923.316 270.338 928.56 269.832 933.994 270.077C937.973 270.259 941.786 270.837 945.361 271.73C951.816 260.142 968.308 252.296 986.881 253.126C1000.08 253.719 1011.45 258.576 1018.47 265.671C1037.69 248.625 1067.36 237.702 1100.65 237.702C1126.89 237.702 1150.87 244.48 1169.27 255.697C1177.78 248.546 1190.54 243.998 1204.82 243.998C1212.95 243.998 1220.59 245.485 1227.23 248.064C1237.66 236.673 1255.81 229.119 1276.49 229.119C1285.57 229.119 1294.16 230.583 1301.82 233.185C1302.08 202.747 1331.97 178.139 1368.8 178.139C1405.63 178.139 1435.8 202.961 1435.8 233.58C1435.8 234.197 1435.77 234.814 1435.74 235.416C1442.21 233.003 1449.58 231.627 1457.42 231.627C1483.04 231.627 1503.82 246.252 1503.82 264.311C1503.82 267.245 1503.25 270.109 1502.21 272.83C1511.2 269.073 1521.68 266.905 1532.89 266.905C1540.76 266.905 1548.27 267.973 1555.16 269.903C1563.19 272.158 1570.36 275.591 1576.26 279.894C1579.55 264.129 1598.85 252.011 1622.14 252.011C1623.28 252.011 1624.38 252.058 1625.49 252.106C1621.06 246.331 1618.43 239.766 1618.17 232.782C1618.15 232.394 1618.15 232.014 1618.15 231.627C1618.15 213.181 1634.61 197.44 1657.73 191.294C1657.64 190.376 1657.59 189.443 1657.59 188.517C1657.59 165.072 1684.57 146.056 1717.85 146.056C1736.69 146.056 1753.5 152.147 1764.55 161.694C1774.36 157.162 1786.08 154.52 1798.67 154.52C1805.33 154.52 1811.74 155.272 1817.75 156.632C1820.9 122.54 1861.14 95.5747 1910.32 95.5747C1924.1 95.5747 1937.17 97.6867 1948.93 101.491C1952.29 86.9291 1960.36 73.4821 1972 61.9414Z" fill="#E3F0FF"/>
<path d="M1972 247.054V807.612H-401V255.36C-381.541 260.66 -368.332 274.383 -369.732 289.832C-370.27 295.78 -372.919 301.285 -377.128 306.015C-373.687 305.636 -370.127 305.509 -366.512 305.675C-360.501 305.936 -354.814 306.973 -349.617 308.594C-343.668 293.027 -322.818 282.04 -299.095 283.1C-277.794 284.057 -260.542 294.451 -254.997 308.135C-232.865 310.081 -216.412 323.86 -217.852 339.767C-217.876 340.068 -217.923 340.361 -217.963 340.661C-209.76 338.533 -200.814 337.529 -191.527 337.948C-169.19 338.953 -150.229 347.836 -139.749 360.5C-120.219 344.561 -90.7144 335.014 -58.5919 336.453C-38.8881 337.347 -20.9166 342.243 -6.14862 349.956C-4.09201 348.366 -1.78229 346.894 0.756805 345.581C-1.29187 338.446 -1.11786 331.668 1.62692 325.735C9.34708 309.053 35.2839 303.619 66.0222 309.978C76.4555 263.025 118.347 227.912 168.449 227.912C225.994 227.912 272.711 274.233 273.351 331.62C276.927 330.924 280.621 330.544 284.401 330.544C315.614 330.544 340.934 355.849 340.934 387.069C340.934 388.667 340.847 390.249 340.713 391.823C369.782 393.176 391.819 410.839 389.968 431.334C389.858 432.583 389.652 433.802 389.375 435.012C394.888 432.639 401.462 431.397 408.399 431.697C411.325 431.832 414.141 432.235 416.799 432.876C422.352 434.189 427.201 436.53 430.926 439.56C439.793 432.433 452.117 427.545 465.904 426.153C469.764 425.765 473.735 425.646 477.777 425.828C489.278 426.342 499.759 429.206 508.357 433.715C518.767 439.172 526.408 447.043 529.706 456.068C529.873 456.519 530.031 456.978 530.173 457.437C530.782 456.851 531.423 456.274 532.087 455.72C537.031 451.552 543.343 448.237 550.502 446.11C557.21 444.116 564.653 443.159 572.413 443.507C585.701 444.1 597.392 448.411 605.587 454.921C612.232 443.618 628.51 436.016 646.806 436.839C648.459 436.91 650.081 437.053 651.671 437.25C657.627 438.018 663.117 439.663 667.87 441.98C672.126 444.061 675.788 446.671 678.683 449.677C691.403 442.249 706.645 436.902 723.375 434.363C729.964 433.366 736.79 432.805 743.783 432.718C744.368 432.71 744.953 432.71 745.547 432.71C766.405 432.71 785.832 437.005 802.166 444.393C803.385 440.936 805.876 437.851 809.254 435.391C814.822 431.326 822.796 428.937 831.426 429.324C831.718 429.348 832.011 429.364 832.303 429.38C830.864 424.626 830.089 419.651 830.089 414.509C830.089 411.068 830.437 407.699 831.101 404.416C836.828 375.956 866.372 354.266 901.943 354.266C921.109 354.266 938.503 360.579 951.389 370.83C970.602 347.733 999.552 333.012 1031.95 333.012C1078.49 333.012 1117.94 363.379 1131.58 405.373C1151.34 407.572 1169.28 413.631 1183.74 422.451C1192.26 415.308 1205.02 410.76 1219.3 410.76C1227.43 410.76 1235.06 412.231 1241.72 414.825C1249.22 406.615 1260.74 400.39 1274.33 397.558C1279.6 396.458 1285.18 395.865 1290.96 395.865C1301.32 395.865 1311.02 397.779 1319.46 401.102C1319.49 400.959 1319.52 400.809 1319.55 400.667C1322.78 384.609 1337.45 373.021 1354.25 374.089C1360.64 374.5 1366.51 376.691 1371.39 380.156C1371.02 378.155 1370.83 376.106 1370.83 374.018C1370.83 351.197 1393.1 332.712 1420.57 332.712C1428.65 332.712 1436.29 334.31 1443.03 337.157C1459.22 343.968 1470.32 357.913 1470.32 374.018C1470.32 374.326 1470.3 374.619 1470.29 374.927C1478.87 361.876 1492.88 350.968 1510.3 343.643C1511.43 343.169 1512.58 342.71 1513.74 342.267C1524.81 338.011 1537.13 335.188 1550.22 334.128C1554.06 333.811 1557.95 333.653 1561.91 333.653C1599.11 333.653 1631.61 347.844 1649.11 368.955C1655.47 364.17 1663.34 360.405 1672.21 358.04C1672.12 357.122 1672.07 356.204 1672.07 355.271C1672.07 338.011 1686.68 323.164 1707.66 316.528C1715.19 314.139 1723.54 312.818 1732.33 312.818C1751.17 312.818 1767.98 318.909 1779.04 328.44C1788.84 323.924 1800.55 321.282 1813.14 321.282C1816.65 321.282 1820.08 321.487 1823.42 321.883C1826.44 322.231 1829.38 322.729 1832.23 323.378C1835.39 289.294 1875.62 262.329 1924.8 262.329C1938.57 262.329 1951.65 264.448 1963.4 268.245C1965.11 260.857 1968.02 253.762 1972 247.054Z" fill="#ECF5FF"/>
<path d="M1892.03 380.992C1869.75 379.718 1848.61 384.417 1830.48 393.577C1829.52 389.685 1828.41 385.801 1827.04 381.957C1825.95 378.888 1824.74 375.866 1823.42 372.892C1792.34 303.197 1697.58 260.657 1618.17 283.794C1616.98 284.142 1615.79 284.498 1614.61 284.878C1591.63 292.178 1571.48 304.866 1555.16 320.916C1534.66 341.07 1520.2 366.525 1513.74 393.276C1513.54 394.107 1513.35 394.945 1513.16 395.784C1512.21 395.396 1511.26 395.024 1510.3 394.653C1492.24 387.771 1472.54 384.694 1452.85 386.727C1449.54 387.067 1446.26 387.549 1443.03 388.166C1394.51 397.389 1355.72 436.552 1350.05 480.476C1343.38 467.812 1332.63 457.632 1319.55 451.676C1311.39 447.966 1302.32 445.894 1292.77 445.894C1286.36 445.894 1280.17 446.827 1274.33 448.567C1249.45 455.939 1230.83 477.89 1228.36 504.538C1211.8 495.956 1193.02 491.075 1173.08 491.075C1124.54 491.075 1082.73 519.844 1063.72 561.261C1057.87 561.459 1052.15 562.115 1046.59 563.246C1023.44 555.028 997.069 556.539 977.428 571.844C997.488 532.342 979.437 477.739 939.951 458.502C906.009 441.97 861.895 454.381 838.869 483.972C838.885 483.458 838.9 482.936 838.9 482.406C838.9 472.487 836.045 463.232 831.101 455.425C822.147 441.25 806.343 431.845 788.34 431.845C767.608 431.845 749.802 444.343 742.011 462.196C734.884 460.068 727.322 458.921 719.507 458.921C712.633 458.921 705.989 459.791 699.645 461.452C692.138 434.21 670.386 412.877 642.898 405.995C636.76 404.453 630.337 403.638 623.725 403.638C607.027 403.638 591.555 408.827 578.827 417.679C558.91 431.529 545.7 454.349 545.012 480.294C529.113 471.506 516.647 469.687 508.357 484.724C504.648 491.447 501.784 501.556 499.822 515.929C497.022 495.576 483.077 482.335 465.904 477.162C450.211 472.424 431.836 474.425 416.799 483.885C412.638 486.496 408.739 489.683 405.227 493.448C394.169 505.306 389.581 520.05 389.375 534.588C388.845 533.038 388.268 531.511 387.635 530.001C387.406 529.463 387.168 528.917 386.931 528.379C386.686 527.849 386.44 527.311 386.187 526.781C386.021 526.425 385.839 526.077 385.665 525.721C385.634 525.634 385.586 525.547 385.539 525.46C385.294 524.993 385.056 524.527 384.803 524.06C384.55 523.578 384.281 523.095 384.012 522.621C383.814 522.265 383.609 521.901 383.395 521.545C383.079 521.015 382.754 520.477 382.43 519.947C382.098 519.417 381.766 518.895 381.426 518.373C381.125 517.914 380.816 517.447 380.492 516.997C380.255 516.648 380.018 516.3 379.772 515.96C379.646 515.778 379.519 515.604 379.385 515.43C379.108 515.051 378.823 514.663 378.538 514.283C378.206 513.84 377.858 513.398 377.51 512.955C376.822 512.077 376.11 511.206 375.367 510.352C375.003 509.925 374.631 509.506 374.251 509.087C373.919 508.715 373.587 508.343 373.239 507.979C373.168 507.892 373.08 507.797 372.986 507.71C372.677 507.378 372.353 507.038 372.028 506.706C371.941 506.611 371.854 506.516 371.76 506.421C371.435 506.089 371.103 505.764 370.779 505.44C369.513 504.19 368.208 502.972 366.855 501.801C366.515 501.501 366.167 501.208 365.819 500.908C365.693 500.805 365.574 500.702 365.447 500.599C365.139 500.338 364.822 500.077 364.506 499.816C364.316 499.666 364.118 499.507 363.921 499.357C363.581 499.08 363.24 498.811 362.892 498.542C361.975 497.823 361.034 497.119 360.076 496.438C359.736 496.201 359.404 495.964 359.064 495.727C358.85 495.576 358.645 495.434 358.431 495.291C358.004 494.999 357.585 494.714 357.15 494.429C356.738 494.152 356.319 493.883 355.9 493.615C355.663 493.464 355.425 493.314 355.188 493.164C354.864 492.958 354.539 492.76 354.215 492.563C352.388 491.447 350.505 490.379 348.575 489.375C348.204 489.177 347.824 488.979 347.436 488.789C347.088 488.608 346.732 488.433 346.376 488.259C345.902 488.022 345.419 487.785 344.929 487.555C344.423 487.318 343.908 487.081 343.394 486.852C343.109 486.717 342.825 486.59 342.54 486.472C342.002 486.227 341.456 485.989 340.903 485.76C340.246 485.483 339.582 485.206 338.909 484.945C338.838 484.914 338.775 484.89 338.704 484.866C338.055 484.605 337.398 484.352 336.742 484.115C336.742 484.115 336.742 484.115 336.726 484.115C336.188 483.909 335.642 483.711 335.097 483.521C333.61 482.991 332.099 482.493 330.572 482.034C330.264 481.939 329.963 481.844 329.655 481.757C329.133 481.599 328.603 481.449 328.073 481.307C327.471 481.133 326.87 480.974 326.261 480.816C326.024 480.753 325.787 480.69 325.549 480.634C324.901 480.468 324.252 480.31 323.596 480.16C321.484 479.661 319.348 479.226 317.181 478.862C316.84 478.791 316.492 478.736 316.144 478.688C315.725 478.609 315.298 478.546 314.871 478.483C314.578 478.435 314.285 478.396 313.993 478.348C313.629 478.301 313.265 478.245 312.901 478.206C312.466 478.143 312.023 478.087 311.58 478.032C311.493 478.016 311.406 478.008 311.319 478C310.014 477.842 308.701 477.708 307.38 477.597C306.731 477.541 306.083 477.494 305.426 477.454C305.039 477.423 304.659 477.399 304.279 477.375C303.789 477.344 303.291 477.32 302.792 477.304C302.539 477.288 302.294 477.272 302.041 477.272C301.55 477.249 301.06 477.233 300.57 477.225C299.541 477.193 298.513 477.178 297.477 477.178C275.566 477.178 255.403 483.268 239.291 493.496C233.991 451.937 191.293 419.553 139.411 419.553C87.5295 419.553 49.2135 448.733 40.6391 487.231C35.2286 485.008 29.1221 483.743 22.6517 483.743C0.408813 483.743 -17.626 498.59 -17.626 516.894C-17.626 522.019 -16.2101 526.86 -13.6869 531.187C-19.7697 537.27 -24.4919 544.286 -27.5294 551.951C-30.1713 551.777 -32.829 551.666 -35.5343 551.666C-86.0001 551.666 -127.939 581.613 -136.64 621.092C-143.972 606.079 -161.81 595.472 -182.668 595.472C-186.599 595.472 -190.42 595.859 -194.082 596.587C-194.731 596.239 -195.38 595.907 -196.028 595.574C-192.421 586.47 -192.508 576.298 -197.12 566.695C-205.971 548.304 -228.617 537.8 -251.398 540.038C-252.403 533.845 -254.325 527.651 -257.244 521.584C-276.599 481.354 -331.882 461.658 -380.75 477.581C-382.554 478.174 -384.326 478.799 -386.066 479.471C-386.216 479.527 -386.367 479.582 -386.517 479.653C-387.237 479.93 -387.956 480.215 -388.66 480.516C-388.755 480.547 -388.842 480.579 -388.929 480.626C-389.728 480.959 -390.519 481.299 -391.294 481.655C-391.318 481.655 -391.342 481.663 -391.366 481.686C-392.117 482.019 -392.853 482.359 -393.58 482.715C-393.778 482.794 -393.968 482.889 -394.158 482.991C-394.838 483.316 -395.503 483.648 -396.167 483.996C-396.238 484.02 -396.309 484.059 -396.381 484.107C-397.108 484.478 -397.828 484.866 -398.54 485.262C-398.619 485.285 -398.69 485.325 -398.761 485.38C-399.521 485.792 -400.264 486.219 -401 486.654V969.915H1972V418.501C1953.06 397.192 1924.62 382.875 1892.03 381V380.992Z" fill="#F4F9FF"/>
<path d="M399.207 563.175C398.986 563.808 398.772 564.44 398.574 565.073C389.407 566.56 380.508 569.882 372.693 574.834C367.583 570.666 361.919 567.288 355.955 564.804C355.069 554.758 352.388 544.895 347.982 535.909C345.617 531.06 342.746 526.472 339.376 522.248C323.651 502.584 297.73 491.534 272.671 493.836C247.588 496.137 224.119 511.72 212.262 533.939C204.147 508.097 188.35 484.035 165.807 468.619C143.271 453.218 113.712 447.285 87.7905 455.876C61.8852 464.474 40.9949 488.591 39.144 515.833C33.5912 501.413 15.3744 495.022 2.90036 502.252C-9.5816 509.466 -13.1332 528.442 -4.11581 539.682C-17.6656 552.006 -20.2522 570.658 -12.6665 584.492C-34.3953 572.097 -61.756 568.506 -84.8373 577.239C-107.919 585.979 -126.025 606.79 -131.498 630.853C-154.097 608.159 -191.338 601.087 -218.762 615.768C-206.62 594.846 -212.165 564.836 -231.845 554.007C-251.548 543.17 -279.858 554.529 -286.574 575.989C-290.062 538.931 -315.161 504.427 -348.62 496.81C-366.41 492.768 -385.354 496.596 -401 505.906V486.646C-400.264 486.21 -399.521 485.783 -398.761 485.372C-398.69 485.317 -398.619 485.277 -398.54 485.253C-397.828 484.858 -397.108 484.47 -396.381 484.098C-396.309 484.051 -396.238 484.011 -396.167 483.988C-395.503 483.64 -394.838 483.307 -394.158 482.983C-393.968 482.88 -393.778 482.785 -393.58 482.706C-392.853 482.35 -392.117 482.01 -391.366 481.678C-391.342 481.654 -391.318 481.646 -391.294 481.646C-390.519 481.29 -389.728 480.95 -388.929 480.618C-388.842 480.571 -388.755 480.539 -388.66 480.507C-387.956 480.207 -387.237 479.922 -386.517 479.645C-386.367 479.574 -386.216 479.519 -386.066 479.463C-384.326 478.791 -382.554 478.166 -380.75 477.573C-331.882 461.65 -276.599 481.346 -257.244 521.576C-254.325 527.643 -252.403 533.837 -251.398 540.03C-228.617 537.792 -205.971 548.296 -197.12 566.687C-192.508 576.289 -192.421 586.462 -196.028 595.566C-195.38 595.898 -194.731 596.231 -194.082 596.579C-190.42 595.851 -186.599 595.463 -182.668 595.463C-161.81 595.463 -143.973 606.071 -136.64 621.084C-127.939 581.605 -86.0001 551.658 -35.5343 551.658C-32.8291 551.658 -30.1714 551.768 -27.5294 551.942C-24.492 544.278 -19.7697 537.262 -13.6869 531.179C-16.2102 526.852 -17.6261 522.011 -17.6261 516.885C-17.6261 498.582 0.408722 483.735 22.6516 483.735C29.122 483.735 35.2285 485 40.639 487.223C49.2134 448.725 90.1477 419.545 139.411 419.545C191.293 419.545 233.991 451.928 239.291 493.488C255.403 483.26 275.566 477.169 297.477 477.169C298.513 477.169 299.541 477.185 300.569 477.217C301.06 477.225 301.55 477.24 302.041 477.264C302.294 477.264 302.539 477.28 302.792 477.296C303.29 477.312 303.789 477.335 304.279 477.367C304.659 477.391 305.039 477.415 305.426 477.446C306.083 477.486 306.731 477.533 307.38 477.589C308.701 477.699 310.014 477.834 311.319 477.992C311.406 478 311.493 478.008 311.58 478.024C312.023 478.079 312.466 478.134 312.901 478.198C313.265 478.237 313.629 478.293 313.993 478.34C314.285 478.387 314.578 478.427 314.871 478.474C315.298 478.538 315.725 478.601 316.144 478.68C316.492 478.728 316.84 478.783 317.18 478.854C319.348 479.218 321.483 479.653 323.595 480.151C324.252 480.302 324.901 480.46 325.549 480.626C325.787 480.681 326.024 480.745 326.261 480.808C326.87 480.966 327.471 481.124 328.073 481.298C328.602 481.441 329.132 481.591 329.655 481.749C329.963 481.836 330.264 481.931 330.572 482.026C332.099 482.485 333.61 482.983 335.097 483.513C335.642 483.703 336.188 483.901 336.726 484.106C336.734 484.106 336.742 484.114 336.742 484.114C337.398 484.352 338.055 484.605 338.704 484.866C338.775 484.889 338.838 484.913 338.909 484.945C339.582 485.206 340.246 485.483 340.903 485.76C341.456 485.989 342.002 486.226 342.54 486.471C342.825 486.59 343.109 486.717 343.394 486.851C343.908 487.081 344.422 487.318 344.929 487.555C345.419 487.784 345.902 488.022 346.376 488.259C346.732 488.433 347.088 488.607 347.436 488.789C347.824 488.979 348.203 489.177 348.575 489.374C350.505 490.379 352.388 491.447 354.215 492.562C354.539 492.76 354.864 492.958 355.188 493.163C355.425 493.314 355.663 493.464 355.9 493.614C356.319 493.883 356.738 494.152 357.15 494.429C357.585 494.714 358.004 494.998 358.431 495.291C358.645 495.433 358.85 495.576 359.064 495.726C359.404 495.963 359.736 496.201 360.076 496.438C361.033 497.118 361.975 497.822 362.892 498.542C363.24 498.811 363.581 499.08 363.921 499.357C364.118 499.507 364.316 499.665 364.506 499.816C364.822 500.077 365.139 500.338 365.447 500.599C365.574 500.701 365.692 500.804 365.819 500.907C366.167 501.208 366.515 501.5 366.855 501.801C368.208 502.972 369.513 504.19 370.779 505.44C371.103 505.764 371.435 506.088 371.759 506.421C371.854 506.515 371.941 506.61 372.028 506.705C372.353 507.037 372.677 507.378 372.985 507.71C373.08 507.797 373.167 507.892 373.239 507.979C373.587 508.343 373.919 508.714 374.251 509.086C374.631 509.505 375.003 509.925 375.366 510.352C376.11 511.206 376.822 512.076 377.51 512.954C377.858 513.397 378.206 513.84 378.538 514.283C378.823 514.663 379.108 515.05 379.385 515.43C379.519 515.604 379.646 515.778 379.772 515.96C380.017 516.3 380.255 516.648 380.492 516.996C380.816 517.447 381.125 517.914 381.425 518.373C382.343 519.765 383.205 521.181 384.012 522.62C384.281 523.095 384.55 523.577 384.803 524.06C385.056 524.526 385.293 524.993 385.539 525.46C385.586 525.547 385.634 525.634 385.665 525.721C386.377 527.129 387.042 528.553 387.635 530C388.283 531.511 388.861 533.038 389.375 534.588C389.525 535.015 389.668 535.434 389.794 535.862C389.905 536.217 390.016 536.573 390.119 536.929C390.166 537.04 390.198 537.143 390.214 537.254C390.332 537.641 390.443 538.029 390.546 538.416C390.672 538.844 390.783 539.271 390.886 539.698C390.949 539.935 391.004 540.172 391.06 540.41C391.139 540.71 391.21 541.019 391.273 541.327C391.337 541.62 391.4 541.905 391.463 542.197C391.677 543.194 391.859 544.191 392.017 545.195C392.072 545.512 392.12 545.828 392.167 546.145C392.246 546.619 392.31 547.102 392.365 547.584C392.389 547.782 392.42 547.98 392.436 548.185C392.492 548.628 392.539 549.071 392.579 549.514C392.586 549.593 392.594 549.68 392.602 549.759C392.658 550.376 392.705 550.993 392.745 551.61V551.658C392.784 552.267 392.816 552.876 392.832 553.493C392.84 553.635 392.84 553.778 392.84 553.92C392.863 554.513 392.871 555.106 392.871 555.7C392.871 558.903 392.61 562.059 392.159 565.168C392.768 564.97 393.385 564.773 394.002 564.591C395.07 564.258 396.146 563.958 397.238 563.665C397.886 563.499 398.543 563.333 399.207 563.175Z" fill="white"/>
<path d="M1972 418.493V520.548C1960.31 517.004 1948.07 516.72 1936.36 520.627C1944.07 467.915 1911.47 420.819 1868.98 416.413C1826.47 411.999 1784.91 451.431 1787.08 494.105C1779.75 445.213 1749.4 395.001 1707.67 367.537C1690.28 356.091 1670.92 348.593 1650.41 346.789C1613.35 343.53 1576.71 359.216 1550.22 385.137C1526.88 407.973 1511.45 438.759 1510.6 471.53C1492.1 429.931 1447.7 411.746 1411.29 424.339C1374.87 436.924 1351.19 478.673 1359.06 516.387C1335.28 491.242 1295.09 482.786 1265.66 498.566C1236.25 514.347 1221.07 552.536 1231.63 584.2C1209.36 548.961 1166.23 523.348 1126.4 530.507C1086.57 537.65 1055.04 576.654 1056.4 617.105C1040.62 595.551 1014.71 577.88 988.599 579.193C962.907 580.498 949.31 590.67 948.891 590.987C949.12 590.362 971.695 530.436 948.993 497.562C935.721 478.348 911.967 459.712 879.631 471.997C856.565 480.761 842.027 495.117 847.176 510.645C836.988 499.112 816.857 498.495 805.981 509.403C808.472 501.833 809.627 493.883 809.255 486.401C808.741 475.999 805.277 466.483 798.379 460.1C786.522 449.113 766.209 448.97 754.218 459.791C747.534 465.819 743.966 474.749 743.784 483.727C743.634 490.87 745.651 498.044 749.954 503.779C741.997 495.276 732.9 489.082 723.377 485.372C714.351 481.852 704.938 480.563 695.747 481.655C685.662 482.857 675.996 486.899 667.872 492.99C660.785 498.313 654.876 505.203 650.905 513.121C652.408 505.029 652.677 496.525 651.673 488.259C649.624 471.103 642.157 454.958 629.026 445.561C609.568 431.64 580.087 434.266 563.381 451.391C551.856 463.232 547.403 480.982 550.504 497.119C551.888 504.356 554.791 511.262 559.26 517.171C553.059 509.213 542.38 505.598 532.089 506.729C531.29 506.816 530.499 506.927 529.708 507.077C525.682 507.813 521.775 509.292 518.286 511.539C506.548 519.061 500.773 534.493 504.001 547.964C495.632 525.223 476.308 512.227 457.442 512.741C437.422 513.287 419.237 526.481 408.543 543.424C404.627 549.625 401.582 556.262 399.209 563.175C398.988 563.808 398.774 564.441 398.576 565.073C394.866 576.495 392.921 588.598 391.837 600.597C387.566 590.196 380.834 581.503 372.695 574.834C367.585 570.666 361.921 567.288 355.957 564.805C340.517 558.366 323.099 557.867 308.189 564.781C283.755 576.092 270.126 605.391 274.405 631.589C266.226 613.696 251.561 598.319 233.281 591.635C209.472 582.911 180.83 589.341 163.04 607.432C145.258 625.522 139.302 654.29 148.446 677.941C138.337 661.583 118.388 652.036 99.5624 654.638C80.7445 657.249 64.1414 671.843 59.1502 690.17C49.5316 671.328 24.7892 661.979 7.42675 671.439C-0.902476 675.972 -6.53442 684.285 -8.8125 693.445C-8.17179 684.831 -5.01569 676.573 1.08292 670.253C15.4949 655.295 40.9651 656.83 56.6902 669.47C71.8537 643.145 110.439 633.416 135.553 650.723C130.72 619.708 148.628 586.494 176.962 573.885C205.311 561.3 241.499 570.444 260.705 595.076C266.535 558.421 308.687 534.675 347.984 535.909C363.456 536.392 378.493 540.758 390.69 549.728C389.772 544.8 389.306 539.714 389.377 534.596C389.583 520.05 394.17 505.306 405.229 493.448C408.741 489.683 412.64 486.496 416.801 483.885C431.838 474.425 450.213 472.424 465.906 477.162C483.079 482.335 497.024 495.576 499.824 515.929C501.786 501.556 504.649 491.447 508.359 484.724C516.649 469.687 529.115 471.506 545.014 480.294C545.702 454.349 558.912 431.529 578.829 417.679C591.556 408.827 607.028 403.638 623.726 403.638C630.339 403.638 636.762 404.453 642.9 405.995C670.388 412.877 692.14 434.21 699.647 461.452C705.99 459.791 712.635 458.921 719.509 458.921C727.324 458.921 734.886 460.068 742.013 462.196C749.804 444.343 767.609 431.845 788.341 431.845C806.345 431.845 822.149 441.25 831.103 455.425C836.047 463.232 838.902 472.487 838.902 482.406C838.902 482.936 838.886 483.458 838.87 483.972C861.896 454.381 906.011 441.97 939.952 458.502C979.439 477.739 997.49 532.342 977.43 571.844C997.071 556.539 1023.44 555.028 1046.6 563.246C1052.16 562.115 1057.87 561.459 1063.72 561.261C1082.73 519.844 1124.54 491.075 1173.08 491.075C1193.02 491.075 1211.8 495.956 1228.36 504.538C1230.83 477.89 1249.45 455.939 1274.33 448.567C1280.17 446.827 1286.36 445.894 1292.77 445.894C1302.33 445.894 1311.39 447.966 1319.55 451.676C1332.64 457.632 1343.38 467.812 1350.05 480.476C1355.73 436.552 1394.52 397.389 1443.04 388.166C1446.26 387.549 1449.54 387.067 1452.85 386.727C1472.54 384.694 1492.24 387.771 1510.3 394.653C1511.26 395.024 1512.21 395.396 1513.16 395.784C1513.35 394.945 1513.54 394.107 1513.74 393.276C1520.2 366.525 1534.67 341.07 1555.16 320.916C1571.49 304.866 1591.63 292.178 1614.61 284.878C1615.79 284.498 1616.98 284.142 1618.17 283.794C1697.58 260.657 1792.34 303.197 1823.42 372.892C1824.74 375.866 1825.95 378.888 1827.04 381.957C1828.41 385.801 1829.52 389.685 1830.48 393.577C1848.61 384.417 1869.75 379.718 1892.03 380.992C1924.62 382.867 1953.06 397.184 1972 418.493Z" fill="white"/>
<path d="M279.663 941.501C274.047 922.114 264.706 905.811 251.496 893.108C220.18 863.01 169.374 855.424 130.639 875.073C135.116 868.547 136.326 861.547 137.513 854.531C140.716 814.569 116.86 777.986 82.554 765.274C48.2563 752.563 6.31747 764.776 -15.8068 793.9C-18.0216 759.816 -37.7333 730.296 -64.5719 713.392C-81.1276 702.959 -100.388 697.327 -119.926 698.379C-136.189 699.257 -151.764 704.707 -165.409 713.392C-194.739 732.044 -215.123 765.591 -214.158 800.577C-226.403 789.368 -249.713 789.004 -266.427 799.912C-283.125 810.82 -292.182 832.311 -288.306 851.881C-308.081 838.023 -330.712 838.663 -345.954 850.22C-361.189 861.768 -367.944 883.378 -361.948 901.556C-373.22 889.437 -386.991 882.034 -401 879.392V865.122C-396.586 864.568 -392.054 864.426 -387.45 864.719C-382.728 865.019 -378.156 865.771 -373.75 866.918C-364.725 846.953 -345.654 832.746 -323.363 830.271C-319.851 796.898 -290.592 771.927 -256.785 774.062C-250.829 774.442 -245.11 775.652 -239.731 777.55C-230.136 751.772 -213.406 729.64 -192.065 713.392C-165.551 693.206 -131.926 682.101 -96.0537 684.371C-66.676 686.222 -39.9165 696.789 -18.1402 713.392C-1.17328 726.333 12.772 742.936 22.5804 761.944C38.1631 752.5 56.6884 747.54 76.2419 748.782C127.206 751.993 165.91 795.91 162.69 846.874C162.674 846.905 162.674 846.921 162.674 846.937C167.223 846.668 171.826 846.637 176.485 846.937C229.83 850.291 272.038 890.679 279.663 941.501Z" fill="white"/>
<path d="M1972 776.018V857.412C1961.31 854.059 1948.97 855.553 1939.93 862.285C1954.48 843.024 1957.3 815.742 1944.62 797.621C1931.92 779.491 1905.33 772.807 1885.58 782.758C1892.35 761.219 1884.44 735.322 1865.91 727.15C1848.88 719.628 1826.83 728.812 1819.19 745.51C1822.01 734.792 1818.45 721.455 1810.25 713.395C1807.64 710.824 1804.55 708.791 1801.06 707.542C1791.76 704.227 1781.2 707.091 1773.67 713.395C1768.52 717.698 1764.79 723.607 1763.83 730.243C1764.42 724.619 1764.15 718.948 1763.13 713.395C1758.6 688.795 1739.36 666.718 1715.1 662.739C1684.91 657.78 1653.12 681.834 1649.68 712.224C1641.07 711.568 1632.61 712.003 1624.47 713.395C1596.84 718.125 1572.77 733.977 1558.18 756.417C1557.2 741.048 1553.46 726.478 1547.49 713.395C1535.54 687.165 1514.64 666.94 1489.1 658.341C1450.84 645.456 1405.06 659.678 1380.85 691.975C1375.91 698.556 1371.95 705.778 1368.96 713.395C1357.26 743.176 1360.46 778.937 1378.85 805.325C1343.84 810.269 1325.52 842.787 1335.64 868.281C1313.79 851.298 1278.6 859.485 1263.37 881.601C1274.12 859.081 1297.77 844.203 1324.22 845.88H1324.24C1326.41 823.613 1341.84 805.641 1362.16 799.345C1353.34 780.48 1348.99 759.194 1350.39 736.943C1350.91 728.851 1352.16 720.981 1354.1 713.395C1368.99 654.727 1423.95 613.12 1486.55 617.114C1542.44 620.674 1587.64 659.536 1601.91 710.571C1602.66 710.824 1603.39 711.109 1604.15 711.378C1612.61 706.102 1622.43 702.867 1632.91 702.337C1643.69 665.5 1678.84 639.698 1718.75 642.237C1751.68 644.325 1778.95 665.168 1790.85 693.683C1793.7 693.28 1796.62 693.153 1799.59 693.343C1813.82 694.245 1825.96 702.107 1832.93 713.395C1833.5 714.32 1834.04 715.262 1834.54 716.227C1835.1 715.262 1835.7 714.32 1836.3 713.395C1847.3 696.871 1866.57 686.501 1887.81 687.846C1906.43 689.04 1922.41 698.967 1932.01 713.395C1938.73 723.496 1942.31 735.796 1941.48 748.84C1941.15 754.084 1940.12 759.107 1938.49 763.845C1950.97 764.913 1962.41 769.279 1972 776.018Z" fill="white"/>
<path d="M634.298 830.361C630.486 823.78 624.435 818.417 617.339 815.039C602.832 808.15 584.6 809.906 571.683 819.445C583.785 805.809 583.073 781.185 568.511 771.574C553.949 761.963 531.025 770.981 526.92 787.94C528.969 772.855 514.944 755.058 497.629 753.413C480.306 751.76 463.181 766.591 462.327 783.961C459.195 753.278 447.868 725.372 426.289 712.739C404.711 700.107 374.835 703.88 357.077 721.488C339.319 739.096 335.293 768.94 347.751 790.621C339.706 777.744 327.659 763.458 312.583 760.5C297.514 757.542 280.959 766.211 274.797 780.283C268.635 794.355 273.508 812.398 285.902 821.462C269.046 810.191 248.884 808.126 234.116 816.685C226.411 821.146 220.487 828.328 217.085 836.539C217.038 834.72 217.101 832.877 217.283 831.026C219.727 805.635 242.303 787.03 267.694 789.482C268.92 789.601 270.138 789.783 271.332 789.989C270.138 786.793 269.489 783.392 269.489 779.864C269.489 761.07 287.833 745.835 310.463 745.835C317.313 745.835 323.768 747.235 329.439 749.703C336.313 709.631 371.212 679.13 413.246 679.13C455.279 679.13 487.6 707.416 496.182 745.305C500.374 742.821 505.27 741.397 510.499 741.397C522.435 741.397 532.623 748.809 536.744 759.282C543.911 751.989 553.893 747.464 564.928 747.464C586.759 747.464 604.454 765.159 604.454 786.991C604.454 794.426 602.405 801.371 598.838 807.311C599.479 807.28 600.127 807.256 600.784 807.256C616.09 807.256 629.157 816.851 634.298 830.361Z" fill="white"/>
</svg>
