<svg width="393" height="1314" viewBox="0 0 393 1314" fill="none" xmlns="http://www.w3.org/2000/svg">
<path d="M1317.87 20V699.002H-796V49.2418C-786.072 55.3227 -780.146 64.4898 -781.048 74.4532C-781.527 79.759 -783.888 84.6632 -787.636 88.8698C-784.557 88.5386 -781.4 88.4259 -778.173 88.5668C-773.043 88.8064 -768.182 89.6519 -763.707 91.0048C-756.182 83.5781 -743.555 78.9698 -729.688 79.5899C-708.338 80.5552 -692.132 93.5203 -693.484 108.571C-693.541 109.114 -693.611 109.642 -693.703 110.17C-681.337 115.025 -673.339 124.587 -674.298 135.206C-674.34 135.657 -674.403 136.108 -674.481 136.545C-674.107 136.559 -673.741 136.566 -673.375 136.58C-658.296 137.256 -646.853 146.416 -647.818 157.042C-647.839 157.31 -647.874 157.577 -647.917 157.845C-647.226 157.859 -646.543 157.873 -645.845 157.902C-634.923 158.395 -624.904 161.002 -616.547 165.11C-617.716 159.677 -616.815 154.47 -613.503 150.545C-608.817 145 -600.46 143.379 -591.723 145.514C-591.927 143.992 -591.97 142.435 -591.822 140.864C-590.751 128.928 -579.653 119.133 -564.68 115.258C-561.748 99.4109 -543.442 87.2069 -521.282 87.2069C-497.254 87.2069 -477.757 101.56 -477.483 119.345C-475.143 119.035 -472.719 118.922 -470.239 119.028C-454.223 119.753 -442.068 129.477 -443.09 140.758C-443.252 142.527 -443.724 144.225 -444.464 145.831C-440.99 145.007 -437.242 144.634 -433.359 144.803C-423.762 145.233 -415.546 148.911 -410.727 154.209C-403.166 151.292 -394.386 149.791 -385.149 150.207C-371.176 150.827 -359.036 155.689 -351.045 162.897C-334.494 144.077 -304.138 132.134 -270.584 133.634C-231.421 135.396 -199.875 154.942 -190.793 180.386C-181.837 170.655 -165.884 164.511 -148.283 165.307C-122.339 166.47 -102.659 182.225 -104.307 200.503C-104.406 201.616 -104.582 202.709 -104.836 203.78C-99.9177 201.673 -94.0693 200.559 -87.8828 200.841C-79.8218 201.201 -72.7334 203.85 -67.8151 207.831C-57.7109 199.714 -42.5685 194.859 -26.0873 195.599C2.10461 196.86 23.4969 213.997 21.7001 233.846C21.5592 235.445 21.2562 237.024 20.8264 238.56C24.5186 237.594 28.535 237.143 32.7134 237.334C48.7294 238.052 60.8912 247.783 59.8625 259.064C59.4397 263.743 56.8256 267.95 52.7599 271.219C64.661 275.017 73.5955 282.479 76.8298 291.449C77.7528 293.992 78.2178 296.663 78.1544 299.404C81.1068 299.016 84.1649 298.882 87.2934 299.016C93.783 299.312 99.7723 300.757 104.895 303.061C112.04 294.246 121.996 286.707 133.904 281.041C148.814 273.953 166.775 269.817 186.117 269.817C197.912 269.817 209.193 271.36 219.586 274.171C224.962 261.446 238.202 251.236 255.135 246.163C248.116 242.738 243.748 236.869 244.326 230.428C245.213 220.634 257.199 213.2 271.108 213.827C275.808 214.039 280.12 215.138 283.742 216.893C283.157 214.384 282.946 211.777 283.178 209.121C284.884 190.35 307.868 176.095 334.524 177.286C357.882 178.343 376.301 190.906 379.359 206.64C383.7 205.64 388.371 205.189 393.212 205.407C396.756 205.569 400.153 206.084 403.338 206.88C409.087 196.557 423.779 189.567 440.323 190.307C452.083 190.836 462.209 195.162 468.466 201.482C485.588 186.298 512.012 176.567 541.669 176.567C565.042 176.567 586.406 182.606 602.795 192.597C610.377 186.227 621.742 182.176 634.468 182.176C641.704 182.176 648.511 183.501 654.43 185.798C663.717 175.651 679.888 168.922 698.307 168.922C706.396 168.922 714.048 170.225 720.869 172.544C721.101 145.43 747.729 123.509 780.536 123.509C813.343 123.509 840.225 145.62 840.225 172.896C840.225 173.446 840.189 173.995 840.168 174.531C845.932 172.382 852.499 171.156 859.482 171.156C882.305 171.156 900.808 184.184 900.808 200.271C900.808 202.885 900.301 205.435 899.378 207.859C907.382 204.512 916.726 202.582 926.71 202.582C933.721 202.582 940.408 203.533 946.545 205.252C953.697 207.26 960.088 210.318 965.344 214.152C968.276 200.109 985.461 189.314 1006.21 189.314C1007.23 189.314 1008.21 189.356 1009.19 189.398C1005.25 184.255 1002.91 178.406 1002.68 172.184C1002.66 171.839 1002.65 171.501 1002.65 171.156C1002.65 154.724 1017.32 140.702 1037.91 135.227C1037.84 134.409 1037.79 133.578 1037.79 132.754C1037.79 111.869 1061.82 94.9295 1091.47 94.9295C1108.25 94.9295 1123.23 100.355 1133.07 108.86C1141.81 104.822 1152.25 102.469 1163.46 102.469C1169.4 102.469 1175.1 103.138 1180.46 104.35C1183.27 73.9811 1219.11 49.9606 1262.92 49.9606C1275.2 49.9606 1286.84 51.8419 1297.31 55.2311C1300.31 42.259 1307.49 30.2804 1317.87 20Z" fill="#E3F0FF"/>
<path d="M1021.87 224.052V723.397H-1092V231.45C-1074.67 236.171 -1062.9 248.397 -1064.15 262.158C-1064.63 267.457 -1066.99 272.361 -1070.73 276.574C-1067.67 276.236 -1064.5 276.123 -1061.28 276.271C-1055.92 276.504 -1050.86 277.427 -1046.23 278.871C-1040.93 265.005 -1022.36 255.217 -1001.22 256.162C-982.248 257.014 -966.88 266.273 -961.941 278.463C-942.225 280.196 -927.569 292.471 -928.852 306.641C-928.873 306.908 -928.915 307.169 -928.95 307.437C-921.643 305.541 -913.674 304.647 -905.402 305.02C-885.503 305.915 -868.614 313.828 -859.277 325.109C-841.88 310.911 -815.598 302.406 -786.983 303.688C-769.431 304.485 -753.422 308.846 -740.267 315.716C-738.435 314.3 -736.377 312.989 -734.115 311.82C-735.94 305.464 -735.785 299.425 -733.34 294.141C-726.463 279.28 -703.359 274.439 -675.977 280.105C-666.683 238.278 -629.366 207 -584.735 207C-533.474 207 -491.859 248.263 -491.288 299.383C-488.103 298.763 -484.813 298.425 -481.445 298.425C-453.64 298.425 -431.085 320.966 -431.085 348.777C-431.085 350.2 -431.163 351.61 -431.283 353.012C-405.388 354.217 -385.757 369.951 -387.406 388.208C-387.505 389.321 -387.688 390.406 -387.934 391.484C-383.023 389.37 -377.168 388.264 -370.988 388.532C-368.381 388.652 -365.873 389.011 -363.505 389.582C-358.559 390.751 -354.239 392.837 -350.921 395.536C-343.022 389.187 -332.044 384.833 -319.762 383.592C-316.324 383.247 -312.786 383.142 -309.186 383.304C-298.941 383.762 -289.604 386.312 -281.945 390.329C-272.672 395.191 -265.866 402.202 -262.927 410.241C-262.779 410.643 -262.638 411.052 -262.512 411.46C-261.969 410.939 -261.398 410.424 -260.806 409.931C-256.402 406.218 -250.78 403.266 -244.403 401.37C-238.428 399.594 -231.797 398.742 -224.885 399.052C-213.047 399.58 -202.633 403.421 -195.333 409.22C-189.414 399.15 -174.913 392.379 -158.615 393.112C-157.142 393.175 -155.698 393.302 -154.281 393.478C-148.976 394.162 -144.086 395.627 -139.851 397.692C-136.06 399.545 -132.798 401.87 -130.219 404.548C-118.888 397.932 -105.31 393.168 -90.4076 390.906C-84.5381 390.019 -78.4572 389.518 -72.2283 389.441C-71.7068 389.434 -71.1854 389.434 -70.657 389.434C-52.076 389.434 -34.7706 393.26 -20.2201 399.841C-19.135 396.762 -16.9154 394.014 -13.9067 391.822C-8.94617 388.201 -1.84351 386.073 5.84387 386.418C6.10461 386.439 6.36536 386.453 6.62598 386.467C5.34363 382.233 4.65308 377.8 4.65308 373.22C4.65308 370.155 4.96313 367.154 5.55493 364.229C10.6565 338.877 36.974 319.556 68.6609 319.556C85.7339 319.556 101.229 325.179 112.707 334.311C129.822 313.736 155.611 300.623 184.473 300.623C225.933 300.623 261.072 327.674 273.22 365.082C290.821 367.041 306.802 372.438 319.69 380.295C327.271 373.932 338.644 369.881 351.362 369.881C358.606 369.881 365.406 371.191 371.331 373.502C378.011 366.188 388.278 360.643 400.383 358.12C405.076 357.141 410.05 356.613 415.194 356.613C424.425 356.613 433.071 358.318 440.589 361.277C440.61 361.15 440.638 361.016 440.666 360.89C443.541 346.586 456.612 336.263 471.578 337.214C477.271 337.581 482.5 339.532 486.84 342.619C486.516 340.836 486.347 339.011 486.347 337.151C486.347 316.822 506.182 300.355 530.654 300.355C537.855 300.355 544.655 301.779 550.665 304.315C565.081 310.382 574.967 322.805 574.967 337.151C574.967 337.426 574.953 337.686 574.946 337.961C582.584 326.335 595.07 316.618 610.586 310.093C611.594 309.671 612.615 309.262 613.651 308.867C623.509 305.076 634.487 302.561 646.148 301.617C649.566 301.335 653.032 301.194 656.556 301.194C689.701 301.194 718.647 313.835 734.233 332.641C739.898 328.378 746.916 325.024 754.815 322.917C754.738 322.1 754.688 321.283 754.688 320.451C754.688 305.076 767.703 291.851 786.396 285.939C793.104 283.811 800.538 282.634 808.373 282.634C825.151 282.634 840.124 288.06 849.974 296.551C858.705 292.527 869.14 290.174 880.358 290.174C883.479 290.174 886.537 290.357 889.511 290.709C892.202 291.019 894.824 291.463 897.36 292.041C900.172 261.679 936.016 237.658 979.822 237.658C992.09 237.658 1003.74 239.546 1014.21 242.929C1015.73 236.348 1018.32 230.027 1021.87 224.052Z" fill="#ECF5FF"/>
<path d="M1306.63 339.388C1286.78 338.253 1267.95 342.439 1251.8 350.598C1250.94 347.131 1249.96 343.672 1248.74 340.247C1247.77 337.513 1246.69 334.822 1245.51 332.172C1217.83 270.088 1133.41 232.193 1062.68 252.804C1061.61 253.114 1060.55 253.431 1059.5 253.769C1039.04 260.273 1021.09 271.575 1006.54 285.871C988.288 303.825 975.401 326.5 969.651 350.33C969.468 351.07 969.298 351.817 969.129 352.564C968.284 352.219 967.438 351.888 966.586 351.556C950.499 345.426 932.947 342.685 915.409 344.496C912.457 344.799 909.54 345.229 906.665 345.778C863.443 353.994 828.889 388.88 823.836 428.008C817.889 416.727 808.321 407.658 796.666 402.353C789.394 399.048 781.319 397.202 772.808 397.202C767.1 397.202 761.583 398.033 756.383 399.583C734.216 406.15 717.636 425.704 715.43 449.443C700.682 441.797 683.948 437.45 666.191 437.45C622.949 437.45 585.702 463.077 568.77 499.971C563.563 500.147 558.469 500.732 553.515 501.74C532.891 494.419 509.399 495.764 491.903 509.399C509.772 474.21 493.693 425.57 458.518 408.433C428.283 393.707 388.986 404.762 368.474 431.122C368.488 430.664 368.502 430.199 368.502 429.727C368.502 420.891 365.959 412.647 361.555 405.692C353.579 393.066 339.5 384.688 323.463 384.688C304.995 384.688 289.134 395.821 282.193 411.724C275.845 409.829 269.108 408.807 262.147 408.807C256.024 408.807 250.105 409.582 244.454 411.062C237.767 386.794 218.39 367.791 193.904 361.661C188.436 360.287 182.715 359.561 176.824 359.561C161.949 359.561 148.167 364.183 136.83 372.068C119.087 384.406 107.32 404.734 106.707 427.846C92.5441 420.017 81.4394 418.397 74.0549 431.792C70.7502 437.781 68.1995 446.786 66.452 459.589C63.9576 441.459 51.5352 429.664 36.2379 425.056C22.2582 420.835 5.88977 422.618 -7.50513 431.045C-11.2114 433.37 -14.6852 436.21 -17.8137 439.564C-27.6644 450.126 -31.7512 463.26 -31.9344 476.211C-32.4065 474.83 -32.9208 473.47 -33.4846 472.124C-33.6889 471.645 -33.9003 471.159 -34.1117 470.68C-34.3301 470.208 -34.5486 469.729 -34.774 469.256C-34.922 468.939 -35.084 468.629 -35.2391 468.312C-35.2673 468.235 -35.3095 468.157 -35.3518 468.08C-35.5703 467.664 -35.7817 467.248 -36.0071 466.833C-36.2326 466.403 -36.4722 465.973 -36.7117 465.55C-36.8879 465.233 -37.071 464.909 -37.2613 464.592C-37.5432 464.12 -37.8321 463.641 -38.121 463.169C-38.4169 462.696 -38.7129 462.231 -39.0159 461.766C-39.2836 461.358 -39.5584 460.942 -39.8473 460.54C-40.0587 460.23 -40.2701 459.92 -40.4885 459.617C-40.6013 459.455 -40.7139 459.3 -40.8337 459.145C-41.0804 458.807 -41.334 458.462 -41.5877 458.123C-41.8837 457.729 -42.1936 457.334 -42.5037 456.94C-43.1167 456.158 -43.7509 455.382 -44.4132 454.621C-44.7373 454.241 -45.0685 453.868 -45.4067 453.494C-45.7027 453.163 -45.9986 452.832 -46.3087 452.508C-46.3721 452.43 -46.4496 452.346 -46.5342 452.268C-46.809 451.972 -47.0978 451.669 -47.3867 451.373C-47.4642 451.289 -47.5418 451.204 -47.6263 451.12C-47.9152 450.824 -48.2112 450.535 -48.5001 450.246C-49.6274 449.132 -50.7901 448.047 -51.995 447.004C-52.298 446.737 -52.608 446.476 -52.918 446.208C-53.0308 446.117 -53.1365 446.025 -53.2492 445.933C-53.524 445.701 -53.8058 445.468 -54.0877 445.236C-54.2568 445.102 -54.4329 444.961 -54.6091 444.827C-54.912 444.581 -55.2151 444.341 -55.5251 444.101C-56.3425 443.46 -57.181 442.833 -58.0336 442.227C-58.3365 442.016 -58.6325 441.804 -58.9355 441.593C-59.1257 441.459 -59.309 441.332 -59.4992 441.205C-59.8797 440.945 -60.2532 440.691 -60.6407 440.437C-61.0071 440.191 -61.3805 439.951 -61.754 439.712C-61.9653 439.578 -62.1768 439.444 -62.3882 439.31C-62.6771 439.127 -62.9659 438.951 -63.2548 438.775C-64.8825 437.781 -66.5595 436.83 -68.2788 435.935C-68.61 435.759 -68.9482 435.583 -69.2935 435.413C-69.6035 435.251 -69.9206 435.096 -70.2377 434.941C-70.6605 434.73 -71.0902 434.519 -71.5271 434.314C-71.978 434.103 -72.4361 433.892 -72.8941 433.687C-73.1478 433.567 -73.4014 433.455 -73.6551 433.349C-74.1342 433.13 -74.6204 432.919 -75.1136 432.715C-75.6985 432.468 -76.2904 432.222 -76.8893 431.989C-76.9528 431.961 -77.009 431.94 -77.0724 431.919C-77.6503 431.686 -78.2351 431.46 -78.8199 431.249C-78.8199 431.249 -78.8199 431.249 -78.834 431.249C-79.3132 431.066 -79.7993 430.89 -80.2855 430.721C-81.6102 430.249 -82.9561 429.805 -84.316 429.396C-84.5908 429.311 -84.8586 429.227 -85.1334 429.149C-85.5984 429.008 -86.0705 428.875 -86.5426 428.748C-87.0781 428.593 -87.6136 428.452 -88.1562 428.311C-88.3676 428.255 -88.579 428.198 -88.7903 428.149C-89.3682 428.001 -89.9459 427.86 -90.5308 427.726C-92.4121 427.282 -94.3146 426.895 -96.2452 426.57C-96.5482 426.507 -96.8582 426.458 -97.1683 426.415C-97.5417 426.345 -97.9222 426.289 -98.3027 426.232C-98.5634 426.19 -98.8242 426.155 -99.0849 426.112C-99.409 426.07 -99.7332 426.021 -100.057 425.986C-100.445 425.929 -100.839 425.88 -101.234 425.831C-101.312 425.816 -101.389 425.809 -101.466 425.802C-102.629 425.661 -103.799 425.542 -104.976 425.443C-105.553 425.394 -106.131 425.351 -106.716 425.316C-107.061 425.288 -107.399 425.267 -107.738 425.246C-108.175 425.218 -108.618 425.196 -109.062 425.182C-109.288 425.168 -109.506 425.154 -109.732 425.154C-110.169 425.133 -110.605 425.119 -111.042 425.112C-111.958 425.084 -112.874 425.07 -113.797 425.07C-133.315 425.07 -151.276 430.495 -165.629 439.606C-170.35 402.585 -208.386 373.738 -254.602 373.738C-300.818 373.738 -334.95 399.731 -342.588 434.025C-347.408 432.045 -352.848 430.918 -358.611 430.918C-378.425 430.918 -394.491 444.144 -394.491 460.449C-394.491 465.015 -393.229 469.327 -390.982 473.181C-396.4 478.6 -400.607 484.85 -403.313 491.678C-405.666 491.523 -408.034 491.424 -410.443 491.424C-455.398 491.424 -492.757 518.101 -500.508 553.269C-507.04 539.895 -522.929 530.446 -541.51 530.446C-545.012 530.446 -548.415 530.791 -551.678 531.439C-552.256 531.129 -552.833 530.833 -553.411 530.537C-550.198 522.427 -550.276 513.366 -554.384 504.812C-562.268 488.429 -582.442 479.072 -602.735 481.066C-603.63 475.549 -605.342 470.032 -607.942 464.627C-625.184 428.79 -674.43 411.245 -717.962 425.429C-719.568 425.957 -721.147 426.514 -722.697 427.113C-722.831 427.162 -722.964 427.212 -723.098 427.275C-723.74 427.522 -724.381 427.775 -725.008 428.043C-725.092 428.071 -725.17 428.099 -725.247 428.142C-725.959 428.438 -726.664 428.741 -727.354 429.058C-727.375 429.058 -727.397 429.065 -727.418 429.086C-728.087 429.382 -728.742 429.685 -729.391 430.002C-729.567 430.072 -729.736 430.157 -729.905 430.249C-730.511 430.537 -731.103 430.833 -731.695 431.143C-731.758 431.165 -731.822 431.2 -731.885 431.242C-732.533 431.573 -733.174 431.919 -733.809 432.271C-733.879 432.292 -733.943 432.327 -734.006 432.376C-734.682 432.743 -735.345 433.123 -736 433.511V1314H1377.87V372.801C1360.99 353.818 1335.66 341.065 1306.63 339.395V339.388Z" fill="#F4F9FF"/>
<path d="M1377.87 372.794V463.704C1367.45 460.547 1356.55 460.294 1346.12 463.774C1352.99 416.818 1323.95 374.865 1286.1 370.941C1248.23 367.009 1211.21 402.134 1213.14 440.148C1206.61 396.596 1179.57 351.866 1142.4 327.402C1126.91 317.206 1109.66 310.526 1091.4 308.92C1058.38 306.017 1025.74 319.989 1002.15 343.08C981.355 363.422 967.608 390.846 966.847 420.039C950.373 382.982 910.815 366.783 878.389 378.001C845.941 389.211 824.845 426.401 831.856 459.998C810.675 437.598 774.873 430.065 748.661 444.123C722.463 458.18 708.941 492.199 718.341 520.405C698.506 489.014 660.09 466.198 624.605 472.575C589.127 478.938 561.034 513.683 562.246 549.717C548.196 530.516 525.112 514.775 501.853 515.945C478.967 517.107 466.854 526.169 466.481 526.451C466.685 525.894 486.795 472.512 466.572 443.228C454.749 426.112 433.589 409.512 404.784 420.454C384.237 428.262 371.286 441.05 375.873 454.882C366.798 444.609 348.865 444.059 339.177 453.776C341.396 447.033 342.425 439.951 342.094 433.285C341.636 424.02 338.55 415.543 332.405 409.857C321.843 400.07 303.748 399.943 293.066 409.582C287.112 414.951 283.934 422.906 283.772 430.904C283.638 437.267 285.435 443.657 289.268 448.766C282.18 441.191 274.077 435.674 265.593 432.369C257.553 429.234 249.168 428.085 240.981 429.058C231.997 430.129 223.386 433.729 216.15 439.155C209.836 443.897 204.573 450.034 201.035 457.088C202.374 449.879 202.614 442.305 201.719 434.941C199.894 419.658 193.242 405.277 181.546 396.906C164.212 384.504 137.951 386.844 123.069 402.099C112.803 412.647 108.836 428.459 111.598 442.833C112.831 449.28 115.417 455.432 119.398 460.695C113.874 453.607 104.361 450.387 95.1942 451.394C94.4825 451.472 93.7779 451.57 93.0733 451.704C89.4867 452.36 86.006 453.677 82.8986 455.678C72.442 462.379 67.2982 476.126 70.173 488.126C62.7181 467.868 45.5042 456.291 28.699 456.749C10.865 457.236 -5.33429 468.989 -14.8608 484.082C-18.3487 489.606 -21.0614 495.518 -23.1753 501.676C-23.3726 502.24 -23.5628 502.803 -23.739 503.367C-27.0437 513.542 -28.7771 524.323 -29.7424 535.012C-33.5474 525.746 -39.5437 518.002 -46.7943 512.062C-51.3461 508.349 -56.3912 505.34 -61.704 503.128C-75.4583 497.392 -90.9741 496.948 -104.256 503.106C-126.022 513.183 -138.163 539.282 -134.351 562.619C-141.636 546.68 -154.7 532.983 -170.984 527.028C-192.193 519.256 -217.707 524.985 -233.554 541.1C-249.394 557.214 -254.7 582.842 -246.555 603.91C-255.56 589.338 -273.33 580.833 -290.1 583.152C-306.863 585.477 -321.653 598.477 -326.099 614.803C-334.668 598.019 -356.708 589.69 -372.175 598.118C-379.594 602.155 -384.611 609.561 -386.641 617.72C-386.07 610.047 -383.258 602.691 -377.826 597.061C-364.988 583.736 -342.299 585.103 -328.291 596.363C-314.783 572.913 -280.412 564.247 -258.04 579.664C-262.345 552.035 -246.393 522.448 -221.153 511.217C-195.899 500.006 -163.663 508.152 -146.555 530.094C-141.362 497.441 -103.812 476.289 -68.8066 477.388C-55.0242 477.818 -41.6294 481.707 -30.7641 489.698C-31.5815 485.308 -31.9972 480.777 -31.9337 476.218C-31.7505 463.26 -27.6638 450.126 -17.8131 439.564C-14.6846 436.21 -11.2108 433.37 -7.50452 431.045C5.89035 422.618 22.2587 420.835 36.2384 425.056C51.5358 429.664 63.9583 441.459 66.4526 459.589C68.2001 446.786 70.7508 437.781 74.0555 431.792C81.4399 418.397 92.5448 420.017 106.708 427.846C107.321 404.734 119.088 384.406 136.83 372.068C148.168 364.183 161.95 359.561 176.825 359.561C182.715 359.561 188.437 360.287 193.905 361.661C218.39 367.791 237.767 386.794 244.454 411.062C250.105 409.582 256.024 408.807 262.147 408.807C269.109 408.807 275.845 409.829 282.194 411.724C289.134 395.821 304.995 384.688 323.464 384.688C339.501 384.688 353.579 393.066 361.556 405.692C365.959 412.647 368.503 420.891 368.503 429.727C368.503 430.199 368.489 430.664 368.475 431.122C388.986 404.762 428.283 393.707 458.518 408.433C493.693 425.57 509.773 474.21 491.904 509.399C509.399 495.764 532.891 494.419 553.516 501.74C558.469 500.732 563.564 500.147 568.771 499.971C585.703 463.077 622.949 437.45 666.192 437.45C683.948 437.45 700.683 441.797 715.431 449.443C717.636 425.704 734.216 406.15 756.383 399.583C761.584 398.033 767.101 397.202 772.808 397.202C781.32 397.202 789.395 399.048 796.667 402.353C808.321 407.658 817.89 416.727 823.837 428.008C828.889 388.88 863.444 353.994 906.665 345.778C909.54 345.229 912.457 344.799 915.41 344.496C932.948 342.685 950.5 345.426 966.586 351.556C967.439 351.888 968.285 352.219 969.13 352.564C969.299 351.817 969.468 351.07 969.651 350.33C975.401 326.5 988.289 303.825 1006.55 285.871C1021.09 271.575 1039.04 260.273 1059.5 253.769C1060.55 253.431 1061.61 253.114 1062.68 252.804C1133.41 232.193 1217.83 270.088 1245.51 332.172C1246.69 334.822 1247.77 337.513 1248.74 340.247C1249.96 343.672 1250.94 347.131 1251.8 350.598C1267.95 342.439 1286.78 338.253 1306.63 339.388C1335.66 341.057 1360.99 353.811 1377.87 372.794Z" fill="white"/>
<path d="M519 652.505C515.628 646.652 510.276 641.882 504.001 638.878C491.171 632.751 475.046 634.313 463.622 642.797C474.326 630.668 473.696 608.768 460.817 600.22C447.938 591.672 427.665 599.692 424.034 614.776C425.846 601.36 413.442 585.531 398.129 584.067C382.808 582.597 367.663 595.788 366.907 611.237C364.137 583.948 354.119 559.128 335.035 547.892C315.951 536.657 289.528 540.013 273.823 555.673C258.118 571.334 254.557 597.877 265.575 617.161C258.46 605.708 247.806 593.002 234.472 590.371C221.145 587.74 206.503 595.45 201.054 607.966C195.604 620.481 200.538 628.438 211.5 636.5C196.592 626.475 178.136 632.73 165.075 640.342C158.261 644.31 149.509 649.197 146.5 656.5C146.458 654.882 150.027 654.743 150.188 653.097C152.35 630.514 165.218 625.95 189 623C190.084 623.106 194.444 619.317 195.5 619.5C194.444 616.658 193.87 613.633 193.87 610.495C193.87 593.779 212.583 577.328 232.597 577.328C238.656 577.328 244.364 578.573 249.38 580.768C255.459 545.128 286.324 518 323.499 518C360.674 518 389.258 543.158 396.849 576.856C400.556 574.647 404.887 573.381 409.511 573.381C420.067 573.381 429.078 579.973 432.722 589.287C439.061 582.801 447.889 578.777 457.648 578.777C476.956 578.777 492.605 594.515 492.605 613.932C492.605 620.545 490.794 626.722 487.638 632.005C488.205 631.977 488.779 631.956 489.359 631.956C502.896 631.956 514.453 640.489 519 652.505Z" fill="white"/>
<path d="M425.25 738.788V811.293C415.724 808.306 404.731 809.637 396.678 815.634C409.643 798.476 412.158 774.174 400.863 758.031C389.547 741.881 365.864 735.927 348.263 744.791C354.302 725.604 347.255 702.535 330.746 695.256C315.576 688.555 295.931 696.736 289.124 711.61C291.64 702.063 288.469 690.183 281.162 683.003C278.837 680.713 276.088 678.902 272.974 677.788C264.688 674.836 255.281 677.387 248.573 683.003C243.993 686.836 240.667 692.099 239.815 698.011C240.336 693.001 240.096 687.949 239.187 683.003C235.157 661.089 218.014 641.423 196.403 637.879C169.514 633.461 141.189 654.888 138.131 681.96C130.457 681.375 122.925 681.762 115.674 683.003C91.0547 687.216 69.6202 701.337 56.6199 721.327C55.7462 707.636 52.4133 694.657 47.1005 683.003C36.4536 659.637 17.8374 641.62 -4.91481 633.961C-38.9974 622.483 -79.781 635.152 -101.349 663.921C-105.746 669.784 -109.276 676.217 -111.94 683.003C-122.361 709.532 -119.508 741.388 -103.125 764.894C-134.319 769.298 -150.638 798.265 -141.619 820.975C-161.08 805.846 -192.429 813.139 -206 832.841C-196.424 812.78 -175.356 799.526 -151.793 801.02H-151.772C-149.841 781.185 -136.094 765.176 -117.993 759.567C-125.849 742.762 -129.732 723.8 -128.477 703.979C-128.019 696.771 -126.899 689.76 -125.18 683.003C-111.912 630.741 -62.9545 593.678 -7.19072 597.236C42.5979 600.407 82.8601 635.025 95.5714 680.487C96.2408 680.713 96.896 680.966 97.5725 681.206C105.105 676.506 113.856 673.624 123.186 673.152C132.79 640.338 164.103 617.353 199.658 619.615C228.992 621.475 253.28 640.042 263.884 665.443C266.421 665.084 269.021 664.971 271.664 665.14C284.34 665.944 295.156 672.948 301.363 683.003C301.878 683.827 302.357 684.666 302.801 685.525C303.301 684.666 303.829 683.827 304.372 683.003C314.166 668.283 331.331 659.045 350.25 660.243C366.837 661.307 381.077 670.15 389.624 683.003C395.614 692.001 398.805 702.958 398.066 714.577C397.77 719.248 396.847 723.723 395.395 727.943C406.514 728.895 416.703 732.784 425.25 738.788Z" fill="white"/>
</svg>
