<svg width="1440" height="801" viewBox="0 0 1440 801" fill="none" xmlns="http://www.w3.org/2000/svg">
<path fill-rule="evenodd" clip-rule="evenodd" d="M0.000305176 801H1440V317.293C1473.6 287.243 1453.17 251.807 1453.17 251.807C1453.17 251.807 1520.44 227.858 1521.6 182.627C1521.67 179.931 1521.53 177.25 1521.2 174.594C1521.36 174.629 1521.52 174.665 1521.69 174.701C1519.23 155.033 1506.43 136.784 1487.88 124.201C1473.93 114.483 1456.76 108.013 1438.53 106.685C1452.82 92.8419 1456.2 74.038 1451.21 56.5171C1447.39 42.5308 1438.23 29.3158 1425.04 20.0335C1395.25 -0.916016 1351.18 -4.1507 1312.73 4.40747C1265.77 14.4434 1224.93 40.8251 1200.85 75.7213C1201.72 71.6958 1201.51 67.7343 1200.4 63.947C1195.54 45.6758 1169.95 31.2939 1145.79 33.0303C1116.32 35.1479 1091.58 54.0837 1076.63 74.9556C1052.56 52.3969 1013.88 40.9165 977.39 45.4804C940.901 50.0443 907.915 69.8154 891.658 97.0012C874.61 71.9962 833.885 61.4813 799.68 68.6876C765.639 76.4739 738.364 100.113 725.944 127.235C724.297 130.765 722.891 134.363 721.746 138H717.94C716.795 134.363 715.39 130.765 713.742 127.235C701.322 100.113 674.048 76.4739 640.006 68.6876C605.802 61.4813 565.076 71.9962 548.028 97.0012C531.772 69.8154 498.786 50.0443 462.297 45.4804C425.808 40.9165 387.123 52.3969 363.054 74.9556C348.107 54.0837 323.365 35.1479 293.897 33.0303C269.734 31.294 244.152 45.6742 239.286 63.944C238.181 67.7322 237.965 71.6947 238.838 75.7211C214.76 40.825 173.918 14.4434 126.96 4.40747C88.5105 -4.1507 44.4344 -0.916016 14.6511 20.0335C1.45362 29.3167 -7.70309 42.5333 -11.5279 56.5211C-16.5107 74.0408 -13.1309 92.843 1.16036 106.685C-17.0697 108.013 -34.2459 114.483 -48.1976 124.201C-66.7417 136.784 -79.5459 155.034 -82 174.701C-81.8385 174.665 -81.6768 174.629 -81.5151 174.594C-81.8435 177.25 -81.9811 179.931 -81.916 182.627C-80.7516 227.858 -13.4807 251.807 -13.4807 251.807C-13.4807 251.807 -34.037 287.464 0.000305176 317.573V801Z" fill="#FFF8F8"/>
</svg>
