<svg width="393" height="805" viewBox="0 0 393 805" fill="none" xmlns="http://www.w3.org/2000/svg">
<path fill-rule="evenodd" clip-rule="evenodd" d="M-1.00052 805H393.999V86.6857C402.651 78.5228 397.211 69.0872 397.211 69.0872C397.211 69.0872 415.668 62.5163 415.987 50.1064C416.005 49.3666 415.967 48.6307 415.877 47.9016C415.922 47.9114 415.966 47.9213 416.011 47.9312C415.335 42.5145 411.797 37.4899 406.678 34.0363C402.861 31.3924 398.17 29.6333 393.194 29.2706C397.134 25.4545 398.052 20.264 396.656 15.4372C395.595 11.6255 393.091 8.02802 389.492 5.49658C381.321 -0.251282 369.228 -1.13873 358.679 1.20929C345.796 3.96271 334.59 11.2006 327.984 20.7744C328.226 19.6595 328.163 18.5624 327.853 17.5144C326.498 12.5159 319.493 8.58698 312.877 9.06244C304.792 9.64343 298.004 14.8387 293.903 20.5652C287.299 14.3759 276.685 11.2261 266.674 12.4783C256.663 13.7305 247.613 19.155 243.153 26.6138C238.475 19.7533 227.302 16.8684 217.917 18.8455C208.577 20.9818 201.094 27.4675 197.687 34.9089C197.214 35.9219 196.813 36.9553 196.492 38H195.519C195.197 36.9553 194.797 35.922 194.324 34.909C190.917 27.4675 183.433 20.9818 174.094 18.8456C164.709 16.8684 153.535 19.7533 148.858 26.6138C144.398 19.155 135.348 13.7305 125.337 12.4783C115.325 11.2261 104.711 14.376 98.1078 20.5652C94.0067 14.8387 87.2185 9.64343 79.1336 9.06244C72.5124 8.58661 65.5028 12.5216 64.1552 17.5253C63.8474 18.5699 63.7859 19.663 64.0264 20.7739C57.4199 11.2003 46.2148 3.96271 33.3319 1.20935C22.7827 -1.13873 10.6897 -0.251221 2.51825 5.49658C-1.08888 8.03381 -3.59579 11.642 -4.6523 15.4636C-6.03773 20.2828 -5.11683 25.4614 -1.18399 29.2707C-6.1827 29.6351 -10.8926 31.4085 -14.7191 34.0723C-19.8106 37.5247 -23.3264 42.5338 -24 47.9322C-23.9555 47.9222 -23.911 47.9124 -23.8664 47.9026C-23.9565 48.6315 -23.9942 49.367 -23.9764 50.1064C-23.6569 62.5164 -5.20015 69.0872 -5.20015 69.0872C-5.20015 69.0872 -11.0379 79.2132 -1.00052 87.5604V805Z" fill="#FFF8F8"/>
</svg>
