<svg width="130" height="108" viewBox="0 0 130 108" fill="none" xmlns="http://www.w3.org/2000/svg">
<g clip-path="url(#clip0_3319_3550)">
<path d="M67.0852 100.528C65.3878 95.5569 63.3664 90.6935 61.0415 85.9816C58.7474 81.334 56.1576 76.8354 53.2952 72.5141C50.3916 68.1336 47.2102 63.9356 43.782 59.956C40.4001 56.0277 36.7687 52.3127 32.9187 48.8443C29.0275 45.34 24.9101 42.0823 20.6023 39.1098C20.0699 38.7424 19.5324 38.3776 18.9923 38.0179C18.6143 37.7661 18.0613 37.9434 17.8401 38.3185C17.5984 38.7295 17.763 39.2151 18.141 39.4695C22.4103 42.3187 26.4917 45.4402 30.3572 48.8186C34.2457 52.2177 37.9183 55.8633 41.3491 59.7248C44.7439 63.5477 47.8995 67.5813 50.7876 71.7998C53.7066 76.0595 56.3582 80.5042 58.7165 85.0978C61.0595 89.6607 63.1092 94.3674 64.84 99.1948C65.0535 99.7883 65.2592 100.382 65.4624 100.978C65.609 101.407 66.0411 101.69 66.4963 101.564C66.9155 101.448 67.2318 100.962 67.0826 100.531L67.0852 100.528Z" fill="#2D7D5F"/>
<path d="M32.9187 48.8443C29.0275 45.34 24.9101 42.0823 20.6023 39.1098C20.0699 38.7424 19.5324 38.3776 18.9923 38.0179C18.6143 37.7661 18.0613 37.9434 17.8401 38.3185C17.5984 38.7295 17.763 39.2151 18.141 39.4695C22.4103 42.3187 26.4917 45.4402 30.3572 48.8186C32.3477 50.558 34.2817 52.3641 36.154 54.2293C36.6581 53.9493 37.1519 53.6487 37.638 53.3378C36.1026 51.7989 34.5312 50.3011 32.9161 48.8469L32.9187 48.8443Z" fill="#2D7D5F"/>
<path d="M70.077 103.353C70.4473 97.2252 71.2934 91.1311 72.5973 85.1321C73.909 79.1049 75.6707 73.1752 77.8541 67.4075C80.0299 61.6628 82.6377 56.0826 85.6313 50.7182C88.6403 45.3332 92.0377 40.1615 95.8105 35.2775C99.5628 30.4166 103.693 25.8384 108.142 21.6044C108.698 21.0751 109.259 20.5536 109.822 20.0372C110.622 19.305 109.428 18.118 108.631 18.8477C104.048 23.0483 99.7943 27.6008 95.9057 32.454C91.9888 37.3431 88.432 42.5174 85.2815 47.9332C82.1413 53.331 79.4075 58.9626 77.0877 64.7587C74.7705 70.5496 72.8802 76.51 71.4503 82.5784C70.0178 88.6545 69.0457 94.841 68.5519 101.061C68.4902 101.824 68.4387 102.587 68.3924 103.353C68.3281 104.434 70.0101 104.429 70.0744 103.353H70.077Z" fill="#2D7D5F"/>
<path d="M87.7877 43.8154C88.1478 44.283 88.5258 44.7326 88.9219 45.172C91.0591 41.7652 93.3557 38.4587 95.8118 35.2755C99.5641 30.4147 103.694 25.8364 108.144 21.6024C108.699 21.0732 109.26 20.5516 109.823 20.0352C110.623 19.303 109.43 18.1161 108.632 18.8457C104.049 23.0463 99.7955 27.5989 95.9069 32.452C92.9931 36.0874 90.2824 39.882 87.7852 43.8154H87.7877Z" fill="#2D7D5F"/>
<path d="M65.1195 19.8472C64.5306 25.2322 64.1731 30.6428 64.0471 36.0586C63.9211 41.4744 64.0291 46.8954 64.366 52.3009C64.7055 57.7321 65.2764 63.1479 66.0711 68.5303C66.8607 73.8896 67.8791 79.2155 69.1213 84.4874C70.3635 89.7593 71.832 94.9799 73.5242 100.126C73.7325 100.758 73.9434 101.387 74.1569 102.017C74.3035 102.446 74.7355 102.728 75.1908 102.603C75.61 102.487 75.9263 102.001 75.7771 101.57C74.0412 96.4649 72.5212 91.288 71.2276 86.052C69.934 80.8186 68.8615 75.5287 68.0154 70.2029C67.1744 64.9027 66.5623 59.5639 66.174 54.2098C65.7831 48.8068 65.621 43.3885 65.693 37.9701C65.7625 32.58 66.0634 27.1925 66.5932 21.8255C66.6575 21.1652 66.7269 20.5023 66.7989 19.8421C66.8478 19.3899 66.3772 19.002 65.9579 19.002C65.4616 19.002 65.1658 19.3899 65.117 19.8421L65.1195 19.8472Z" fill="#2D7D5F"/>
<path d="M65.7638 32.379C65.7921 32.379 65.8204 32.379 65.8487 32.3816C65.9979 28.8567 66.2448 25.3369 66.592 21.8274C66.6562 21.1671 66.7257 20.5043 66.7977 19.844C66.8466 19.3918 66.3759 19.0039 65.9567 19.0039C65.4604 19.0039 65.1646 19.3918 65.1157 19.844C64.6682 23.9495 64.3519 28.0705 64.1719 32.1966C64.6991 32.2762 65.2289 32.3404 65.7613 32.3764L65.7638 32.379Z" fill="#2D7D5F"/>
<path d="M71.8117 80.1014C71.6986 85.1164 71.3462 90.1237 70.7598 95.1053C74.0698 82.5344 77.696 69.3802 86.6871 59.9848C88.7343 57.8447 91.9876 55.851 94.4488 57.4978C96.3417 58.7619 96.5268 61.4467 96.3005 63.7101C94.994 76.746 86.7823 87.9142 78.8636 98.3604C85.3883 89.9798 93.3867 82.745 102.378 77.0877C104.98 75.4512 108.684 74.0484 110.834 76.2476C112.179 77.6221 112.163 79.9112 111.307 81.6352C110.451 83.3565 108.926 84.6385 107.429 85.8486C100.613 91.3569 93.469 96.4592 86.0467 101.12C95.4235 96.3385 106.457 94.8741 116.759 97.045C118.223 97.3533 119.853 97.8749 120.491 99.2262C121.124 100.57 120.445 102.24 119.308 103.196C118.171 104.151 116.708 104.699 115.237 104.914C94.6571 107.941 74.2447 106.952 51.8956 108.003C41.2432 107.969 30.5881 107.553 20.1594 105.472C18.4003 105.12 16.5897 104.696 15.1624 103.612C13.735 102.528 12.7938 100.603 13.3801 98.9102C14.198 96.5569 17.207 95.9583 19.6991 95.8478C33.3065 95.2415 47.0452 97.8466 59.4825 103.391C48.0096 96.6699 37.6735 88.0195 29.045 77.9099C26.9387 75.4409 24.817 72.1164 26.198 69.1798C27.2731 66.8933 30.1869 65.9478 32.6764 66.3974C35.166 66.8445 37.3083 68.3731 39.2963 69.9326C49.2338 77.7377 57.6385 87.4877 63.8905 98.4632C59.1893 84.6796 54.4468 69.799 58.59 55.8356C59.5493 52.6036 61.8202 48.9656 65.1842 49.2457C68.8541 49.5514 70.3072 54.086 70.7393 57.7393C71.6188 65.1565 71.9763 72.6379 71.8066 80.1039L71.8117 80.1014Z" fill="#2D7D5F"/>
<path d="M57.3739 73.4144C57.3559 69.183 58.0168 64.9722 59.6422 61.0799C61.3833 56.9127 64.3435 53.1668 68.0855 50.6927C67.3216 49.8835 66.3701 49.3414 65.1845 49.2437C61.8205 48.9637 59.5496 52.6016 58.5903 55.8336C56.8852 61.586 56.6872 67.4925 57.3713 73.4144H57.3739Z" fill="#29664F"/>
<path d="M39.3019 69.9301C37.3139 68.3681 35.169 66.842 32.6821 66.395C30.1926 65.9479 27.2787 66.8934 26.2037 69.1774C25.8848 69.8582 25.7536 70.5596 25.7665 71.2661C26.9212 71.3355 28.0631 71.5282 29.151 71.8467C34.647 73.455 39.0833 77.427 43.3165 81.2833C50.2219 87.5726 57.1297 93.8645 64.0351 100.154C63.5233 98.8101 63.0141 97.4665 62.5125 96.1151C56.4251 86.0953 48.527 77.1752 39.3019 69.9301Z" fill="#29664F"/>
<path d="M86.6203 81.2659C83.9096 87.2957 80.7309 93.0969 77.5547 98.8904C78.9743 97.372 80.4017 95.8459 81.8676 94.3609C88.7498 85.0605 95.1613 75.0973 96.3006 63.7108C96.5269 61.4473 96.3418 58.7626 94.4489 57.4985C93.8008 57.0669 93.0987 56.8871 92.3786 56.8948C92.1111 59.5564 92.7284 62.7679 92.304 64.8335C91.1441 70.4959 88.9813 76.0094 86.6178 81.2659H86.6203Z" fill="#29664F"/>
<path d="M84.5508 91.7398C87.1509 89.3119 89.9104 87.0845 92.9812 85.2938C98.4206 82.1183 105.058 80.456 111.112 81.9744C111.177 81.8588 111.246 81.7483 111.305 81.6301C112.162 79.9088 112.18 77.6171 110.832 76.2426C108.682 74.046 104.979 75.4462 102.376 77.0827C95.8462 81.1908 89.8461 86.1339 84.5508 91.7372V91.7398Z" fill="#29664F"/>
<path d="M59.035 104.877C57.7851 103.71 56.4709 102.613 55.1078 101.58C43.8613 97.2847 31.73 95.309 19.6991 95.8434C17.207 95.9538 14.198 96.5525 13.3801 98.9058C12.7938 100.599 13.735 102.523 15.1624 103.607C15.273 103.692 15.3887 103.764 15.5044 103.841C29.5003 98.9469 45.3195 99.1807 59.035 104.874V104.877Z" fill="#29664F"/>
<path d="M115.878 23.6667C116.064 23.772 116.246 23.8851 116.424 24.0058C116.714 24.2037 116.992 24.422 117.257 24.6533C117.386 24.7689 117.509 24.8896 117.632 25.013C117.694 25.0746 117.756 25.1388 117.815 25.2031C117.874 25.2647 117.933 25.3315 117.993 25.3958C118.047 25.4574 118.095 25.5165 118.147 25.5782C118.157 25.5884 118.165 25.5987 118.173 25.6064C118.227 25.6707 118.275 25.7349 118.327 25.7991C118.378 25.8659 118.427 25.9301 118.476 25.9944C118.533 26.0689 118.587 26.146 118.638 26.223C118.689 26.295 118.736 26.3695 118.785 26.4414C118.834 26.5133 118.88 26.5904 118.926 26.6649C118.97 26.7369 119.016 26.8139 119.057 26.891C119.317 27.3483 119.536 27.8288 119.71 28.322C119.739 28.4043 119.767 28.4813 119.793 28.5635C119.837 28.7048 119.88 28.8461 119.916 28.99C119.934 29.0465 119.947 29.1031 119.96 29.157C119.973 29.2135 119.988 29.2726 119.999 29.3317C120.019 29.4165 120.037 29.5039 120.053 29.5861C120.065 29.6529 120.078 29.7197 120.089 29.7839C120.101 29.8558 120.114 29.9329 120.122 30.0074C120.258 30.9683 120.225 31.9497 120.001 32.9003C119.17 36.42 115.696 39.1613 112.077 39.0355C108.459 38.907 105.146 35.824 104.881 32.2169C104.444 36.0861 100.998 39.4208 97.1043 39.6521C96.8599 39.6649 96.6156 39.67 96.3713 39.6572C96.3276 39.6572 96.2787 39.6546 96.235 39.6521C96.1707 39.6495 96.1038 39.6443 96.0395 39.6392C95.9701 39.6341 95.9032 39.6264 95.8312 39.6161C95.7026 39.6058 95.574 39.5853 95.4454 39.5621C95.322 39.5416 95.1985 39.521 95.0751 39.4928C95.0262 39.4851 94.9825 39.4722 94.9336 39.4645C94.9028 39.4568 94.8693 39.4465 94.8385 39.4388C94.8076 39.4311 94.7793 39.426 94.751 39.4157C94.6842 39.3977 94.6199 39.3823 94.553 39.3617C94.4501 39.3309 94.3421 39.2975 94.2393 39.2641C94.1518 39.2359 94.0644 39.205 93.9821 39.1742C93.8509 39.1254 93.7223 39.074 93.5912 39.02C93.5191 38.9892 93.4471 38.9584 93.3777 38.925C93.3494 38.9121 93.3185 38.8967 93.2903 38.8864C93.2723 38.8787 93.2568 38.8685 93.2414 38.8633C92.835 38.6681 92.4441 38.4394 92.0738 38.1851C91.9863 38.126 91.8989 38.0643 91.8166 38.0001C91.76 37.959 91.7035 37.9153 91.652 37.8742C91.5954 37.8331 91.5388 37.7868 91.4848 37.7406C91.3563 37.6378 91.2328 37.5299 91.1119 37.4194C90.7956 37.1291 90.4998 36.8131 90.2349 36.4817C90.1912 36.4278 90.1475 36.3764 90.1089 36.3198C89.9135 36.0655 89.7334 35.7983 89.5714 35.5234C89.5714 35.5208 89.5688 35.5208 89.5688 35.5208C89.1291 34.7783 88.8153 33.9639 88.6558 33.1058C88.0155 29.6554 90.0729 25.9199 93.2465 24.4991C90.3584 25.2339 86.997 23.9545 85.4565 21.3776C84.3532 19.5252 84.2863 17.1719 85.0785 15.1782C85.0785 15.1756 85.0785 15.173 85.081 15.1679C85.1505 14.9932 85.2276 14.8211 85.3099 14.6515C85.3176 14.6387 85.3228 14.6258 85.3279 14.6104C85.4076 14.4485 85.4951 14.2918 85.5877 14.1377C85.598 14.1223 85.6057 14.1068 85.6134 14.0914C85.7137 13.9244 85.8217 13.7626 85.9374 13.6059C85.9477 13.5956 85.958 13.5827 85.9632 13.5725C86.0609 13.4414 86.1663 13.313 86.2718 13.1897C86.3927 13.0483 86.5187 12.9173 86.6473 12.7914C86.709 12.7323 86.7681 12.6733 86.8324 12.6167C86.9636 12.4985 87.1025 12.3829 87.2439 12.2776C90.0703 10.158 93.6117 10.8723 96.2761 12.7657C96.397 9.07899 98.8711 5.37168 102.906 5.27405C102.96 5.27148 103.009 5.27148 103.063 5.27148C103.13 5.27148 103.199 5.27405 103.269 5.27662C103.318 5.27919 103.361 5.28176 103.41 5.28433C107.052 5.50785 110.205 9.11752 109.804 12.7709C109.902 12.6527 110.01 12.5371 110.115 12.4343C112.008 10.4972 115.138 9.86515 117.62 10.9673C119.068 11.607 120.225 12.8068 120.904 14.2302C121.459 15.3837 121.701 16.6889 121.526 17.9632C121.14 20.8047 118.723 23.2402 115.884 23.659L115.878 23.6667Z" fill="#FF99AA"/>
<path d="M119.999 32.9045C120.781 29.5928 119.23 25.9138 116.424 24.0049C115.624 23.8122 114.819 23.6324 114.019 23.4551C116.182 25.6466 117.607 28.763 117.1 31.7972C116.591 34.8313 113.754 37.511 110.689 37.2078C107.466 36.8892 105.308 33.724 104.246 30.6693C104.365 34.428 100.764 37.6009 97.0092 37.8809C94.3474 38.0788 91.755 37.0999 89.5664 35.525C91.0889 38.1019 94.0851 39.8412 97.1044 39.6588C100.996 39.425 104.442 36.0928 104.882 32.2236C105.146 35.8307 108.459 38.9137 112.077 39.0396C115.696 39.1681 119.168 36.4242 120.001 32.9045H119.999Z" fill="#F96B8A"/>
<path d="M102.906 5.27995C98.8708 5.37758 96.3967 9.08489 96.2759 12.7742C93.6115 10.8782 90.0675 10.1665 87.2411 12.2861C86.0966 13.1442 85.2942 14.3851 84.875 15.7467C86.2869 14.8013 87.7606 13.9612 89.3654 13.4114C91.9655 12.5199 95.0105 12.4942 97.3046 14.01C97.428 11.2635 98.7474 8.59161 100.854 6.82402C101.638 6.16374 102.497 5.66019 103.405 5.2928C103.238 5.28252 103.071 5.27738 102.903 5.27995H102.906Z" fill="#F96B8A"/>
<path d="M120.896 14.2378C119.932 13.372 118.81 12.6886 117.579 12.2801C114.84 11.3706 111.98 11.9975 109.75 13.7574C109.822 13.2975 109.94 12.8581 110.105 12.4445C111.998 10.5074 115.128 9.87535 117.609 10.9775C119.057 11.6172 120.215 12.817 120.894 14.2404L120.896 14.2378Z" fill="#F96B8A"/>
<path d="M105.186 26.2438C107.193 25.4223 108.153 23.1311 107.331 21.1262C106.509 19.1212 104.215 18.1619 102.208 18.9833C100.201 19.8048 99.2408 22.096 100.063 24.1009C100.885 26.1058 103.179 27.0652 105.186 26.2438Z" fill="#FFC918"/>
<path d="M107.57 22.0062C107.277 20.1282 105.657 18.6895 103.695 18.6895C101.879 18.6895 100.356 19.9227 99.9062 21.5952C100.909 20.6703 102.252 20.0999 103.623 20.123C105.127 20.1462 106.578 20.881 107.57 22.0062Z" fill="#FFC918"/>
<path d="M54.4776 10.9935C54.367 10.8625 54.2615 10.7263 54.1612 10.585C53.9966 10.3538 53.8475 10.1123 53.7112 9.86562C53.6469 9.7423 53.5851 9.61641 53.526 9.49052C53.4977 9.42629 53.4668 9.36207 53.4411 9.29527C53.4128 9.23104 53.3871 9.16424 53.3614 9.10001C53.3383 9.03835 53.3177 8.97926 53.2945 8.92017C53.2894 8.90732 53.2868 8.89962 53.2842 8.89191C53.2611 8.82768 53.2405 8.76602 53.2225 8.70179C53.2019 8.63756 53.1839 8.57333 53.1659 8.51167C53.1454 8.43974 53.1248 8.3678 53.1068 8.29329C53.0888 8.22393 53.0734 8.15713 53.0579 8.08776C53.0425 8.01839 53.0271 7.94902 53.0142 7.87966C53.0013 7.81286 52.9885 7.74349 52.9782 7.67156C52.9088 7.25278 52.8779 6.82887 52.883 6.40753C52.883 6.33816 52.883 6.27136 52.8882 6.20199C52.8933 6.08381 52.901 5.96306 52.9139 5.84488C52.9165 5.79863 52.9216 5.75239 52.9268 5.70614C52.9319 5.6599 52.937 5.61108 52.9448 5.56484C52.9525 5.49547 52.9628 5.42354 52.9756 5.35674C52.9833 5.30278 52.9936 5.24883 53.0039 5.19745C53.0142 5.13836 53.0271 5.07927 53.0399 5.01761C53.2045 4.252 53.5003 3.51978 53.9349 2.86208C55.5423 0.431645 58.9319 -0.678234 61.6323 0.421369C64.3328 1.52354 65.9787 4.77354 65.1763 7.57393C66.5831 4.77097 70.1168 3.20634 73.1232 4.11069C73.311 4.16721 73.4961 4.23401 73.6787 4.30852C73.7122 4.32136 73.7482 4.33678 73.7816 4.35219C73.8305 4.37275 73.8793 4.39587 73.9256 4.41642C73.9771 4.43954 74.0259 4.46524 74.0773 4.49093C74.1725 4.5346 74.2651 4.58599 74.3551 4.63737C74.4426 4.68618 74.53 4.73757 74.6149 4.79409C74.6483 4.81464 74.6792 4.8352 74.7126 4.85318C74.7332 4.86859 74.7563 4.88401 74.7769 4.89943C74.7975 4.91484 74.818 4.92512 74.836 4.94053C74.8823 4.97136 74.9261 5.00219 74.9723 5.03559C75.0418 5.08697 75.1138 5.1435 75.1832 5.19745C75.2424 5.24369 75.299 5.28994 75.353 5.33618C75.4404 5.40812 75.5227 5.48519 75.605 5.5597C75.6513 5.60338 75.695 5.64705 75.7387 5.69073C75.7567 5.70871 75.7747 5.72927 75.7928 5.74468C75.803 5.75496 75.8133 5.7678 75.8236 5.77551C76.0782 6.03757 76.3097 6.3176 76.518 6.61306C76.5669 6.68243 76.6157 6.75179 76.662 6.82373C76.6929 6.86997 76.7238 6.91879 76.752 6.96503C76.7829 7.01128 76.8138 7.06266 76.842 7.11405C76.9115 7.22709 76.9732 7.3427 77.0349 7.46088C77.1944 7.76918 77.3281 8.08776 77.4387 8.41404C77.4567 8.468 77.4747 8.51938 77.4902 8.57076C77.5673 8.8174 77.629 9.06918 77.6753 9.32096V9.32353C77.8013 10.0069 77.8116 10.7109 77.6959 11.402C77.2201 14.1895 74.6252 16.4427 71.8322 16.6354C74.2214 16.882 76.4048 18.7806 76.8549 21.1571C77.1738 22.863 76.5694 24.6614 75.4173 25.9486C75.4173 25.9486 75.4147 25.9537 75.4121 25.9537C75.3092 26.0668 75.2038 26.1773 75.0932 26.28C75.0855 26.2877 75.0752 26.2954 75.0675 26.3057C74.9621 26.4059 74.8515 26.501 74.7383 26.5909C74.728 26.6012 74.7152 26.6089 74.7049 26.6192C74.5814 26.7168 74.4554 26.8093 74.3268 26.8966C74.314 26.9018 74.3062 26.9069 74.2985 26.9146C74.1879 26.9865 74.0722 27.0559 73.959 27.1201C73.8279 27.1921 73.6967 27.2563 73.5656 27.3154C73.5038 27.3437 73.4421 27.3719 73.3778 27.395C73.2467 27.4464 73.1104 27.4952 72.9715 27.5363C70.2454 28.3559 67.7661 26.8324 66.277 24.6614C65.1609 27.4156 62.2599 29.53 59.1814 28.4844C59.1403 28.4715 59.1017 28.4587 59.0631 28.4433C59.0117 28.4253 58.9602 28.4022 58.9088 28.3816C58.8728 28.3662 58.8394 28.3508 58.8059 28.3354C56.1158 27.1561 54.7347 23.5516 56.0541 20.9002C55.9461 20.9618 55.8355 21.0184 55.7249 21.0672C53.7549 22.0049 51.2139 21.6144 49.6426 20.0935C48.727 19.2097 48.1843 17.979 48.0686 16.715C47.9709 15.6874 48.1509 14.634 48.637 13.7219C49.7197 11.682 52.2247 10.5105 54.4879 10.9832L54.4776 10.9935Z" fill="#FF99AA"/>
<path d="M53.9328 2.86469C52.4206 5.15125 52.5698 8.36271 54.1617 10.585C54.7121 10.9524 55.2702 11.3121 55.8283 11.6692C54.8021 9.41093 54.5912 6.66192 55.8205 4.50639C57.0499 2.35086 59.9406 1.11509 62.1729 2.19414C64.521 3.32971 65.272 6.32022 65.2257 8.92535C66.1824 6.05303 69.7881 4.65026 72.7019 5.48267C74.7697 6.07101 76.4568 7.5303 77.6732 9.32871C77.2386 6.95737 75.4563 4.81212 73.1237 4.11074C70.1173 3.20896 66.5836 4.77101 65.1768 7.57397C65.9792 4.77358 64.3333 1.52359 61.6328 0.421415C58.9324 -0.678188 55.5428 0.431692 53.9354 2.85955L53.9328 2.86469Z" fill="#F96B8A"/>
<path d="M59.1749 28.4976C62.2534 29.5433 65.1544 27.4263 66.2706 24.6721C67.7596 26.8457 70.2389 28.3666 72.965 27.547C74.0683 27.2156 75.0199 26.5014 75.7168 25.5868C74.3846 25.9105 73.0396 26.1366 71.6739 26.1057C69.4596 26.0569 67.1501 25.2322 65.8359 23.4492C64.9795 25.4917 63.2384 27.1462 61.1527 27.899C60.376 28.1791 59.5864 28.3229 58.7969 28.3486C58.9203 28.4026 59.0438 28.454 59.1724 28.4976H59.1749Z" fill="#F96B8A"/>
<path d="M48.0625 16.7285C48.5511 17.6508 49.2095 18.4781 50.0274 19.1307C51.8456 20.5797 54.1808 20.8983 56.3566 20.1866C56.174 20.5129 55.9631 20.8135 55.7214 21.0807C53.7513 22.0184 51.2104 21.6279 49.639 20.107C48.7235 19.2232 48.1808 17.9925 48.0651 16.7285H48.0625Z" fill="#F96B8A"/>
<path d="M60.425 14.0816C61.0268 12.445 62.8451 11.6049 64.4834 12.2061C66.1216 12.8073 66.9626 14.6237 66.3608 16.2602C65.759 17.8968 63.9407 18.7369 62.3025 18.1357C60.6642 17.5345 59.8232 15.7181 60.425 14.0816Z" fill="#FFC918"/>
<path d="M60.2958 14.5553C59.9949 16.0557 60.8205 17.5921 62.3018 18.1367C63.6752 18.6403 65.1694 18.1316 65.9744 16.9909C64.9585 17.4122 63.7858 17.4687 62.7545 17.0731C61.6229 16.6363 60.7305 15.6806 60.2933 14.5527L60.2958 14.5553Z" fill="#FFC918"/>
<path d="M9.7924 29.4828C9.63038 29.3466 9.4735 29.2053 9.32433 29.0563C9.07487 28.8123 8.84597 28.5502 8.62994 28.2804C8.5245 28.1468 8.42677 28.0081 8.32904 27.8668C8.28018 27.7949 8.23131 27.7229 8.18502 27.6484C8.13873 27.5791 8.09243 27.502 8.04871 27.43C8.00756 27.3607 7.96899 27.2939 7.93041 27.2271C7.92269 27.2142 7.91755 27.204 7.90983 27.1962C7.86869 27.1243 7.83268 27.0524 7.7941 26.9804C7.7581 26.9059 7.71952 26.834 7.68351 26.7646C7.64237 26.6824 7.60379 26.5976 7.56521 26.5128C7.52921 26.4332 7.49577 26.3536 7.46234 26.2739C7.42891 26.1943 7.39547 26.1121 7.36461 26.0324C7.33375 25.9528 7.30289 25.8731 7.27717 25.7883C7.10486 25.2976 6.97627 24.7915 6.89397 24.2828C6.88111 24.198 6.86825 24.1184 6.85796 24.0336C6.83996 23.8897 6.82453 23.7433 6.81424 23.5968C6.80653 23.5403 6.80395 23.4812 6.80138 23.4247C6.79881 23.3682 6.79367 23.3091 6.79367 23.25C6.78852 23.1652 6.78595 23.0779 6.78595 22.9931C6.78595 22.9263 6.78595 22.8569 6.78595 22.7927C6.78595 22.7182 6.78595 22.6437 6.79367 22.5692C6.82967 21.6109 7.03542 20.6629 7.42376 19.7765C8.85369 16.5034 12.714 14.4506 16.2091 15.2111C19.7016 15.9741 22.3763 19.5555 21.9982 23.1087C23.1067 19.4245 27.0467 16.7937 30.871 17.2536C31.1102 17.2818 31.3493 17.3229 31.5834 17.3769C31.6271 17.3846 31.6734 17.3949 31.7171 17.4077C31.7788 17.4206 31.8431 17.4386 31.9048 17.4565C31.9717 17.4745 32.036 17.4951 32.1029 17.5156C32.2263 17.549 32.3472 17.5901 32.4706 17.6364C32.5864 17.6775 32.7021 17.7212 32.8178 17.77C32.8616 17.7854 32.9053 17.8059 32.949 17.8214C32.9773 17.8342 33.0082 17.8496 33.0364 17.8625C33.0647 17.8753 33.0905 17.8856 33.1162 17.8984C33.1779 17.9267 33.237 17.955 33.3013 17.9858C33.3965 18.0346 33.4942 18.086 33.5894 18.1374C33.6691 18.181 33.7488 18.2247 33.8234 18.271C33.9443 18.3403 34.06 18.4148 34.1758 18.4893C34.2401 18.533 34.3044 18.5741 34.3661 18.6204C34.3918 18.6384 34.4175 18.6589 34.4432 18.6743C34.4587 18.6846 34.4741 18.6974 34.4844 18.7052C34.8444 18.9672 35.1839 19.2575 35.4977 19.571C35.5723 19.6429 35.6443 19.72 35.7163 19.7971C35.7626 19.8484 35.8114 19.8998 35.8552 19.9486C35.9014 20 35.9477 20.054 35.994 20.1079C36.1021 20.2312 36.2024 20.3571 36.3001 20.4856C36.5573 20.8247 36.7862 21.1818 36.9868 21.5518C37.0202 21.6109 37.0536 21.67 37.0819 21.7316C37.2285 22.0142 37.3545 22.3046 37.4651 22.6C37.4651 22.6026 37.4651 22.6026 37.4651 22.6026C37.7609 23.4016 37.9229 24.2494 37.9255 25.1101C37.9358 28.5785 35.2791 31.8439 31.9409 32.666C34.8779 32.463 37.9178 34.2974 38.9619 37.0747C39.7077 39.0684 39.3554 41.3703 38.2315 43.1662C38.2315 43.1688 38.2289 43.1713 38.2264 43.1739C38.1261 43.3332 38.0232 43.4873 37.91 43.6363C37.9023 43.6492 37.892 43.6595 37.8843 43.6723C37.7763 43.8136 37.6657 43.9523 37.5474 44.0859C37.5346 44.0988 37.5243 44.1142 37.514 44.127C37.3854 44.2709 37.2542 44.4097 37.1153 44.5433C37.1025 44.551 37.0922 44.5612 37.0845 44.5715C36.9662 44.682 36.8427 44.7899 36.7167 44.8901C36.5753 45.0057 36.4287 45.111 36.2821 45.2112C36.2126 45.2575 36.1432 45.3037 36.0712 45.3474C35.922 45.4373 35.7677 45.5247 35.6108 45.6043C32.4887 47.1664 29.171 45.8484 26.9181 43.5361C26.1491 47.0996 23.0887 50.2648 19.1487 49.6482C19.0972 49.6405 19.0484 49.6328 18.9943 49.6225C18.9301 49.6096 18.8606 49.5968 18.7963 49.5814C18.75 49.5711 18.7063 49.5608 18.6626 49.548C15.1623 48.6873 12.7346 44.6229 13.771 41.1417C13.6553 41.2393 13.5318 41.3318 13.4084 41.414C11.2275 42.9606 8.07186 43.0249 5.85496 41.5168C4.56133 40.6407 3.64834 39.2688 3.23942 37.7658C2.90251 36.5454 2.89994 35.2352 3.29343 34.0277C4.17299 31.3352 6.95312 29.3929 9.78469 29.4879L9.7924 29.4828Z" fill="#FF99AA"/>
<path d="M7.42195 19.7747C6.0769 22.8552 6.93331 26.7038 9.3251 29.0546C10.0683 29.3834 10.8167 29.702 11.5651 30.0154C9.85232 27.5028 9.01391 24.2245 10.0452 21.365C11.0765 18.5056 14.3067 16.4014 17.2334 17.2364C20.3093 18.115 21.8473 21.5706 22.3385 24.7281C22.8888 21.0542 26.9497 18.6058 30.6454 18.9963C33.2687 19.2737 35.6142 20.6816 37.4633 22.5982C36.4397 19.8261 33.8345 17.6064 30.8666 17.2518C27.0423 16.7919 23.1049 19.4228 21.9938 23.1069C22.3745 19.5564 19.6998 15.9749 16.2047 15.2119C12.7122 14.4488 8.84931 16.5042 7.41938 19.7773L7.42195 19.7747Z" fill="#F96B8A"/>
<path d="M19.1515 49.6439C23.0915 50.2605 26.1494 47.0927 26.9183 43.5293C29.1738 45.8416 32.4915 47.1595 35.6136 45.5975C36.8764 44.9655 37.8768 43.9018 38.5249 42.6507C36.9844 43.3212 35.4053 43.8761 33.7491 44.1279C31.0641 44.5364 28.0988 44.0226 26.1365 42.1445C25.5321 44.7933 23.7782 47.157 21.4172 48.5032C20.5377 49.0042 19.6144 49.3433 18.668 49.5412C18.8274 49.5797 18.9894 49.6157 19.154 49.6414L19.1515 49.6439Z" fill="#F96B8A"/>
<path d="M3.25 37.7598C4.0344 38.772 5.00398 39.6327 6.12786 40.2493C8.63023 41.6187 11.5184 41.5107 13.9976 40.1953C13.8459 40.6295 13.653 41.0354 13.4189 41.4105C11.2381 42.9572 8.08244 43.0214 5.86553 41.5133C4.57191 40.6372 3.65892 39.2653 3.25 37.7623V37.7598Z" fill="#F96B8A"/>
<path d="M23.9731 35.5925C25.5977 34.198 25.7831 31.7519 24.3872 30.129C22.9913 28.5061 20.5428 28.3209 18.9182 29.7153C17.2936 31.1098 17.1082 33.5559 18.5041 35.1788C19.8999 36.8017 22.3485 36.9869 23.9731 35.5925Z" fill="#FFC918"/>
<path d="M17.5716 32.5605C17.5228 34.436 18.8447 36.1214 20.7504 36.4682C22.5146 36.7894 24.2146 35.8594 24.945 34.3127C23.8057 35.0347 22.4015 35.3507 21.0744 35.0886C19.6162 34.8009 18.3355 33.8297 17.5716 32.5605Z" fill="#FFC918"/>
</g>
<line x1="130" y1="107.5" y2="107.5" stroke="#29664F"/>
<defs>
<clipPath id="clip0_3319_3550">
<rect width="118.573" height="108" fill="white" transform="translate(3)"/>
</clipPath>
</defs>
</svg>
