<svg width="393" height="843" viewBox="0 0 393 843" fill="none" xmlns="http://www.w3.org/2000/svg">
<path fill-rule="evenodd" clip-rule="evenodd" d="M-1.00052 843H393.999V86.6765C402.637 78.5157 397.201 69.0872 397.201 69.0872C397.201 69.0872 415.658 62.5164 415.977 50.1064C415.995 49.3668 415.957 48.6311 415.867 47.9021L415.999 47.9313C415.326 42.5411 411.82 37.5391 406.741 34.0872C402.91 31.4147 398.191 29.6352 393.182 29.2705C397.074 25.5015 398.017 20.392 396.695 15.6161C395.663 11.7382 393.138 8.06757 389.483 5.49658C381.311 -0.251221 369.218 -1.13873 358.669 1.20935C345.784 3.9632 334.577 11.2027 327.971 20.7786C328.208 19.6895 328.155 18.6176 327.863 17.5915C326.56 12.5564 319.518 8.58459 312.867 9.0625C304.782 9.64343 297.994 14.8388 293.893 20.5653C287.29 14.376 276.676 11.2261 266.664 12.4783C256.653 13.7305 247.603 19.155 243.143 26.6138C238.465 19.7534 227.292 16.8684 217.907 18.8456C208.567 20.9819 201.084 27.4675 197.677 34.909C197.204 35.922 196.804 36.9553 196.482 38H195.509C195.187 36.9553 194.787 35.922 194.314 34.909C190.907 27.4675 183.424 20.9818 174.084 18.8456C164.699 16.8684 153.526 19.7533 148.848 26.6138C144.388 19.155 135.338 13.7305 125.327 12.4783C115.316 11.2261 104.702 14.376 98.098 20.5652C93.997 14.8387 87.2088 9.64343 79.1238 9.06244C72.5027 8.58661 65.4931 12.5216 64.1454 17.5253C63.8376 18.5699 63.7761 19.663 64.0166 20.7739C57.4102 11.2003 46.205 3.96271 33.3221 1.20935C22.7729 -1.13873 10.68 -0.251221 2.50849 5.49658C-1.09864 8.03381 -3.60555 11.642 -4.66207 15.4636C-6.04749 20.2828 -5.1266 25.4614 -1.19375 29.2707C-6.19246 29.6351 -10.9023 31.4085 -14.7288 34.0723C-19.8204 37.5247 -23.3361 42.5338 -24.0098 47.9322C-23.9653 47.9222 -23.9207 47.9124 -23.8762 47.9026C-23.9662 48.6315 -24.004 49.367 -23.9861 50.1064C-23.6667 62.5164 -5.20991 69.0872 -5.20991 69.0872C-5.20991 69.0872 -11.0515 79.2198 -1.00052 87.5685V843Z" fill="#FFF8F8"/>
</svg>
