<svg width="1440" height="996" viewBox="0 0 1440 996" fill="none" xmlns="http://www.w3.org/2000/svg">
<path fill-rule="evenodd" clip-rule="evenodd" d="M0.000305176 995.5H1440V317.299C1473.6 287.249 1453.17 251.813 1453.17 251.813C1453.17 251.813 1520.44 227.864 1521.6 182.632C1521.67 179.937 1521.53 177.256 1521.2 174.6L1521.51 174.667L1521.69 174.707C1519.23 155.039 1506.43 136.789 1487.88 124.206C1473.93 114.489 1456.76 108.019 1438.53 106.691C1452.82 92.8478 1456.2 74.0439 1451.21 56.5229C1447.39 42.5366 1438.23 29.3217 1425.04 20.0394C1395.25 -0.910156 1351.18 -4.14484 1312.73 4.41333C1265.77 14.4493 1224.93 40.8309 1200.85 75.7271C1201.72 71.7017 1201.51 67.7402 1200.4 63.9529C1195.54 45.6816 1169.95 31.2998 1145.79 33.0362C1116.32 35.1537 1091.58 54.0896 1076.63 74.9614C1052.56 52.4027 1013.88 40.9224 977.39 45.4863C940.901 50.0501 907.915 69.8212 891.658 97.0071C874.61 72.002 833.885 61.4872 799.68 68.6935C765.639 76.4798 738.364 100.119 725.944 127.241C724.297 130.769 722.893 134.365 721.748 138H717.938C716.794 134.365 715.389 130.769 713.742 127.241C701.322 100.119 674.048 76.4798 640.006 68.6935C605.802 61.4872 565.076 72.002 548.028 97.0071C531.772 69.8212 498.786 50.0501 462.297 45.4863C425.808 40.9224 387.123 52.4027 363.054 74.9614C348.107 54.0896 323.365 35.1537 293.897 33.0362C269.734 31.2999 244.152 45.6801 239.286 63.9499C238.181 67.738 237.965 71.7006 238.838 75.727C214.76 40.8309 173.918 14.4493 126.96 4.41333C88.5105 -4.14484 44.4344 -0.910156 14.6511 20.0394C1.45362 29.3225 -7.70309 42.5391 -11.5279 56.5269C-16.5107 74.0467 -13.1309 92.8488 1.16036 106.691C-17.0697 108.019 -34.2459 114.489 -48.1976 124.207C-66.7417 136.79 -79.5459 155.039 -82 174.707C-81.8385 174.671 -81.6768 174.635 -81.5151 174.6C-81.8435 177.256 -81.9811 179.937 -81.916 182.632C-80.7516 227.864 -13.4807 251.813 -13.4807 251.813C-13.4807 251.813 -34.037 287.469 0.000305176 317.578V995.5Z" fill="#FFF8F8"/>
</svg>
