<svg width="1440" height="178" viewBox="0 0 1440 178" fill="none" xmlns="http://www.w3.org/2000/svg">
<path d="M-35 81.5C-31.8333 77.5 -11.7 67.7 43.5 60.5C98.7 53.3 254.833 68.3874 326 76.8311C370.553 78.8349 459.773 73.124 460.23 34.2499C460.801 -14.3428 387.117 -11.3371 401.397 54.2881C415.677 119.913 805.8 18.2192 866.346 90.8577C910.68 144.046 781.81 145.629 790.949 108.892C800.088 72.1557 981.836 46.9389 1103.5 79C1150.17 96.5 1244.3 137.5 1247.5 161.5C1250.7 185.5 1232.17 177.167 1222.5 170C1195 135 1200 99.374 1247.5 76.8311C1285.5 58.7967 1392.67 54.2881 1441.5 54.2881" stroke="#CFCFD7" stroke-dasharray="5 5"/>
</svg>
