<svg width="315" height="53" viewBox="0 0 315 53" fill="none" xmlns="http://www.w3.org/2000/svg">
<path fill-rule="evenodd" clip-rule="evenodd" d="M26.3693 27.1535C26.3693 27.1535 34.67 20.605 40.0146 12.5805C45.3523 4.54897 47.63 4.15491 47.9485 5.74546C48.2739 7.34318 46.9516 10.4526 46.9516 10.4526C46.9516 10.4526 50.42 17.6173 44.5769 24.216C44.5769 24.216 45.8093 31.6744 35.5562 35.9588C35.5562 35.9588 43.1369 39.3405 42.4169 41.6619C41.6969 43.9832 39.26 43.8901 39.26 43.8901C39.26 43.8901 38.9762 49.5 34.7046 47.3005C34.7046 47.3005 32.6623 49.9872 31.3746 48.6045C30.087 47.2145 28.467 40.143 28.467 40.143C28.467 40.143 19.8616 43.2166 15.7562 40.1143C15.7562 40.1143 10.9724 39.534 8.9439 36.5607C8.9439 36.5607 0.705448 33.8166 0.0339088 30.0695C-0.630707 26.3224 8.57006 32.2045 19.2177 29.7901C19.2177 29.7901 18.2485 28.658 17.9024 26.5015C17.9024 26.5015 17.6324 26.0573 16.6631 25.8996C16.6631 25.8996 19.6954 20.2682 26.3693 27.1463V27.1535Z" fill="#5A97D2"/>
<path fill-rule="evenodd" clip-rule="evenodd" d="M287.959 26.6833C287.959 26.6833 298.334 18.7915 305.015 9.12339C311.685 -0.532795 314.529 -1.02156 314.936 0.897754C315.342 2.82899 313.693 6.57225 313.693 6.57225C313.693 6.57225 318.031 15.2032 310.716 23.1547C310.716 23.1547 312.258 32.1313 299.445 37.2932C299.445 37.2932 308.912 41.3703 308.015 44.1598C307.119 46.9613 304.071 46.8421 304.071 46.8421C304.071 46.8421 303.712 53.6015 298.369 50.9549C298.369 50.9549 295.824 54.1975 294.21 52.5166C292.596 50.8476 290.576 42.3359 290.576 42.3359C290.576 42.3359 279.807 46.0315 274.692 42.3001C274.692 42.3001 268.715 41.5968 266.181 38.0204C266.181 38.0204 255.878 34.7063 255.042 30.2001C254.217 25.682 265.715 32.7751 279.03 29.8663C279.03 29.8663 277.811 28.4954 277.369 25.9085C277.369 25.9085 277.046 25.3601 275.827 25.1813C275.827 25.1813 279.616 18.3981 287.959 26.6833Z" fill="#5A97D2"/>
<path fill-rule="evenodd" clip-rule="evenodd" d="M106.381 40.5865C106.381 40.5865 111.222 36.8639 114.34 32.3035C117.453 27.7487 118.78 27.5181 118.97 28.4235C119.16 29.3344 118.39 31.1001 118.39 31.1001C118.39 31.1001 120.415 35.1713 117.001 38.922C117.001 38.922 117.721 43.1563 111.741 45.5911C111.741 45.5911 116.159 47.5143 115.74 48.8301C115.322 50.1516 113.9 50.0953 113.9 50.0953C113.9 50.0953 113.732 53.2837 111.239 52.0354C111.239 52.0354 110.051 53.5649 109.298 52.772C108.545 51.9847 107.602 47.9698 107.602 47.9698C107.602 47.9698 102.577 49.713 100.189 47.9529C100.189 47.9529 97.4005 47.6211 96.218 45.9342C96.218 45.9342 91.41 44.3709 91.0195 42.2453C90.6346 40.1141 96.0005 43.4599 102.214 42.0879C102.214 42.0879 101.645 41.4412 101.439 40.221C101.439 40.221 101.288 39.9623 100.719 39.878C100.719 39.878 102.487 36.6784 106.381 40.5865Z" fill="#002C57"/>
</svg>
