<svg width="176" height="134" viewBox="0 0 176 134" fill="none" xmlns="http://www.w3.org/2000/svg">
<path d="M18.0595 45.4766H0V51.5312H18.0595V55.4685H0V61.5231H18.0595V65.4604H0V71.5151H18.0595V75.4523H0V81.507H18.0595V85.4443H0V91.4989H18.0595V95.4362H0V101.491H18.0595V129.601H27.7284V101.491H148.039V129.601H157.708V101.491H175.768V95.4362H157.708V91.4989H175.768V85.4443H157.708V81.507H175.768V75.4523H157.708V71.5151H175.768V65.4604H157.708V61.5231H175.768V55.4685H157.708V51.5312H175.768V45.4766H18.0595ZM24.8272 91.4969H150.94V95.4342H24.8272V91.4969ZM24.8272 81.505H150.94V85.4423H24.8272V81.505ZM24.8272 71.5131H150.94V75.4504H24.8272V71.5131ZM24.8272 61.5231H150.94V65.4604H24.8272V61.5231ZM24.8272 51.5312H150.94V55.4685H24.8272V51.5312Z" fill="#002C57"/>
<path d="M49.1002 94.9291C39.9611 91.8762 40.0104 83.7889 40.1837 81.3682C40.359 78.9475 43.4198 73.277 43.4198 73.277C43.4198 73.277 40.2487 69.8892 38.2003 67.9275C36.1519 65.9657 37.1603 63.7972 37.1603 63.7972C37.1603 63.7972 38.3579 59.8953 39.3781 57.6224C40.3964 55.3494 40.8632 51.877 40.8632 51.877C39.3053 50.8902 38.7203 50.3525 38.7203 50.3525C38.7203 50.3525 39.7977 47.2661 43.6187 38.8676C46.8036 31.8675 54.0538 30.9477 54.0538 30.9477C62.7832 28.2296 67.7959 31.0265 67.7959 31.0265C67.7959 31.0265 82.1072 36.6498 87.3701 48.5089C87.3701 48.5089 81.7645 57.39 79.4187 59.401L75.9226 56.0487C75.9226 56.0487 73.5531 65.7688 75.3967 71.6343C75.3967 71.6343 75.7315 72.9756 83.2733 73.8127C90.815 74.6498 85.6368 94.09 85.6368 94.09C85.6368 94.09 64.3057 100.009 49.1002 94.9271V94.9291Z" fill="#002C57"/>
<path d="M63.3228 2.99416C63.3228 2.99416 72.9228 2.98233 74.7211 8.57213C76.5174 14.16 75.7492 14.3353 75.7492 14.3353C75.7492 14.3353 75.05 14.7981 75.4518 15.6963C75.8556 16.5944 76.7143 18.4853 76.7143 18.4853C76.7143 18.4853 77.5692 20.1279 76.8699 20.7425C75.8812 21.6091 75.9107 21.6682 75.9383 22.0759C75.9659 22.4836 76.1707 23.2143 75.6054 23.6299C75.6054 23.6299 75.9836 24.2937 75.3415 24.7684C75.3415 24.7684 74.8176 24.9496 75.1091 26.3441C75.3986 27.7386 73.6181 28.0537 73.0331 28.0458C72.4481 28.038 69.0229 27.1516 68.6881 27.9533C68.3533 28.7569 67.8018 31.3765 67.6757 31.6778C67.5497 31.9792 67.5654 32.9088 67.6954 33.3816C67.8254 33.8562 54.8869 32.1151 54.8869 32.1151C54.8869 32.1151 58.1053 26.4367 55.1233 16.3561C52.1413 6.27752 60.5082 3.20294 63.3209 2.99219L63.3228 2.99416Z" fill="#002C57"/>
<path d="M75.01 9.49613C75.01 9.49613 76.4715 7.32362 74.7874 4.11707C73.3929 1.46398 59.6312 -3.24934 57.7088 3.37846C57.7088 3.37846 52.2785 4.59569 52.2116 11.0443C52.1525 16.8586 56.3123 22.5961 56.3123 22.5961L75.01 9.49416V9.49613Z" fill="#002C57"/>
<path d="M79.082 56.552L84.7802 63.3728C84.7802 63.3728 99.7336 74.6647 109.182 75.5786L112.987 76.9731C112.987 76.9731 113.659 76.8844 113.659 76.3251C113.659 75.7657 111.48 72.8053 110.084 72.1908C108.688 71.5763 104.61 68.7833 104.61 68.7833C104.61 68.7833 91.7073 60.8517 89.9189 58.7284C88.1305 56.6052 83.9982 50.3496 83.9982 50.3496L79.082 56.55V56.552Z" fill="#002C57"/>
<path d="M79.418 59.4018C79.418 59.4018 82.9928 59.8902 85.1161 57.503C87.2394 55.1159 80.6293 49.6816 80.6293 49.6816L79.418 59.4018Z" fill="#002C57"/>
<path d="M86.4636 90.0898L95.6598 91.3642C95.6598 91.3642 96.0754 105.567 95.0689 112.016C94.0604 118.466 95.9808 121.003 98.175 122.388C100.369 123.77 104.391 124.671 104.391 124.671C104.391 124.671 108.726 124.135 109.364 124.85C110.005 125.563 111.444 127.467 108.864 128.87C106.284 130.272 92.0987 135.066 87.7891 132.139C87.7891 132.139 86.631 131.07 87.0229 129.874C87.4169 128.679 88.8212 122.228 88.4056 117.854C87.99 113.479 87.0879 106.877 86.3218 104.614C85.5556 102.349 84.9607 93.1211 86.4616 90.0898H86.4636Z" fill="#002C57"/>
<path d="M82.3587 88.9707L90.0757 94.1311C90.0757 94.1311 84.2534 107.091 80.5308 112.455C76.8102 117.818 77.4287 120.94 78.7995 123.142C80.1704 125.344 83.3967 127.908 83.3967 127.908C83.3967 127.908 87.5309 129.319 87.7948 130.24C88.0588 131.162 88.5236 133.502 85.5889 133.64C82.6541 133.776 67.8011 131.899 65.2012 127.384C65.2012 127.384 64.6261 125.917 65.5006 125.013C66.3751 124.109 70.4562 118.917 71.9905 114.8C73.5249 110.682 75.595 104.35 75.8943 101.978C76.1937 99.6067 79.6859 91.0428 82.3567 88.9707H82.3587Z" fill="#002C57"/>
<path d="M121.468 93.6548C118.425 95.6993 102.918 99.4573 90.025 96.2685C90.025 96.2685 74.9869 92.2465 84.451 72.8063C84.451 72.8063 88.5793 66.4385 84.0374 53.4941C80.4999 43.4194 84.9749 38.2019 84.9749 38.2019C85.3019 38.3674 85.6938 38.4501 86.1508 38.4126C87.433 38.3023 88.0574 37.3392 88.0928 36.3406C88.3962 36.1554 88.6305 35.9014 88.7901 35.6059C88.8413 35.5665 88.8846 35.5173 88.9319 35.474C89.0028 35.474 89.0757 35.472 89.1505 35.4661C90.5805 35.344 91.193 34.1602 91.0827 33.0494L103.141 32.2871C103.141 32.2871 105.225 33.7643 106.668 33.9692C106.668 33.9692 115.096 36.1574 115.593 43.8862C115.611 44.1541 115.674 44.3983 115.782 44.6229C115.055 46.3345 115.23 47.4099 115.23 47.4099C115.23 47.4099 116.721 49.7538 115.807 53.5394C114.894 57.323 111.242 59.9032 111.242 59.9032C111.242 59.9032 107.539 69.0502 112.126 75.5795C112.126 75.5795 120.036 78.2129 121.76 79.9934C123.485 81.774 124.509 91.6103 121.468 93.6548Z" fill="#002C57"/>
<path d="M105.184 11.7535C105.184 11.7535 108.199 8.31251 105.328 4.8696C105.328 4.8696 101.52 0.13265 91.1128 6.93968C91.1128 6.93968 89.413 5.32855 87.3449 6.73683C85.3123 8.11951 83.8134 13.794 86.823 20.7074C86.823 20.7074 90.2127 29.8937 87.148 33.4686C87.148 33.4686 84.1482 36.8248 81.6094 35.1763C81.6094 35.1763 82.6651 40.9591 87.6128 39.9093L94.3982 34.9773L105.184 11.7535Z" fill="#002C57"/>
<path d="M105.795 6.33828C105.795 6.33828 108.954 7.62839 109.722 13.5077C109.722 13.5077 109.118 15.1878 110.286 16.5764C111.453 17.963 111.777 18.4751 111.777 18.4751C111.777 18.4751 112.226 18.9872 111.292 20.2419C111.292 20.2419 110.327 20.9076 110.697 22.1288C110.697 22.1288 110.937 22.8398 110.366 23.1077C110.366 23.1077 110.8 23.6139 110.463 24.3761C110.126 25.1364 109.756 25.3747 109.968 26.2236C110.181 27.0725 109.569 27.8939 108.95 27.9254C108.332 27.9549 107.66 28.2642 105.771 27.6339C105.771 27.6339 104.02 27.7205 103.327 30.4012L93.6638 28.3626C93.6638 28.3626 94.2547 24.9749 93.8194 23.5745C93.3841 22.1741 90.3411 19.9838 90.4317 17.1358C90.5223 14.2877 89.959 5.60163 99.6594 5.12695C99.6594 5.12695 103.471 5.21559 105.795 6.34025V6.33828Z" fill="#002C57"/>
<path d="M103.416 28.3236C103.416 28.3236 101.86 35.3532 104.614 40.5766C107.365 45.7981 91.4922 31.7251 91.4922 31.7251L94.1492 19.7734L103.416 28.3236Z" fill="#002C57"/>
<path d="M104.099 28.6991C104.099 28.6991 102.283 32.7624 104.118 34.9881C105.954 37.2138 99.7812 35.1082 99.7812 35.1082L100.217 27.7852L104.097 28.6991H104.099Z" fill="#002C57"/>
<path d="M93.5876 32.4199C93.5876 32.4199 84.9606 32.7449 83.7158 40.458C82.471 48.173 89.6227 40.458 89.6227 40.458L93.5896 32.4199H93.5876Z" fill="#002C57"/>
<path d="M129.73 89.5L138.782 93.1241C138.782 93.1241 126.632 115.621 128.725 120.388C130.819 125.154 131.755 127.823 135.359 129.556C138.964 131.29 136.444 133.108 136.444 133.108C136.444 133.108 132.105 133.393 125.818 130.449C125.818 130.449 116.419 129.58 116.193 126.779C115.966 123.978 121.243 121.424 121.633 117.461C122.025 113.498 127.658 93.9632 129.726 89.5H129.73Z" fill="#002C57"/>
<path d="M118.486 85.8398L128.084 89.6668C128.084 89.6668 117.911 112.136 120.452 116.68C122.995 121.224 124.181 123.791 127.937 125.171C131.691 126.55 129.359 128.602 129.359 128.602C129.359 128.602 125.067 129.302 118.526 126.976C118.526 126.976 109.085 127.013 108.593 124.246C108.099 121.478 113.105 118.429 113.115 114.449C113.125 110.466 116.857 90.4803 118.488 85.8398H118.486Z" fill="#002C57"/>
<path d="M112.113 77.5938C112.113 77.5938 132.012 80.7235 134.006 81.793C136.391 83.0752 137.137 83.7922 138.997 85.6436C141.473 88.1135 138.323 94.0756 136.521 97.5008C134.719 100.926 127.555 95.4819 127.555 95.4819C127.555 95.4819 129.978 91.4383 126.659 91.4383C124.561 91.4383 116.19 91.519 116.19 91.519L112.113 77.5918V77.5938Z" fill="#002C57"/>
<path d="M99.3125 75.1074C99.3125 75.1074 119.212 78.2372 121.205 79.3067C123.59 80.5889 124.337 81.3059 126.196 83.1573C128.672 85.6272 125.522 91.5893 123.72 95.0145C121.918 98.4396 114.754 92.9956 114.754 92.9956C114.754 92.9956 117.177 88.9519 113.858 88.9519C111.761 88.9519 103.39 89.0327 103.39 89.0327L99.3125 75.1055V75.1074Z" fill="#002C57"/>
<path d="M111.887 55.667L115.115 63.9473C115.115 63.9473 125.692 79.4128 134.358 83.291L137.521 85.8259C137.521 85.8259 138.187 85.9559 138.364 85.4261C138.542 84.8963 137.421 81.3962 136.292 80.3681C135.164 79.3399 132.188 75.3948 132.188 75.3948C132.188 75.3948 122.483 63.7661 121.465 61.1839C120.447 58.6017 118.52 51.3555 118.52 51.3555L111.885 55.667H111.887Z" fill="#002C57"/>
<path d="M111.081 40.0392L113.297 38.1562C113.297 38.1562 117.205 41.024 118.924 52.8398L112.948 58.3903L109.576 52.1938L111.081 40.0392Z" fill="#002C57"/>
</svg>
