<svg width="157" height="225" viewBox="0 0 157 225" fill="none" xmlns="http://www.w3.org/2000/svg">
<path d="M33.2965 218.695C33.2965 218.695 33.1902 217.072 32.5343 216.67C31.8784 216.268 28.2838 216.345 22.8004 212.254L22.3454 212.356C22.6783 207.877 21.9732 200.093 21.7013 197.375C21.7407 196.706 21.7703 196.034 21.79 195.362C27.0016 194.62 30.5843 193.2 30.5843 193.2C29.7453 184.728 24.3426 175.262 22.7039 172.558C22.9028 171.654 23.0485 170.758 23.151 169.873C24.7818 170.811 28.3666 172.332 29.7256 168.564C30.7695 165.672 30.0841 158.686 29.7295 155.724C30.4032 154.128 29.375 150.66 29.375 150.66C29.0914 149.793 28.3153 149.929 28.3153 149.929C27.949 149.092 27.0843 149.07 27.0843 149.07C26.7337 148.343 26.2157 148.481 25.9991 148.58C25.9971 148.562 25.9951 148.546 25.9912 148.531C25.9577 148.371 25.8514 148.237 25.7036 148.166C25.6839 148.156 25.6603 148.145 25.6386 148.133C25.5658 148.056 25.4712 147.995 25.355 147.963C25.0635 147.768 24.7326 147.465 24.6006 147.034C24.6164 146.646 25.9025 146.703 26.454 146.746C26.6864 146.764 26.9149 146.646 27.0134 146.435C27.171 146.096 26.9071 145.791 26.9071 145.791C26.781 144.904 27.0489 145.426 27.5748 144.899C28.1007 144.371 28.2188 143.644 27.234 142.49C26.2492 141.336 27.0745 140.12 27.0745 140.12C27.4999 137.924 26.8854 136.086 26.2768 134.911C26.4363 134.588 26.4205 134.192 26.2078 133.873C25.1265 132.261 22.1504 128.822 16.7773 129.541C16.0584 129.638 15.3788 129.758 14.7367 129.902C14.7741 129.116 14.528 128.367 13.9686 127.771C12.5051 126.207 9.45615 126.262 7.1576 127.893C4.85904 129.524 4.18347 132.114 5.64691 133.678C5.76508 133.804 5.89902 133.918 6.03689 134.022C5.18601 134.8 4.45726 135.888 4.32135 137.382C3.94121 141.533 7.9553 142.32 6.72429 150.557C6.72429 150.557 10.831 146.919 10.2263 143.029C11.3372 144.668 12.4461 145.84 12.5977 146.183C13.1079 149.23 11.5597 151.087 11.5597 151.087L10.3819 151.836C7.22853 154.189 5.70401 161.14 6.8661 163.85C7.39592 165.087 8.17198 167.662 8.85741 170.096C5.69419 176.023 0.978899 192.42 0.978899 192.42C3.47442 193.73 6.05265 194.582 8.59938 195.104C6.61202 197.425 5.36916 201.169 5.1269 203.81C4.91812 206.093 3.17106 209.796 2.56441 211.023C2.36942 211.058 2.19216 211.188 2.0858 211.383C1.60128 212.272 0.42347 214.592 0 216.922C0 216.922 10.764 221.356 16.6985 219.865C16.6985 219.865 16.6985 219.855 16.7024 219.839C18.6149 220.097 28.4217 221.263 33.2945 218.693L33.2965 218.695ZM24.9748 162.33C24.2106 161.508 23.409 160.644 22.6724 159.842C21.8353 155.647 20.5156 152.872 20.5156 152.872L20.4211 152.791L20.4546 152.797C20.4546 152.797 20.8721 150.804 21.1262 150.467C21.3468 150.171 22.4281 150.9 23.4897 151.012C23.7202 152.393 24.0806 153.807 24.6302 154.27C24.9886 154.571 25.2998 154.908 25.5638 155.231C25.5224 156.586 25.3944 159.671 25.0379 162.168L24.9768 162.332L24.9748 162.33ZM17.7424 213.381L17.5828 213.416C17.3504 213.467 17.1594 213.66 17.0904 213.918C16.9072 214.608 16.5586 216.067 16.4188 217.698C15.8161 217.156 12.3752 216.339 8.105 211.208C10.248 208.204 12.6785 204.023 14.1262 201.447C14.4315 203.144 15.0341 204.756 15.7865 206.097C16.8777 208.045 17.5297 211.929 17.7424 213.383V213.381Z" fill="#002C57"/>
<path d="M50.5501 82.9614C50.3591 94.7831 55.4348 104.675 62.169 106.201C61.7297 107.241 61.5564 108.155 61.5564 108.155C62.0527 108.582 62.8052 108.702 63.5536 108.685C64.5719 114.542 67.16 133.404 61.4638 148.255C59.9137 152.296 58.9624 155.773 58.4208 158.739C58.3321 158.908 58.2455 159.076 58.1627 159.245C57.7215 160.151 57.3867 161.03 57.1583 161.884C55.8091 161.855 54.6213 161.945 54.6213 161.945C54.6213 161.945 54.1171 162.804 55.5628 163.155C55.5628 163.155 54.8814 163.44 54.9326 164.035C54.9857 164.63 55.6712 164.677 55.6712 164.677C55.6712 164.677 55.2891 165.497 56.2286 165.837C56.2286 165.837 56.3526 166.674 57.1287 166.964C57.1641 167.086 57.2055 167.208 57.2469 167.328C57.2469 167.328 57.2469 167.332 57.2469 167.334C57.3178 167.535 57.3966 167.734 57.4812 167.931C57.6014 169.718 57.9796 171.262 58.6197 172.546C58.6611 172.631 58.7399 172.682 58.8265 172.694C58.8777 172.7 58.9309 172.694 58.9821 172.668C59.1161 172.601 59.1692 172.44 59.1022 172.306C58.6571 171.411 58.3439 170.383 58.1627 169.225C58.1805 169.274 58.1982 169.326 58.2159 169.375C58.7457 171.979 59.6144 173.182 59.701 173.298C59.7463 173.359 59.8133 173.395 59.8822 173.403C59.9492 173.411 60.0201 173.395 60.0792 173.35C60.1974 173.259 60.223 173.092 60.1324 172.971C60.1205 172.956 59.8488 172.574 59.5238 171.778C59.7936 172.144 60.0891 172.499 60.4141 172.837C60.4574 172.885 60.5145 172.91 60.5736 172.918C60.6523 172.928 60.7331 172.904 60.7942 172.845C60.9025 172.743 60.9045 172.572 60.8021 172.463C60.3806 172.024 60.0142 171.555 59.6892 171.065C60.414 171.782 61.2728 172.463 62.2675 173.109C62.3029 173.133 62.3403 173.145 62.3797 173.151C62.4802 173.164 62.5826 173.119 62.6417 173.03C62.7224 172.904 62.687 172.739 62.5629 172.656C60.8907 171.573 59.6222 170.381 58.7536 169.085C58.6926 168.764 58.6374 168.424 58.5882 168.059C59.4017 168.16 60.9084 168.28 62.0232 167.996V168.034C62.0232 168.034 62.4172 168.179 67.8986 170.738C69.9096 171.677 71.5503 172.256 72.671 172.599C74.5048 173.539 76.307 172.804 76.307 172.804V172.802C78.5602 172.286 81.6289 170.844 84.2741 169.442C84.4553 170.076 84.67 170.714 84.928 171.348C85.8045 173.505 86.4505 175.246 86.9232 176.615L88.103 180.505C88.1286 180.616 88.1385 180.671 88.1385 180.671C83.4095 185.11 79.6849 195.766 79.6849 195.766C79.6849 195.766 75.8342 203.79 73.2816 209.664L72.7695 209.315C66.1673 211.101 62.8524 209.707 62.0941 209.839C61.3358 209.971 60.6405 211.442 60.6405 211.442C64.6231 216.089 75.9702 218.69 75.9702 218.69C76.9707 216.543 77.3508 213.971 77.469 212.965C77.5005 212.701 77.3942 212.451 77.1972 212.317L76.7442 212.009C77.8768 210.386 80.7564 206.445 82.9151 205.09C84.5302 204.076 85.6469 200.944 86.2949 198.537C88.2606 196.609 91.7803 193.916 93.8681 192.364C97.1555 196.266 100.963 199.461 100.963 199.461C100.963 199.461 107.106 205.902 111.695 210.367L111.189 210.723C110.523 217.53 108.047 220.138 107.902 220.894C107.756 221.651 108.887 222.821 108.887 222.821C114.642 220.739 121.088 211.046 121.088 211.046C119.434 209.35 117.163 208.084 116.263 207.619C116.026 207.497 115.757 207.507 115.562 207.645L115.115 207.96C113.998 206.325 111.331 202.24 110.827 199.741C110.448 197.869 107.91 195.713 105.883 194.255C104.347 190.865 103.145 186.195 103.145 186.195C103.626 182.459 102.385 180.013 100.886 178.449C101.047 176.722 101.187 174.159 101.016 171.293C102.82 175.904 107.988 182.776 107.988 182.776L108.002 182.764C108.17 183.306 108.331 184.003 108.361 184.736C108.426 186.329 112.629 189.989 112.629 189.989C112.629 189.989 113.629 189.774 112.765 188.413C112.765 188.413 113.494 188.738 113.878 188.281C114.26 187.822 113.765 187.259 113.765 187.259C113.765 187.259 114.644 186.979 114.161 186.014C114.161 186.014 114.691 185.293 114.238 184.466C114.238 184.466 114.839 183.919 114.311 183.139C114.311 183.139 112.753 180.976 111.228 180.027L111.258 180.003C111.258 180.003 111.055 179.595 108.65 173.568C107.334 170.273 106.084 168.167 105.576 167.37C104.293 164.933 100.63 161.479 97.6203 158.883C96.6138 157.236 95.3316 155.759 93.7027 154.575C93.3935 153.61 93.2792 152.062 94.2128 149.86C94.2128 149.86 97.7129 146.019 97.9394 141.664C98.2407 139.96 98.3077 137.512 96.7852 135.113C111.079 126.922 119.41 118.271 124.141 111.747C125.463 109.926 126.564 108.19 127.486 106.571C128.668 107.024 129.991 107.107 129.991 107.107C130.306 106.603 130.381 105.835 130.355 105.096C137.123 106.345 145.821 99.2404 150.379 88.6497C153.367 81.7067 149.75 74.6102 142.809 71.6242C136.493 68.9061 129.601 70.5271 126.16 76.0697C126.334 75.5713 126.499 75.0652 126.653 74.5531C128.835 67.3186 124.441 60.675 117.204 58.4927C111.146 56.6649 105.02 58.5439 101.904 63.4503C99.7416 59.966 95.8102 57.6497 91.154 57.2282C83.628 56.5447 77.0652 61.0591 76.3818 68.5851C76.0962 71.7345 76.1966 74.7736 76.6221 77.5745C74.4653 73.2964 69.8387 70.6197 64.438 70.533C56.8805 70.4109 50.6742 75.4019 50.5521 82.9574L50.5501 82.9614ZM105.272 92.1832C104.565 93.0636 104.148 93.8948 104.148 93.8948C104.421 94.3104 104.886 94.596 105.41 94.791C104.697 97.775 103.255 102.673 100.49 108.513C97.5671 114.688 92.708 122.819 84.9004 130.981C83.4035 131.29 82.0779 131.79 81.1502 132.364C78.2943 134.132 76.4468 133.321 76.4468 133.321C77.4139 134.615 78.2431 134.839 78.2431 134.839C77.473 135.263 77.1086 135.157 77.1086 135.157C77.4001 135.944 78.1741 136.59 78.6449 136.927C76.7659 138.556 74.7608 140.167 72.6119 141.743C66.5711 146.177 62.2635 151.136 59.7641 156.521C61.4264 151.15 64.0283 146.08 67.5283 141.42C80.2817 124.436 85.769 104.749 87.8194 95.2164C88.948 95.2085 89.984 94.9407 89.984 94.9407C90.1278 94.3636 89.9585 93.6112 89.7063 92.9159C93.557 92.3998 97.1653 89.1598 99.7672 84.3697C100.807 87.982 102.684 90.771 105.268 92.1812L105.272 92.1832ZM77.8354 142.586C77.8354 142.586 78.0304 142.946 78.0816 143.455C70.6522 146.687 65.0958 150.354 61.4776 154.404C64.0244 150 67.8592 145.903 72.9349 142.178C75.0543 140.622 77.0357 139.035 78.8931 137.429C78.2175 138.702 77.6325 140.465 77.8354 142.586ZM96.4818 134.67C95.9717 133.963 95.3139 133.266 94.4748 132.596C92.1172 130.717 88.7254 130.39 85.7946 130.823C93.362 122.783 98.1108 114.81 100.99 108.724C103.754 102.882 105.205 97.9699 105.928 94.9525C107.155 95.2696 108.483 95.2026 108.483 95.2026C108.739 94.6649 108.725 93.8948 108.617 93.1641C114.051 93.5403 120.094 88.5807 124.029 81.0213C120.793 90.7946 122.048 100.162 127.145 103.749C126.341 104.543 125.833 105.323 125.833 105.323C126.06 105.768 126.489 106.105 126.989 106.357C126.077 107.954 124.986 109.67 123.678 111.47C118.975 117.944 110.697 126.532 96.4838 134.668L96.4818 134.67ZM58.537 161.965C58.5547 161.782 58.5744 161.597 58.5941 161.408C58.7458 160.793 58.9289 160.163 59.1475 159.515C59.4489 158.623 59.8015 157.742 60.2013 156.872C63.5635 152.083 69.5492 147.786 78.0619 144.053C77.9949 144.451 77.8098 144.885 77.3922 145.286C76.1356 146.502 76.1907 147.349 76.7363 148.01C77.2819 148.672 77.6463 148.103 77.4041 149.107C77.4041 149.107 77.0672 149.428 77.211 149.834C77.2996 150.086 77.5498 150.246 77.8177 150.252C78.4558 150.264 79.937 150.338 79.9134 150.785C79.6258 151.483 78.8793 151.831 78.5228 151.961C78.3475 152.026 78.2096 152.17 78.1545 152.349C78.0934 152.548 78.1013 152.8 78.3947 152.995C78.4735 153.084 78.7335 153.238 78.7158 153.563C78.6882 154.077 79.1117 155.201 80.2226 155.422C81.5718 155.69 83.2696 154.687 83.5237 155.103C83.7777 155.519 84.0378 157.851 84.0378 157.851C84.0378 157.851 83.9058 158.363 83.7679 159.237C82.1607 161.339 76.0174 165.796 74.355 166.984C70.2011 164.983 62.3128 163.765 62.3128 163.765V163.783C61.8499 163.517 61.2905 163.139 60.7961 162.643C60.4121 162.259 59.5238 162.062 58.535 161.963L58.537 161.965ZM58.1076 160.73C58.0997 160.795 58.0899 160.86 58.082 160.925C58.015 161.26 57.952 161.591 57.8949 161.916C57.8358 161.912 57.7767 161.91 57.7156 161.906C57.822 161.52 57.9539 161.126 58.1076 160.73ZM64.0953 108.649C65.1569 108.541 66.0826 108.228 66.0826 108.228C66.183 107.641 65.9566 106.904 65.6532 106.231C72.3874 104.812 77.729 94.9328 77.9161 83.4026C77.9181 83.2273 77.9161 83.0559 77.9122 82.8846C79.6435 87.8874 82.596 91.5115 86.2418 92.6283C85.7257 93.6328 85.4854 94.531 85.4854 94.531C85.9167 94.9623 86.5864 95.1435 87.2798 95.1987C85.2254 104.714 79.7597 124.245 67.1049 141.095C64.2391 144.912 61.9661 148.999 60.3116 153.301C60.7646 151.782 61.3122 150.167 61.972 148.448C67.6957 133.526 65.1313 114.621 64.0992 108.649H64.0953Z" fill="#002C57"/>
<path d="M113.256 224.461H156.338L150.821 212.875H137.451V52.266H143.663L149.339 21.9023H149.607C149.611 21.7723 149.613 21.6442 149.613 21.5142C149.613 21.207 149.601 20.9037 149.582 20.6023L149.621 20.3935H149.566C149.026 13.1729 143.314 7.39792 136.123 6.75976V0H133.468V6.75976C125.907 7.43141 119.978 13.7795 119.978 21.5142C119.978 21.6442 119.978 21.7742 119.984 21.9023H120.382L126.058 52.266H132.141V212.875H118.771L113.254 224.461H113.256ZM136.19 37.6573H143.694L141.459 49.611H136.188V37.6573H136.19ZM136.19 23.0486H146.426L144.191 35.0023H136.19V23.0486ZM133.535 35.0023H125.535L123.299 23.0486H133.535V35.0023ZM133.535 49.611H128.264L126.029 37.6573H133.533V49.611H133.535Z" fill="#002C57"/>
</svg>
