<svg width="1440" height="411" viewBox="0 0 1440 411" fill="none" xmlns="http://www.w3.org/2000/svg">
<path d="M1223.86 399.96C1223.86 399.96 1223.66 396.994 1222.46 396.259C1221.27 395.525 1214.7 395.665 1204.67 388.188L1203.84 388.375C1204.45 380.189 1203.16 365.962 1202.66 360.994C1202.74 359.77 1202.79 358.542 1202.83 357.314C1212.35 355.957 1218.9 353.362 1218.9 353.362C1217.37 337.878 1207.49 320.576 1204.5 315.634C1204.86 313.981 1205.13 312.343 1205.31 310.727C1208.3 312.44 1214.85 315.22 1217.33 308.333C1219.24 303.048 1217.99 290.279 1217.34 284.864C1218.57 281.948 1216.69 275.609 1216.69 275.609C1216.17 274.025 1214.75 274.273 1214.75 274.273C1214.08 272.743 1212.5 272.704 1212.5 272.704C1211.86 271.375 1210.92 271.627 1210.52 271.807C1210.52 271.775 1210.51 271.746 1210.51 271.717C1210.44 271.426 1210.25 271.181 1209.98 271.051C1209.94 271.033 1209.9 271.012 1209.86 270.99C1209.73 270.85 1209.56 270.738 1209.34 270.68C1208.81 270.324 1208.21 269.77 1207.96 268.981C1207.99 268.272 1210.34 268.376 1211.35 268.456C1211.78 268.488 1212.19 268.272 1212.37 267.887C1212.66 267.268 1212.18 266.71 1212.18 266.71C1211.95 265.09 1212.44 266.044 1213.4 265.079C1214.36 264.114 1214.58 262.786 1212.78 260.676C1210.98 258.566 1212.49 256.345 1212.49 256.345C1213.26 252.331 1212.14 248.972 1211.03 246.823C1211.32 246.233 1211.29 245.509 1210.9 244.926C1208.93 241.981 1203.49 235.696 1193.66 237.01C1192.35 237.186 1191.11 237.406 1189.94 237.668C1190 236.232 1189.55 234.864 1188.53 233.773C1185.86 230.915 1180.28 231.016 1176.08 233.996C1171.88 236.977 1170.65 241.711 1173.32 244.57C1173.54 244.8 1173.78 245.009 1174.03 245.2C1172.48 246.622 1171.15 248.609 1170.9 251.341C1170.2 258.926 1177.54 260.366 1175.29 275.422C1175.29 275.422 1182.8 268.772 1181.69 261.662C1183.72 264.658 1185.75 266.8 1186.03 267.426C1186.96 272.995 1184.13 276.39 1184.13 276.39L1181.98 277.758C1176.21 282.06 1173.43 294.764 1175.55 299.718C1176.52 301.979 1177.94 306.684 1179.19 311.134C1173.41 321.966 1164.79 351.936 1164.79 351.936C1169.35 354.33 1174.06 355.889 1178.72 356.843C1175.09 361.084 1172.81 367.927 1172.37 372.755C1171.99 376.927 1168.8 383.695 1167.69 385.938C1167.33 386.003 1167.01 386.24 1166.81 386.597C1165.93 388.22 1163.77 392.461 1163 396.72C1163 396.72 1182.67 404.824 1193.52 402.098C1193.52 402.098 1193.52 402.08 1193.53 402.052C1197.02 402.523 1214.95 404.654 1223.85 399.956L1223.86 399.96ZM1208.65 296.939C1207.25 295.438 1205.79 293.857 1204.44 292.392C1202.91 284.724 1200.5 279.652 1200.5 279.652L1200.32 279.504L1200.39 279.515C1200.39 279.515 1201.15 275.872 1201.61 275.256C1202.02 274.716 1203.99 276.048 1205.93 276.253C1206.35 278.777 1207.01 281.362 1208.02 282.208C1208.67 282.758 1209.24 283.374 1209.72 283.964C1209.65 286.441 1209.41 292.079 1208.76 296.644L1208.65 296.942L1208.65 296.939ZM1195.43 390.247L1195.14 390.312C1194.71 390.406 1194.36 390.758 1194.24 391.23C1193.9 392.49 1193.27 395.158 1193.01 398.138C1191.91 397.148 1185.62 395.654 1177.81 386.276C1181.73 380.786 1186.17 373.144 1188.82 368.435C1189.38 371.538 1190.48 374.483 1191.85 376.934C1193.85 380.495 1195.04 387.594 1195.43 390.251V390.247Z" fill="#002C57"/>
<path d="M1255.39 151.873C1255.05 173.48 1264.32 191.56 1276.63 194.35C1275.83 196.25 1275.51 197.921 1275.51 197.921C1276.42 198.702 1277.79 198.922 1279.16 198.889C1281.02 209.596 1285.75 244.069 1275.34 271.213C1272.51 278.6 1270.77 284.954 1269.78 290.376C1269.62 290.686 1269.46 290.992 1269.31 291.301C1268.5 292.957 1267.89 294.563 1267.47 296.125C1265.01 296.071 1262.84 296.237 1262.84 296.237C1262.84 296.237 1261.91 297.806 1264.56 298.447C1264.56 298.447 1263.31 298.969 1263.4 300.056C1263.5 301.144 1264.75 301.23 1264.75 301.23C1264.75 301.23 1264.06 302.728 1265.77 303.35C1265.77 303.35 1266 304.88 1267.42 305.41C1267.48 305.633 1267.56 305.856 1267.63 306.076C1267.63 306.076 1267.63 306.083 1267.63 306.086C1267.76 306.454 1267.91 306.817 1268.06 307.177C1268.28 310.442 1268.97 313.265 1270.14 315.612C1270.22 315.767 1270.36 315.86 1270.52 315.882C1270.62 315.893 1270.71 315.882 1270.81 315.835C1271.05 315.713 1271.15 315.418 1271.03 315.173C1270.21 313.538 1269.64 311.659 1269.31 309.542C1269.34 309.632 1269.37 309.726 1269.41 309.816C1270.37 314.575 1271.96 316.775 1272.12 316.987C1272.2 317.099 1272.33 317.164 1272.45 317.178C1272.57 317.192 1272.7 317.164 1272.81 317.081C1273.03 316.915 1273.07 316.609 1272.91 316.39C1272.89 316.361 1272.39 315.662 1271.8 314.208C1272.29 314.878 1272.83 315.526 1273.42 316.145C1273.5 316.231 1273.61 316.278 1273.71 316.292C1273.86 316.31 1274.01 316.267 1274.12 316.159C1274.32 315.972 1274.32 315.659 1274.13 315.461C1273.36 314.658 1272.69 313.801 1272.1 312.905C1273.42 314.215 1274.99 315.461 1276.81 316.642C1276.88 316.685 1276.94 316.706 1277.02 316.717C1277.2 316.742 1277.39 316.66 1277.49 316.498C1277.64 316.267 1277.58 315.965 1277.35 315.814C1274.29 313.834 1271.98 311.656 1270.39 309.287C1270.28 308.7 1270.18 308.077 1270.09 307.411C1271.57 307.595 1274.33 307.814 1276.36 307.296V307.364C1276.36 307.364 1277.08 307.631 1287.1 312.307C1290.78 314.024 1293.78 315.083 1295.83 315.709C1299.18 317.426 1302.47 316.084 1302.47 316.084V316.08C1306.59 315.137 1312.2 312.502 1317.03 309.938C1317.36 311.098 1317.76 312.264 1318.23 313.423C1319.83 317.365 1321.01 320.548 1321.88 323.05L1324.03 330.16C1324.08 330.361 1324.1 330.462 1324.1 330.462C1315.45 338.576 1308.65 358.052 1308.65 358.052C1308.65 358.052 1301.61 372.719 1296.94 383.454L1296.01 382.817C1283.94 386.082 1277.88 383.533 1276.49 383.774C1275.11 384.016 1273.84 386.705 1273.84 386.705C1281.12 395.197 1301.86 399.953 1301.86 399.953C1303.68 396.029 1304.38 391.327 1304.6 389.488C1304.65 389.005 1304.46 388.548 1304.1 388.303L1303.27 387.742C1305.34 384.775 1310.6 377.572 1314.55 375.095C1317.5 373.241 1319.54 367.517 1320.73 363.118C1324.32 359.593 1330.75 354.672 1334.57 351.835C1340.58 358.967 1347.54 364.806 1347.54 364.806C1347.54 364.806 1358.76 376.578 1367.15 384.739L1366.23 385.391C1365.01 397.832 1360.49 402.599 1360.22 403.981C1359.95 405.364 1362.02 407.502 1362.02 407.502C1372.54 403.697 1384.32 385.981 1384.32 385.981C1381.3 382.882 1377.15 380.567 1375.5 379.717C1375.07 379.494 1374.58 379.512 1374.22 379.764L1373.4 380.34C1371.36 377.352 1366.49 369.886 1365.57 365.317C1364.87 361.897 1360.23 357.955 1356.53 355.291C1353.72 349.096 1351.53 340.56 1351.53 340.56C1352.4 333.731 1350.14 329.26 1347.4 326.401C1347.69 323.244 1347.95 318.56 1347.63 313.322C1350.93 321.75 1360.38 334.31 1360.38 334.31L1360.4 334.289C1360.71 335.279 1361 336.553 1361.06 337.892C1361.18 340.805 1368.86 347.494 1368.86 347.494C1368.86 347.494 1370.69 347.101 1369.11 344.614C1369.11 344.614 1370.44 345.208 1371.14 344.372C1371.84 343.534 1370.94 342.504 1370.94 342.504C1370.94 342.504 1372.54 341.993 1371.66 340.229C1371.66 340.229 1372.63 338.911 1371.8 337.399C1371.8 337.399 1372.9 336.398 1371.93 334.973C1371.93 334.973 1369.09 331.02 1366.3 329.285L1366.35 329.242C1366.35 329.242 1365.98 328.496 1361.59 317.48C1359.18 311.458 1356.9 307.609 1355.97 306.151C1353.62 301.698 1346.93 295.384 1341.43 290.639C1339.59 287.629 1337.24 284.929 1334.27 282.766C1333.7 281.002 1333.49 278.172 1335.2 274.147C1335.2 274.147 1341.6 267.127 1342.01 259.168C1342.56 256.054 1342.68 251.579 1339.9 247.194C1366.03 232.222 1381.25 216.41 1389.9 204.487C1392.32 201.157 1394.33 197.986 1396.01 195.026C1398.17 195.854 1400.59 196.006 1400.59 196.006C1401.17 195.084 1401.31 193.68 1401.26 192.33C1413.63 194.612 1429.53 181.627 1437.86 162.27C1443.32 149.58 1436.71 136.609 1424.02 131.152C1412.48 126.184 1399.88 129.146 1393.59 139.277C1393.91 138.366 1394.21 137.441 1394.49 136.505C1398.48 123.282 1390.45 111.139 1377.22 107.15C1366.15 103.81 1354.95 107.244 1349.26 116.212C1345.3 109.843 1338.12 105.61 1329.61 104.839C1315.85 103.59 1303.86 111.841 1302.61 125.597C1302.09 131.353 1302.27 136.908 1303.05 142.027C1299.11 134.208 1290.65 129.316 1280.78 129.157C1266.96 128.934 1255.62 138.056 1255.4 151.866L1255.39 151.873ZM1355.41 168.728C1354.12 170.338 1353.36 171.857 1353.36 171.857C1353.86 172.616 1354.71 173.138 1355.67 173.495C1354.36 178.949 1351.73 187.902 1346.67 198.576C1341.33 209.862 1332.45 224.723 1318.18 239.641C1315.44 240.206 1313.02 241.121 1311.32 242.168C1306.1 245.401 1302.73 243.918 1302.73 243.918C1304.49 246.283 1306.01 246.694 1306.01 246.694C1304.6 247.468 1303.94 247.273 1303.94 247.273C1304.47 248.713 1305.88 249.894 1306.74 250.51C1303.31 253.487 1299.65 256.432 1295.72 259.312C1284.68 267.415 1276.8 276.48 1272.24 286.322C1275.27 276.505 1280.03 267.239 1286.43 258.721C1309.74 227.678 1319.77 191.696 1323.51 174.272C1325.58 174.258 1327.47 173.768 1327.47 173.768C1327.73 172.714 1327.42 171.338 1326.96 170.068C1334 169.124 1340.6 163.202 1345.35 154.447C1347.25 161.05 1350.68 166.147 1355.41 168.725L1355.41 168.728ZM1305.27 260.852C1305.27 260.852 1305.62 261.511 1305.72 262.44C1292.14 268.348 1281.98 275.051 1275.37 282.452C1280.02 274.403 1287.03 266.915 1296.31 260.107C1300.18 257.263 1303.8 254.362 1307.2 251.428C1305.96 253.753 1304.89 256.975 1305.27 260.852ZM1339.35 246.384C1338.41 245.092 1337.21 243.817 1335.68 242.593C1331.37 239.159 1325.17 238.561 1319.81 239.353C1333.64 224.658 1342.32 210.085 1347.59 198.961C1352.64 188.284 1355.29 179.305 1356.61 173.79C1358.85 174.37 1361.28 174.247 1361.28 174.247C1361.75 173.264 1361.72 171.857 1361.53 170.521C1371.46 171.209 1382.5 162.144 1389.7 148.327C1383.78 166.19 1386.07 183.312 1395.39 189.868C1393.92 191.318 1392.99 192.744 1392.99 192.744C1393.41 193.558 1394.19 194.173 1395.11 194.634C1393.44 197.554 1391.45 200.689 1389.06 203.98C1380.46 215.813 1365.33 231.509 1339.35 246.38L1339.35 246.384ZM1269.99 296.273C1270.02 295.938 1270.06 295.6 1270.1 295.254C1270.37 294.131 1270.71 292.979 1271.11 291.794C1271.66 290.164 1272.3 288.554 1273.03 286.963C1279.18 278.212 1290.12 270.356 1305.68 263.534C1305.56 264.262 1305.22 265.054 1304.46 265.788C1302.16 268.009 1302.26 269.557 1303.26 270.767C1304.25 271.976 1304.92 270.936 1304.48 272.772C1304.48 272.772 1303.86 273.359 1304.12 274.1C1304.29 274.561 1304.74 274.853 1305.23 274.864C1306.4 274.885 1309.11 275.022 1309.06 275.839C1308.54 277.114 1307.17 277.751 1306.52 277.988C1306.2 278.107 1305.95 278.37 1305.85 278.698C1305.74 279.061 1305.75 279.522 1306.29 279.878C1306.43 280.04 1306.91 280.321 1306.87 280.915C1306.82 281.855 1307.6 283.91 1309.63 284.314C1312.09 284.803 1315.2 282.971 1315.66 283.73C1316.13 284.49 1316.6 288.752 1316.6 288.752C1316.6 288.752 1316.36 289.688 1316.11 291.287C1313.17 295.128 1301.94 303.275 1298.9 305.446C1291.31 301.788 1276.89 299.563 1276.89 299.563V299.596C1276.05 299.11 1275.03 298.418 1274.12 297.511C1273.42 296.809 1271.8 296.449 1269.99 296.269L1269.99 296.273ZM1269.21 294.016C1269.19 294.134 1269.18 294.253 1269.16 294.372C1269.04 294.984 1268.92 295.589 1268.82 296.183C1268.71 296.176 1268.6 296.172 1268.49 296.165C1268.69 295.459 1268.93 294.739 1269.21 294.016ZM1280.15 198.824C1282.09 198.626 1283.78 198.054 1283.78 198.054C1283.97 196.981 1283.55 195.635 1283 194.404C1295.31 191.812 1305.07 173.754 1305.41 152.68C1305.42 152.359 1305.41 152.046 1305.41 151.733C1308.57 160.877 1313.97 167.501 1320.63 169.542C1319.69 171.378 1319.25 173.02 1319.25 173.02C1320.04 173.808 1321.26 174.139 1322.53 174.24C1318.77 191.632 1308.78 227.329 1285.65 258.127C1280.41 265.104 1276.26 272.574 1273.24 280.436C1274.06 277.661 1275.06 274.709 1276.27 271.566C1286.73 244.292 1282.05 209.74 1280.16 198.824H1280.15Z" fill="#002C57"/>
<path d="M1370 410.5H1448.75L1438.66 389.325H1414.23V95.7698H1425.58L1435.96 40.2722H1436.45C1436.45 40.0346 1436.46 39.8006 1436.46 39.563C1436.46 39.0014 1436.43 38.447 1436.4 37.8962L1436.47 37.5146H1436.37C1435.38 24.317 1424.94 13.7618 1411.8 12.5954V0.240234H1406.95V12.5954C1393.13 13.823 1382.29 25.4258 1382.29 39.563C1382.29 39.8006 1382.29 40.0382 1382.3 40.2722H1383.03L1393.4 95.7698H1404.52V389.325H1380.08L1370 410.5H1370ZM1411.92 69.0686H1425.64L1421.55 90.917H1411.92V69.0686H1411.92ZM1411.92 42.3674H1430.63L1426.55 64.2158H1411.92V42.3674ZM1407.07 64.2158H1392.45L1388.36 42.3674H1407.07V64.2158ZM1407.07 90.917H1397.44L1393.35 69.0686H1407.07V90.917H1407.07Z" fill="#002C57"/>
<path d="M-47.9916 249.789H-81V260.855H-47.9916V268.052H-81V279.118H-47.9916V286.315H-81V297.381H-47.9916V304.577H-81V315.644H-47.9916V322.84H-81V333.907H-47.9916V341.103H-81V352.169H-47.9916V403.549H-30.3192V352.169H189.58V403.549H207.252V352.169H240.26V341.103H207.252V333.907H240.26V322.84H207.252V315.644H240.26V304.577H207.252V297.381H240.26V286.315H207.252V279.118H240.26V268.052H207.252V260.855H240.26V249.789H-47.9916ZM-35.622 333.903H194.882V341.099H-35.622V333.903ZM-35.622 315.64H194.882V322.837H-35.622V315.64ZM-35.622 297.377H194.882V304.574H-35.622V297.377ZM-35.622 279.118H194.882V286.315H-35.622V279.118ZM-35.622 260.855H194.882V268.052H-35.622V260.855Z" fill="#002C57"/>
<path d="M8.74564 340.178C-7.95836 334.598 -7.86837 319.817 -7.55157 315.392C-7.23117 310.968 -1.63677 300.603 -1.63677 300.603C-1.63677 300.603 -7.43277 294.411 -11.1768 290.826C-14.9208 287.24 -13.0776 283.277 -13.0776 283.277C-13.0776 283.277 -10.8888 276.145 -9.02396 271.991C-7.16276 267.836 -6.30956 261.489 -6.30956 261.489C-9.15716 259.686 -10.2264 258.703 -10.2264 258.703C-10.2264 258.703 -8.25717 253.062 -1.27317 237.711C4.54803 224.917 17.7996 223.236 17.7996 223.236C33.7548 218.268 42.9168 223.38 42.9168 223.38C42.9168 223.38 69.0744 233.658 78.6936 255.333C78.6936 255.333 68.448 271.566 64.1604 275.241L57.7704 269.114C57.7704 269.114 53.4397 286.88 56.8092 297.601C56.8092 297.601 57.4212 300.053 71.2057 301.583C84.9901 303.113 75.5257 338.645 75.5257 338.645C75.5257 338.645 36.5376 349.463 8.74564 340.175V340.178Z" fill="#002C57"/>
<path d="M34.7415 172.144C34.7415 172.144 52.2879 172.123 55.5747 182.339C58.8579 192.553 57.4539 192.873 57.4539 192.873C57.4539 192.873 56.1759 193.719 56.9103 195.361C57.6483 197.002 59.2179 200.458 59.2179 200.458C59.2179 200.458 60.7803 203.461 59.5023 204.584C57.6951 206.168 57.7491 206.276 57.7995 207.021C57.8499 207.766 58.2243 209.102 57.1911 209.861C57.1911 209.861 57.8823 211.075 56.7087 211.942C56.7087 211.942 55.7511 212.273 56.2839 214.822C56.8131 217.371 53.5587 217.947 52.4895 217.933C51.4203 217.918 45.1599 216.298 44.5479 217.763C43.9359 219.232 42.9279 224.02 42.6975 224.571C42.4671 225.122 42.4959 226.821 42.7335 227.685C42.9711 228.553 19.3227 225.37 19.3227 225.37C19.3227 225.37 25.2051 214.991 19.7547 196.567C14.3043 178.145 29.5971 172.526 34.7379 172.141L34.7415 172.144Z" fill="#002C57"/>
<path d="M56.1008 184.027C56.1008 184.027 58.772 180.056 55.694 174.195C53.1452 169.346 27.992 160.731 24.4784 172.845C24.4784 172.845 14.5532 175.07 14.4308 186.856C14.3228 197.483 21.926 207.97 21.926 207.97L56.1008 184.023V184.027Z" fill="#002C57"/>
<path d="M63.5469 270.034L73.9617 282.5C73.9617 282.5 101.293 303.139 118.562 304.81L125.517 307.358C125.517 307.358 126.745 307.196 126.745 306.174C126.745 305.152 122.763 299.741 120.211 298.618C117.658 297.494 110.206 292.39 110.206 292.39C110.206 292.39 86.6229 277.892 83.3541 274.012C80.0853 270.131 72.5325 258.697 72.5325 258.697L63.5469 270.03V270.034Z" fill="#002C57"/>
<path d="M64.1602 275.243C64.1602 275.243 70.6942 276.135 74.575 271.772C78.4558 267.409 66.3742 257.477 66.3742 257.477L64.1602 275.243Z" fill="#002C57"/>
<path d="M77.0384 331.332L93.8468 333.661C93.8468 333.661 94.6064 359.621 92.7668 371.407C90.9236 383.197 94.4336 387.834 98.444 390.365C102.454 392.892 109.806 394.537 109.806 394.537C109.806 394.537 117.729 393.558 118.896 394.865C120.066 396.168 122.697 399.649 117.981 402.212C113.265 404.776 87.338 413.538 79.4612 408.188C79.4612 408.188 77.3444 406.234 78.0608 404.048C78.7808 401.863 81.3476 390.073 80.588 382.078C79.8284 374.082 78.1796 362.015 76.7792 357.878C75.3788 353.738 74.2916 336.872 77.0348 331.332H77.0384Z" fill="#002C57"/>
<path d="M69.5328 329.287L83.6376 338.719C83.6376 338.719 72.996 362.407 66.192 372.21C59.3916 382.013 60.522 387.719 63.0276 391.743C65.5332 395.768 71.43 400.455 71.43 400.455C71.43 400.455 78.9864 403.033 79.4688 404.718C79.9512 406.403 80.8008 410.679 75.4368 410.931C70.0728 411.18 42.9252 407.749 38.1732 399.498C38.1732 399.498 37.122 396.816 38.7204 395.163C40.3188 393.511 47.778 384.021 50.5824 376.497C53.3868 368.97 57.1704 357.396 57.7176 353.061C58.2648 348.727 64.6476 333.074 69.5292 329.287H69.5328Z" fill="#002C57"/>
<path d="M141.02 337.853C135.458 341.589 107.115 348.458 83.5495 342.63C83.5495 342.63 56.0635 335.279 73.3615 299.747C73.3615 299.747 80.9071 288.108 72.6055 264.449C66.1399 246.035 74.3191 236.498 74.3191 236.498C74.9167 236.801 75.6331 236.952 76.4683 236.883C78.8119 236.682 79.9531 234.921 80.0179 233.096C80.5723 232.758 81.0007 232.293 81.2923 231.753C81.3859 231.681 81.4651 231.591 81.5515 231.512C81.6811 231.512 81.8143 231.509 81.9511 231.498C84.5647 231.275 85.6843 229.111 85.4827 227.081L107.522 225.688C107.522 225.688 111.331 228.387 113.969 228.762C113.969 228.762 129.374 232.762 130.281 246.888C130.313 247.378 130.429 247.824 130.627 248.234C129.298 251.363 129.619 253.328 129.619 253.328C129.619 253.328 132.344 257.612 130.673 264.532C129.003 271.447 122.329 276.163 122.329 276.163C122.329 276.163 115.561 292.881 123.945 304.815C123.945 304.815 138.403 309.629 141.553 312.883C144.706 316.137 146.578 334.116 141.02 337.853Z" fill="#002C57"/>
<path d="M111.256 188.158C111.256 188.158 116.768 181.869 111.519 175.576C111.519 175.576 104.56 166.918 85.538 179.36C85.538 179.36 82.4312 176.415 78.6512 178.989C74.936 181.516 72.1964 191.888 77.6972 204.524C77.6972 204.524 83.8928 221.314 78.2912 227.848C78.2912 227.848 72.8084 233.983 68.168 230.969C68.168 230.969 70.0976 241.539 79.1408 239.62L91.5428 230.606L111.256 188.158Z" fill="#002C57"/>
<path d="M112.373 178.261C112.373 178.261 118.147 180.619 119.551 191.365C119.551 191.365 118.446 194.436 120.581 196.974C122.715 199.508 123.306 200.444 123.306 200.444C123.306 200.444 124.127 201.38 122.42 203.673C122.42 203.673 120.656 204.89 121.333 207.122C121.333 207.122 121.772 208.422 120.728 208.911C120.728 208.911 121.52 209.836 120.905 211.23C120.289 212.619 119.612 213.055 120.001 214.606C120.39 216.158 119.27 217.659 118.14 217.717C117.009 217.771 115.782 218.336 112.329 217.184C112.329 217.184 109.129 217.342 107.862 222.242L90.2003 218.516C90.2003 218.516 91.2803 212.324 90.4847 209.764C89.6891 207.205 84.1271 203.202 84.2927 197.996C84.4583 192.79 83.4287 176.914 101.159 176.047C101.159 176.047 108.125 176.209 112.373 178.264V178.261Z" fill="#002C57"/>
<path d="M108.027 218.446C108.027 218.446 105.183 231.294 110.216 240.842C115.245 250.385 86.2324 224.663 86.2324 224.663L91.0888 202.818L108.027 218.446Z" fill="#002C57"/>
<path d="M109.272 219.129C109.272 219.129 105.953 226.556 109.308 230.624C112.663 234.692 101.381 230.844 101.381 230.844L102.176 217.459L109.268 219.129H109.272Z" fill="#002C57"/>
<path d="M90.0611 225.928C90.0611 225.928 74.2931 226.522 72.0179 240.619C69.7427 254.721 82.8143 240.619 82.8143 240.619L90.0647 225.928H90.0611Z" fill="#002C57"/>
<path d="M156.121 330.258L172.667 336.882C172.667 336.882 150.458 378.001 154.285 386.713C158.112 395.425 159.822 400.303 166.41 403.471C172.998 406.639 168.393 409.962 168.393 409.962C168.393 409.962 160.463 410.484 148.971 405.102C148.971 405.102 131.792 403.514 131.378 398.395C130.964 393.276 140.609 388.607 141.321 381.363C142.038 374.12 152.334 338.415 156.114 330.258H156.121Z" fill="#002C57"/>
<path d="M135.569 323.568L153.112 330.563C153.112 330.563 134.518 371.632 139.162 379.937C143.81 388.242 145.977 392.933 152.842 395.457C159.704 397.977 155.441 401.728 155.441 401.728C155.441 401.728 147.597 403.006 135.641 398.754C135.641 398.754 118.387 398.823 117.487 393.765C116.583 388.707 125.734 383.134 125.752 375.858C125.77 368.579 132.592 332.05 135.573 323.568H135.569Z" fill="#002C57"/>
<path d="M123.922 308.498C123.922 308.498 160.293 314.218 163.936 316.173C168.295 318.517 169.66 319.827 173.058 323.211C177.583 327.725 171.827 338.623 168.533 344.883C165.239 351.143 152.146 341.193 152.146 341.193C152.146 341.193 156.574 333.802 150.508 333.802C146.674 333.802 131.374 333.95 131.374 333.95L123.922 308.494V308.498Z" fill="#002C57"/>
<path d="M100.525 303.953C100.525 303.953 136.896 309.673 140.539 311.628C144.899 313.972 146.263 315.282 149.662 318.666C154.187 323.18 148.431 334.078 145.137 340.338C141.843 346.598 128.749 336.648 128.749 336.648C128.749 336.648 133.177 329.257 127.111 329.257C123.277 329.257 107.977 329.405 107.977 329.405L100.525 303.949V303.953Z" fill="#002C57"/>
<path d="M123.508 268.419L129.408 283.554C129.408 283.554 148.74 311.821 164.58 318.909L170.362 323.543C170.362 323.543 171.578 323.78 171.902 322.812C172.226 321.843 170.178 315.446 168.115 313.567C166.052 311.688 160.613 304.477 160.613 304.477C160.613 304.477 142.876 283.223 141.014 278.503C139.153 273.783 135.632 260.539 135.632 260.539L123.504 268.419H123.508Z" fill="#002C57"/>
<path d="M122.034 239.854L126.084 236.412C126.084 236.412 133.226 241.654 136.369 263.25L125.446 273.395L119.283 262.069L122.034 239.854Z" fill="#002C57"/>
</svg>
