<svg width="1440" height="734" viewBox="0 0 1440 734" fill="none" xmlns="http://www.w3.org/2000/svg">
<path fill-rule="evenodd" clip-rule="evenodd" d="M-0.00164795 0H1440V416.708C1473.59 446.758 1453.17 482.194 1453.17 482.194C1453.17 482.194 1520.44 506.143 1521.6 551.374C1521.67 554.07 1521.53 556.751 1521.2 559.407L1521.45 559.351L1521.68 559.3C1519.23 578.968 1506.43 597.217 1487.88 609.8C1473.93 619.518 1456.75 625.988 1438.52 627.316C1452.82 641.159 1456.2 659.963 1451.21 677.484C1447.39 691.47 1438.23 704.685 1425.03 713.967C1395.25 734.917 1351.17 738.152 1312.72 729.594C1265.77 719.558 1224.92 693.176 1200.85 658.28C1201.72 662.305 1201.5 666.267 1200.4 670.054C1195.54 688.325 1169.95 702.707 1145.79 700.971C1116.32 698.853 1091.58 679.917 1076.63 659.045C1052.56 681.604 1013.88 693.084 977.388 688.521C940.899 683.957 907.913 664.186 891.656 637C874.609 662.005 833.883 672.52 799.678 665.313C765.637 657.527 738.362 633.888 725.942 606.766C724.294 603.235 722.889 599.637 721.744 596H717.932C716.788 599.637 715.382 603.235 713.734 606.766C701.314 633.888 674.04 657.527 639.998 665.313C605.794 672.52 565.068 662.005 548.02 637C531.764 664.186 498.778 683.957 462.289 688.521C425.8 693.084 387.115 681.604 363.046 659.045C348.099 679.917 323.357 698.853 293.89 700.971C269.727 702.707 244.144 688.327 239.278 670.057C238.174 666.269 237.958 662.306 238.831 658.28C214.752 693.176 173.91 719.558 126.952 729.594C88.5027 738.152 44.4266 734.917 14.6433 713.967C1.44581 704.684 -7.71091 691.468 -11.5358 677.48C-16.5185 659.96 -13.1387 641.158 1.15255 627.316C-17.0775 625.988 -34.2537 619.518 -48.2054 609.8C-66.7495 597.217 -79.5537 578.967 -82.0078 559.3C-81.8463 559.336 -81.6846 559.372 -81.5229 559.407C-81.8513 556.751 -81.9889 554.07 -81.9238 551.374C-80.7594 506.143 -13.4886 482.194 -13.4886 482.194C-13.4886 482.194 -34.0472 446.533 -0.00164795 416.423V0Z" fill="#FFF8F8"/>
</svg>
