<svg width="1440" height="1388" viewBox="0 0 1440 1388" fill="none" xmlns="http://www.w3.org/2000/svg">
<path fill-rule="evenodd" clip-rule="evenodd" d="M-0.00164795 1388H1440V317.293C1473.59 287.243 1453.17 251.807 1453.17 251.807C1453.17 251.807 1520.44 227.858 1521.6 182.627C1521.67 179.932 1521.53 177.25 1521.2 174.594C1521.36 174.629 1521.52 174.665 1521.68 174.701C1519.23 155.033 1506.43 136.783 1487.88 124.2C1473.93 114.483 1456.75 108.013 1438.52 106.685C1452.82 92.8418 1456.2 74.0376 1451.21 56.5165C1447.39 42.5304 1438.23 29.3157 1425.03 20.0336C1395.25 -0.916016 1351.17 -4.15063 1312.72 4.40747C1265.77 14.4435 1224.92 40.8251 1200.85 75.7213C1201.72 71.6959 1201.5 67.7346 1200.4 63.9474C1195.54 45.676 1169.95 31.2939 1145.79 33.0304C1116.32 35.1479 1091.58 54.0839 1076.63 74.9557C1052.56 52.397 1013.88 40.9165 977.388 45.4805C940.899 50.0443 907.913 69.8154 891.656 97.0013C874.609 71.9962 833.883 61.4814 799.678 68.6877C765.637 76.474 738.362 100.113 725.942 127.235C724.295 130.765 722.889 134.363 721.744 138H717.932C716.787 134.363 715.382 130.765 713.734 127.235C701.314 100.113 674.04 76.474 639.998 68.6877C605.794 61.4814 565.068 71.9962 548.02 97.0013C531.764 69.8154 498.778 50.0443 462.289 45.4805C425.8 40.9165 387.115 52.397 363.046 74.9557C348.099 54.0839 323.357 35.1479 293.89 33.0304C269.726 31.2941 244.144 45.6743 239.278 63.9443C238.174 67.7324 237.958 71.6948 238.83 75.7212C214.752 40.8251 173.91 14.4435 126.952 4.40747C88.5027 -4.15063 44.4266 -0.916016 14.6433 20.0336C1.44604 29.3165 -7.71058 42.5328 -11.5356 56.5204C-16.5186 74.0403 -13.1389 92.8428 1.1525 106.685C-17.0772 108.013 -34.253 114.483 -48.2045 124.201C-66.7491 136.784 -79.5536 155.033 -82.0078 174.701C-81.8463 174.665 -81.6846 174.629 -81.5229 174.594C-81.8513 177.25 -81.9889 179.932 -81.9238 182.627C-80.7594 227.858 -13.4886 251.807 -13.4886 251.807C-13.4886 251.807 -34.0472 287.468 -0.00164795 317.578V1388Z" fill="#FFF8F8"/>
</svg>
