<svg width="393" height="2311" viewBox="0 0 393 2311" fill="none" xmlns="http://www.w3.org/2000/svg">
<path d="M393 921H394V86.6852C402.65 78.5225 397.211 69.0873 397.211 69.0873C397.211 69.0873 415.668 62.5164 415.987 50.1065C416.005 49.3667 415.967 48.6308 415.877 47.9018L416.011 47.9313C415.335 42.5145 411.797 37.4899 406.678 34.0364C402.861 31.3925 398.17 29.6334 393.194 29.2706C397.134 25.4545 398.052 20.2641 396.656 15.4373C395.595 11.6256 393.091 8.02809 389.492 5.49672C381.321 -0.251204 369.228 -1.13865 358.679 1.20937C345.796 3.96279 334.59 11.2006 327.984 20.7746C328.226 19.6596 328.163 18.5625 327.853 17.5145C326.498 12.516 319.493 8.58705 312.877 9.06252C304.792 9.64345 298.004 14.8388 293.903 20.5653C287.299 14.376 276.685 11.2262 266.674 12.4784C256.663 13.7306 247.613 19.155 243.153 26.6139C238.475 19.7533 227.302 16.8685 217.917 18.8456C208.577 20.9818 201.094 27.4675 197.687 34.9091C197.214 35.922 196.813 36.9555 196.492 38.0001H195.519C195.197 36.9555 194.797 35.9221 194.324 34.9091C190.917 27.4677 183.433 20.982 174.094 18.8457C164.709 16.8685 153.535 19.7534 148.858 26.6139C144.398 19.1552 135.348 13.7306 125.337 12.4784C115.325 11.2262 104.711 14.3761 98.1078 20.5653C94.0067 14.8389 87.2185 9.64357 79.1336 9.06264C72.5124 8.58681 65.5027 12.5219 64.1552 17.5255C63.8474 18.5702 63.7859 19.6632 64.0264 20.7741C57.4199 11.2005 46.2148 3.96291 33.3319 1.20949C22.7827 -1.13853 10.6897 -0.251081 2.51825 5.49672C-1.08884 8.03395 -3.59574 11.6421 -4.65227 15.4635C-6.03774 20.2829 -5.11687 25.4614 -1.18399 29.2709C-6.18269 29.6353 -10.8925 31.4086 -14.7191 34.0724C-19.8106 37.5248 -23.3264 42.5338 -24 47.9323L-23.8664 47.9027C-23.9565 48.6316 -23.9942 49.3671 -23.9764 50.1066C-23.6569 62.5165 -5.20014 69.0873 -5.20014 69.0873C-5.20014 69.0873 -11.0381 79.2138 -1 87.5609V818H-1.99988L-2 2224.33C-10.6339 2232.49 -5.19922 2241.91 -5.19922 2241.91C-5.19922 2241.91 -23.656 2248.48 -23.9755 2260.89C-23.9934 2261.63 -23.9555 2262.37 -23.8654 2263.1L-23.9991 2263.07C-23.3231 2268.49 -19.7845 2273.51 -14.6634 2276.97C-10.8464 2279.61 -6.15729 2281.37 -1.18207 2281.73C-5.12272 2285.55 -6.0402 2290.74 -4.64402 2295.56C-3.58323 2299.38 -1.0796 2302.97 2.51916 2305.5C10.6906 2311.25 22.7836 2312.14 33.3328 2309.79C46.2159 2307.04 57.4212 2299.8 64.0276 2290.23C63.7859 2291.34 63.8486 2292.44 64.1592 2293.49C65.5145 2298.48 72.5184 2302.41 79.1345 2301.94C87.2194 2301.36 94.0077 2296.16 98.1087 2290.44C104.712 2296.62 115.326 2299.77 125.337 2298.52C135.349 2297.27 144.399 2291.85 148.859 2284.39C153.536 2291.25 164.71 2294.13 174.095 2292.15C183.434 2290.02 190.917 2283.53 194.325 2276.09C194.798 2275.08 195.198 2274.04 195.52 2273H196.493C196.814 2274.04 197.215 2275.08 197.687 2276.09C201.095 2283.53 208.578 2290.02 217.918 2292.15C227.302 2294.13 238.476 2291.25 243.153 2284.39C247.614 2291.85 256.664 2297.27 266.675 2298.52C276.686 2299.77 287.3 2296.62 293.904 2290.43C298.005 2296.16 304.793 2301.36 312.878 2301.94C319.499 2302.41 326.509 2298.48 327.856 2293.47C328.164 2292.43 328.226 2291.34 327.985 2290.23C334.592 2299.8 345.797 2307.04 358.68 2309.79C369.229 2312.14 381.322 2311.25 389.493 2305.5C393.1 2302.97 395.607 2299.36 396.664 2295.54C398.049 2290.72 397.129 2285.54 393.196 2281.73C398.195 2281.36 402.906 2279.59 406.733 2276.93C411.823 2273.47 415.338 2268.47 416.012 2263.07L415.878 2263.1C415.968 2262.37 416.006 2261.63 415.988 2260.89C415.669 2248.48 397.212 2241.91 397.212 2241.91C397.212 2241.91 403.054 2231.78 393 2223.43L393 921Z" fill="#FFF8F8"/>
</svg>
