<svg width="108" height="124" viewBox="0 0 108 124" fill="none" xmlns="http://www.w3.org/2000/svg">
<path fill-rule="evenodd" clip-rule="evenodd" d="M26.3693 79.1535C26.3693 79.1535 34.67 72.605 40.0146 64.5805C45.3523 56.549 47.63 56.1549 47.9485 57.7455C48.2739 59.3432 46.9516 62.4526 46.9516 62.4526C46.9516 62.4526 50.42 69.6173 44.5769 76.216C44.5769 76.216 45.8093 83.6744 35.5562 87.9588C35.5562 87.9588 43.1369 91.3405 42.4169 93.6619C41.6969 95.9832 39.26 95.8901 39.26 95.8901C39.26 95.8901 38.9762 101.5 34.7046 99.3005C34.7046 99.3005 32.6623 101.987 31.3746 100.604C30.087 99.2145 28.467 92.143 28.467 92.143C28.467 92.143 19.8616 95.2166 15.7562 92.1143C15.7562 92.1143 10.9724 91.534 8.9439 88.5607C8.9439 88.5607 0.705448 85.8166 0.0339088 82.0695C-0.630707 78.3224 8.57006 84.2045 19.2177 81.7901C19.2177 81.7901 18.2485 80.658 17.9024 78.5015C17.9024 78.5015 17.6324 78.0573 16.6631 77.8996C16.6631 77.8996 19.6954 72.2682 26.3693 79.1463V79.1535Z" fill="#5A97D2"/>
<path fill-rule="evenodd" clip-rule="evenodd" d="M80.9589 26.6833C80.9589 26.6833 91.3336 18.7915 98.015 9.12339C104.685 -0.532795 107.529 -1.02156 107.936 0.897754C108.342 2.82899 106.693 6.57225 106.693 6.57225C106.693 6.57225 111.031 15.2032 103.716 23.1547C103.716 23.1547 105.258 32.1313 92.4452 37.2932C92.4452 37.2932 101.912 41.3703 101.015 44.1598C100.119 46.9613 97.0708 46.8421 97.0708 46.8421C97.0708 46.8421 96.7122 53.6015 91.3695 50.9549C91.3695 50.9549 88.8236 54.1975 87.21 52.5166C85.5964 50.8476 83.5765 42.3359 83.5765 42.3359C83.5765 42.3359 72.8073 46.0315 67.6916 42.3001C67.6916 42.3001 61.7154 41.5968 59.1815 38.0204C59.1815 38.0204 48.8785 34.7063 48.0418 30.2001C47.2171 25.682 58.7153 32.7751 72.0304 29.8663C72.0304 29.8663 70.8112 28.4954 70.369 25.9085C70.369 25.9085 70.0463 25.3601 68.8271 25.1813C68.8271 25.1813 72.6161 18.3981 80.9589 26.6833Z" fill="#5A97D2"/>
<path fill-rule="evenodd" clip-rule="evenodd" d="M65.3808 111.586C65.3808 111.586 70.2224 107.864 73.3404 103.303C76.4528 98.7487 77.7803 98.5181 77.9699 99.4235C78.1596 100.334 77.3898 102.1 77.3898 102.1C77.3898 102.1 79.4146 106.171 76.001 109.922C76.001 109.922 76.7205 114.156 70.7411 116.591C70.7411 116.591 75.1587 118.514 74.7404 119.83C74.322 121.152 72.8997 121.095 72.8997 121.095C72.8997 121.095 72.7324 124.284 70.2391 123.035C70.2391 123.035 69.051 124.565 68.298 123.772C67.545 122.985 66.6024 118.97 66.6024 118.97C66.6024 118.97 61.5767 120.713 59.1894 118.953C59.1894 118.953 56.4005 118.621 55.218 116.934C55.218 116.934 50.41 115.371 50.0195 113.245C49.6346 111.114 55.0005 114.46 61.2142 113.088C61.2142 113.088 60.6452 112.441 60.4389 111.221C60.4389 111.221 60.2883 110.962 59.7193 110.878C59.7193 110.878 61.4875 107.678 65.3808 111.586Z" fill="#002C57"/>
</svg>
